<svg width="551" height="24" viewBox="0 0 551 24" fill="none" xmlns="http://www.w3.org/2000/svg">
<path d="M27.3901 13.2416L26.9276 14.552H26.889C26.8119 14.2566 26.6706 13.8069 26.4394 13.2673L23.9599 7.03643H21.5317V16.9673H23.1376V10.8392C23.1376 10.4538 23.1376 10.017 23.1248 9.4774C23.1119 9.20761 23.0863 9.00205 23.0734 8.84788H23.1119C23.189 9.2333 23.279 9.51594 23.3432 9.6958L26.3237 16.9416H27.4543L30.4092 9.63156C30.4734 9.46455 30.5376 9.13052 30.6019 8.84788H30.6404C30.6019 9.58017 30.5762 10.2354 30.5633 10.6336V16.9288H32.272V7.01073H29.9338L27.3901 13.2416ZM33.8908 9.81142H35.5609V16.9288H33.8908V9.81142ZM34.7387 6.80518C34.456 6.80518 34.2248 6.90796 34.0321 7.08782C33.8394 7.26768 33.7366 7.49893 33.7366 7.78157C33.7366 8.05136 33.8394 8.28261 34.0321 8.46247C34.2248 8.64233 34.456 8.73226 34.7387 8.73226C35.0213 8.73226 35.2654 8.62948 35.4453 8.46247C35.638 8.28261 35.7408 8.05136 35.7408 7.78157C35.7408 7.51177 35.638 7.28052 35.4453 7.08782C35.2783 6.90796 35.0342 6.80518 34.7387 6.80518ZM41.4835 9.74719C41.1751 9.68295 40.8539 9.64441 40.5456 9.64441C39.7876 9.64441 39.0939 9.81142 38.5157 10.1455C37.9376 10.4795 37.4751 10.942 37.1796 11.5201C36.8713 12.1111 36.7171 12.792 36.7171 13.5757C36.7171 14.2566 36.8713 14.8604 37.1668 15.4128C37.4623 15.9524 37.8734 16.3892 38.4258 16.6847C38.9526 16.9802 39.5692 17.1343 40.263 17.1343C41.0595 17.1343 41.7404 16.9673 42.28 16.659L42.2928 16.6461V15.1045L42.2286 15.1559C41.9845 15.3357 41.7019 15.4899 41.4192 15.5798C41.1237 15.6826 40.8539 15.734 40.6227 15.734C39.9546 15.734 39.4279 15.5413 39.0553 15.1173C38.6699 14.7062 38.4772 14.1409 38.4772 13.4343C38.4772 12.702 38.6699 12.1239 39.0682 11.7C39.4664 11.276 39.9932 11.0576 40.6355 11.0576C41.1751 11.0576 41.7276 11.2375 42.2286 11.5972L42.2928 11.6486V10.017L42.28 10.0041C42.0616 9.9142 41.8175 9.81142 41.4835 9.74719ZM46.9949 9.6958C46.5838 9.6958 46.1984 9.82427 45.8644 10.0941C45.5817 10.3253 45.389 10.6593 45.222 11.0576H45.2091V9.81142H43.539V16.9288H45.2091V13.293C45.2091 12.6764 45.3376 12.1625 45.6203 11.7899C45.9029 11.4045 46.2626 11.2118 46.6994 11.2118C46.8536 11.2118 47.0078 11.2503 47.2005 11.276C47.3803 11.3274 47.5088 11.3788 47.5987 11.443L47.663 11.4944V9.82427L47.6244 9.81142C47.5088 9.73434 47.2775 9.6958 46.9949 9.6958ZM51.5428 9.65726C50.3737 9.65726 49.4359 10.0041 48.7807 10.685C48.1126 11.3659 47.7914 12.3038 47.7914 13.4857C47.7914 14.5906 48.1255 15.4899 48.7678 16.1451C49.4102 16.7875 50.2838 17.1215 51.3758 17.1215C52.5192 17.1215 53.4314 16.7746 54.0866 16.0809C54.7546 15.3871 55.0758 14.4621 55.0758 13.3187C55.0758 12.1882 54.7675 11.2889 54.138 10.6336C53.5341 9.97844 52.6477 9.65726 51.5428 9.65726ZM52.8789 15.1302C52.5706 15.5284 52.0824 15.7211 51.4786 15.7211C50.8748 15.7211 50.3866 15.5284 50.0397 15.1045C49.6928 14.7062 49.5258 14.1281 49.5258 13.3958C49.5258 12.6378 49.7057 12.0597 50.0397 11.6486C50.3866 11.2375 50.8619 11.0319 51.4657 11.0319C52.0567 11.0319 52.5192 11.2246 52.8532 11.6229C53.1873 12.0211 53.3671 12.5993 53.3671 13.3573C53.3414 14.1281 53.2001 14.7319 52.8789 15.1302ZM58.8015 12.7663C58.2748 12.5479 57.9407 12.3809 57.7866 12.2395C57.6581 12.1111 57.5939 11.9312 57.5939 11.7C57.5939 11.5073 57.6709 11.3145 57.8636 11.1861C58.0564 11.0576 58.2748 10.9934 58.5959 10.9934C58.8786 10.9934 59.1741 11.0448 59.4567 11.1218C59.7393 11.1989 59.9963 11.3145 60.2018 11.4687L60.2661 11.5201V9.95274L60.2275 9.9399C60.0348 9.86281 59.7779 9.78573 59.4695 9.72149C59.1612 9.67011 58.8786 9.64441 58.6473 9.64441C57.8508 9.64441 57.1956 9.83712 56.6817 10.2611C56.1678 10.6593 55.9237 11.1989 55.9237 11.8284C55.9237 12.1625 55.9751 12.458 56.0907 12.702C56.2064 12.9461 56.3734 13.1774 56.6046 13.3701C56.8359 13.55 57.1699 13.7555 57.6324 13.9482C58.0178 14.1152 58.3133 14.2437 58.4932 14.3465C58.673 14.4493 58.7886 14.5649 58.8786 14.6548C58.9428 14.7576 58.9814 14.8861 58.9814 15.0531C58.9814 15.5284 58.6216 15.7597 57.8893 15.7597C57.6067 15.7597 57.3112 15.7083 56.9643 15.5927C56.6175 15.477 56.2963 15.31 56.0265 15.1173L55.9623 15.0659V16.6975L56.0008 16.7104C56.2449 16.826 56.5404 16.9031 56.9001 16.993C57.2598 17.0573 57.581 17.1086 57.8636 17.1086C58.7244 17.1086 59.431 16.9159 59.932 16.492C60.4459 16.0809 60.7157 15.5541 60.7157 14.8732C60.7157 14.3979 60.5873 13.9739 60.3046 13.6527C59.932 13.3444 59.4695 13.0232 58.8015 12.7663ZM65.1223 9.65726C63.9532 9.65726 63.0154 10.0041 62.3602 10.685C61.705 11.3659 61.3709 12.3038 61.3709 13.4857C61.3709 14.5906 61.705 15.4899 62.3473 16.1451C62.9897 16.7875 63.8633 17.1215 64.9553 17.1215C66.0987 17.1215 67.0109 16.7746 67.6661 16.0809C68.3341 15.3871 68.6553 14.4621 68.6553 13.3187C68.6553 12.1882 68.347 11.2889 67.7174 10.6336C67.1136 9.97844 66.2272 9.65726 65.1223 9.65726ZM66.4456 15.1302C66.1372 15.5284 65.6491 15.7211 65.0452 15.7211C64.4286 15.7211 63.9532 15.5284 63.6063 15.1045C63.2595 14.7062 63.0925 14.1281 63.0925 13.3958C63.0925 12.6378 63.2723 12.0597 63.6063 11.6486C63.9532 11.2375 64.4286 11.0319 65.0324 11.0319C65.6105 11.0319 66.0859 11.2246 66.4199 11.6229C66.7539 12.0211 66.9338 12.5993 66.9338 13.3573C66.9338 14.1281 66.7668 14.7319 66.4456 15.1302ZM77.5841 11.1861V9.81142H75.9011V7.70448L75.8497 7.71733L74.2567 8.19268L74.2181 8.20552V9.81142H71.7001V8.91212C71.7001 8.50101 71.8029 8.17983 71.9827 7.97427C72.1626 7.76872 72.4324 7.66594 72.7664 7.66594C72.9977 7.66594 73.2418 7.71733 73.5115 7.83295L73.5758 7.8715V6.41976L73.5372 6.40691C73.306 6.32983 72.9977 6.27844 72.5994 6.27844C72.0984 6.27844 71.6615 6.39407 71.2633 6.58678C70.865 6.80518 70.5695 7.10066 70.3511 7.49893C70.1327 7.88434 70.0171 8.32115 70.0171 8.82219V9.81142H68.848V11.1732H70.0171V16.9288H71.7001V11.1861H74.2181V14.8475C74.2181 16.3507 74.9247 17.1086 76.3379 17.1086C76.5692 17.1086 76.8133 17.0701 77.0445 17.0316C77.2886 16.9802 77.4685 16.9159 77.5713 16.8645L77.5841 16.8517V15.477L77.5199 15.5284C77.4171 15.5927 77.3272 15.6441 77.173 15.6826C77.0445 15.7211 76.9289 15.734 76.839 15.734C76.5049 15.734 76.2737 15.6569 76.1067 15.4642C75.9525 15.2843 75.8754 14.9889 75.8754 14.552V11.1861H77.5841Z" fill="#9D9D9D"/>
<path d="M0 3.69666H7.87534V11.572H0V3.69666Z" fill="#9D9D9D"/>
<path d="M8.69751 3.69543H16.5728V11.5708H8.69751V3.69543Z" fill="#9D9D9D"/>
<path d="M0 12.3938H7.87534V20.2691H0V12.3938Z" fill="#9D9D9D"/>
<path d="M8.69751 12.3938H16.5728V20.2691H8.69751V12.3938Z" fill="#9D9D9D"/>
<path d="M137.869 18.3028L138.773 16.1855C139.764 16.916 141.051 17.2999 142.339 17.2999C143.28 17.2999 143.887 16.9284 143.887 16.3712C143.862 14.8236 138.191 16.0246 138.142 12.1244C138.117 10.1434 139.888 8.6081 142.376 8.6081C143.862 8.6081 145.348 8.97954 146.4 9.8091L145.558 11.9635C144.592 11.3444 143.391 10.911 142.252 10.911C141.472 10.911 140.965 11.2825 140.965 11.753C140.99 13.2883 146.71 12.4463 146.772 16.1731C146.772 18.2037 145.051 19.6152 142.599 19.6152C140.791 19.6399 139.132 19.2066 137.869 18.3028ZM173.837 15.4303C173.367 16.2598 172.5 16.7675 171.559 16.7675C170.111 16.7675 168.934 15.5912 168.934 14.1426C168.934 12.694 170.111 11.5177 171.559 11.5177C172.5 11.5177 173.379 12.0254 173.837 12.8549L176.351 11.4558C175.41 9.77196 173.615 8.63286 171.559 8.63286C168.526 8.63286 166.062 11.0968 166.062 14.1426C166.062 17.1884 168.526 19.6523 171.559 19.6523C173.615 19.6523 175.41 18.5132 176.351 16.8294L173.837 15.4303ZM148.406 19.4171H151.551V4.03936H148.406V19.4171ZM177.936 4.03936V19.4171H181.081V14.8112L184.807 19.4171H188.819L184.089 13.9445L188.472 8.83097H184.634L181.081 13.0778V4.02698H177.936V4.03936ZM161.221 8.84335V10.0939C160.701 9.22717 159.438 8.63286 158.101 8.63286C155.352 8.63286 153.173 11.072 153.173 14.1302C153.173 17.1884 155.34 19.6523 158.101 19.6523C159.438 19.6523 160.701 19.0456 161.221 18.1913V19.4418H164.366V8.85573H161.221V8.84335ZM161.221 15.4426C160.775 16.1979 159.822 16.7551 158.769 16.7551C157.321 16.7551 156.144 15.5788 156.144 14.1302C156.144 12.6816 157.321 11.5054 158.769 11.5054C159.822 11.5054 160.775 12.0873 161.221 12.8673V15.4426Z" fill="#9D9D9D"/>
<path d="M121.277 3.71155C120.262 3.71155 119.432 4.5411 119.432 5.55638C119.432 6.57165 120.262 7.40121 121.277 7.40121H123.122V5.55638C123.122 4.5411 122.305 3.71155 121.277 3.71155ZM121.277 8.62697H116.374C115.359 8.62697 114.529 9.45653 114.529 10.4718C114.529 11.4871 115.359 12.3166 116.374 12.3166H121.289C122.305 12.3166 123.134 11.4871 123.134 10.4718C123.122 9.45653 122.305 8.62697 121.277 8.62697Z" fill="#9D9D9D"/>
<path d="M132.952 10.4681C132.952 9.4528 132.123 8.62324 131.108 8.62324C130.092 8.62324 129.263 9.4528 129.263 10.4681V12.3129H131.108C132.123 12.3253 132.952 11.4957 132.952 10.4681ZM128.037 10.4681V5.54026C128.037 4.52499 127.208 3.69543 126.192 3.69543C125.177 3.69543 124.347 4.52499 124.347 5.54026V10.4681C124.347 11.4833 125.177 12.3129 126.192 12.3129C127.22 12.3253 128.037 11.4957 128.037 10.4681Z" fill="#9D9D9D"/>
<path d="M126.192 22.1661C127.208 22.1661 128.037 21.3365 128.037 20.3212C128.037 19.3059 127.208 18.4764 126.192 18.4764H124.347V20.3212C124.347 21.3365 125.177 22.1661 126.192 22.1661ZM126.192 17.2382H131.108C132.123 17.2382 132.952 16.4087 132.952 15.3934C132.952 14.3781 132.123 13.5486 131.108 13.5486H126.192C125.177 13.5486 124.347 14.3781 124.347 15.3934C124.347 16.4087 125.177 17.2382 126.192 17.2382Z" fill="#9D9D9D"/>
<path d="M114.529 15.3934C114.529 16.4087 115.359 17.2382 116.374 17.2382C117.389 17.2382 118.219 16.4087 118.219 15.3934V13.5486H116.374C115.346 13.5486 114.529 14.3781 114.529 15.3934ZM119.444 15.3934V20.3212C119.444 21.3365 120.274 22.1661 121.289 22.1661C122.305 22.1661 123.134 21.3365 123.134 20.3212V15.3934C123.134 14.3781 122.305 13.5486 121.289 13.5486C120.262 13.5486 119.444 14.3781 119.444 15.3934Z" fill="#9D9D9D"/>
<path d="M266.86 2.2833L271.331 4.04334L266.86 5.70825V8.08668L274.518 4.99472V3.09197L266.86 0V2.2833Z" fill="#9D9D9D"/>
<path d="M225.808 11.1304C223.667 11.1304 222.098 12.0817 221.955 14.0796H224.333V14.0321C224.381 13.3661 224.999 12.8904 225.665 12.938C226.569 12.938 226.997 13.4612 226.997 14.365V14.7932H225.903C223.572 14.7932 221.669 15.5067 221.669 17.7424V17.8376C221.669 19.6452 223.001 20.4538 224.619 20.4538C225.618 20.5014 226.521 20.0257 227.092 19.2646V20.3111H229.518V14.3175C229.471 12.0342 227.901 11.1304 225.808 11.1304ZM225.285 18.6938C224.428 18.6938 224.048 18.2657 224.048 17.6473V17.5521C224.048 16.7435 224.666 16.4105 225.903 16.4105H226.902V17.2667C226.95 18.2181 226.141 18.6938 225.285 18.6938Z" fill="#9D9D9D"/>
<path d="M235.227 18.5987C234.037 18.5987 233.419 17.79 233.419 15.9824V15.697C233.419 13.9369 234.133 13.0807 235.227 13.0807C236.083 13.0807 236.559 13.6515 236.701 14.5078H239.08C238.889 12.1769 237.177 11.1304 235.179 11.1304C232.801 11.1304 230.898 12.7477 230.898 15.7921V15.8872C230.898 18.9316 232.706 20.4538 235.179 20.4538C237.605 20.4538 238.985 18.9792 239.175 16.9813H236.892C236.701 17.9803 236.083 18.5987 235.227 18.5987Z" fill="#9D9D9D"/>
<path d="M244.502 18.5987C243.313 18.5987 242.695 17.79 242.695 15.9824V15.697C242.695 13.9369 243.408 13.0807 244.502 13.0807C245.359 13.0807 245.834 13.6515 245.977 14.5078H248.355C248.165 12.1769 246.453 11.1304 244.455 11.1304C242.076 11.1304 240.174 12.7477 240.174 15.7921V15.8872C240.174 18.9316 241.981 20.4538 244.455 20.4538C246.881 20.4538 248.26 18.9792 248.403 16.9813H246.167C246.025 17.9803 245.359 18.5987 244.502 18.5987Z" fill="#9D9D9D"/>
<path d="M253.873 18.6462C252.779 18.6462 252.113 18.0278 252.018 16.4105H257.821V15.364C257.821 12.4147 255.966 11.1304 253.73 11.1304C251.304 11.1304 249.449 12.7953 249.449 15.7921V15.9824C249.449 18.9792 251.209 20.5014 253.778 20.5014C256.109 20.5014 257.536 19.2171 257.774 17.5046H255.443C255.348 18.2181 254.634 18.7414 253.873 18.6462ZM253.73 12.8428C254.729 12.8428 255.348 13.4137 255.395 14.7456H252.065C252.256 13.3185 252.969 12.8904 253.73 12.8428Z" fill="#9D9D9D"/>
<path d="M264.577 11.1295C263.435 11.0819 262.389 11.6527 261.865 12.6517V11.3197H259.392V20.2627H261.865V14.7923C261.865 14.6971 261.865 14.6495 261.865 14.5544C261.913 13.7457 262.627 13.0798 263.435 13.1273C264.339 13.1273 264.767 13.603 264.767 14.6495V20.2627H267.288V14.269C267.288 12.0808 266.194 11.1295 264.577 11.1295Z" fill="#9D9D9D"/>
<path d="M271.949 17.4092V13.1756H273.662V11.3204H271.949V8.60901L269.476 9.65552V11.3204H268.382V13.1756H269.428V17.6946C269.428 19.5022 270.332 20.4061 272.282 20.4061C272.758 20.4061 273.234 20.3585 273.709 20.2158V18.2655C273.424 18.3606 273.138 18.4082 272.853 18.4082C272.282 18.4082 271.949 18.0752 271.949 17.4092Z" fill="#9D9D9D"/>
<path d="M280.559 16.8865C280.559 16.9816 280.559 17.0292 280.559 17.1243C280.512 17.933 279.798 18.5989 278.99 18.5514C278.086 18.5514 277.705 18.0757 277.705 17.0292V11.3209H275.184V17.3622C275.184 19.4552 276.373 20.4541 277.991 20.4541C279.085 20.5017 280.084 19.9309 280.607 18.9319V20.2638H283.128V11.3209H280.607L280.559 16.8865Z" fill="#9D9D9D"/>
<path d="M287.409 12.938V11.2731H284.936V20.216H287.409V15.6018C287.409 14.1272 288.408 13.6039 290.121 13.6039V11.1304C288.884 11.1304 287.79 11.8439 287.409 12.938Z" fill="#9D9D9D"/>
<path d="M299.254 15.3164C299.254 12.3672 297.399 11.1304 295.163 11.1304C292.737 11.1304 290.882 12.7953 290.882 15.7921V15.9824C290.882 18.9792 292.642 20.5014 295.211 20.5014C297.541 20.5014 298.921 19.2171 299.206 17.5046H296.875C296.685 18.2657 295.972 18.7414 295.211 18.6938C294.117 18.6938 293.451 18.0754 293.355 16.4581H299.159V15.3164H299.254ZM293.451 14.7456C293.641 13.271 294.354 12.8428 295.163 12.8428C296.162 12.8428 296.78 13.4137 296.828 14.7456H293.451Z" fill="#9D9D9D"/>
<path d="M350.916 0V0.725795H351.642V0H350.916ZM350.916 1.45159V2.17739H351.642V1.45159H350.916ZM348.739 2.17739V2.90318H349.465V2.17739H348.739Z" fill="#9D9D9D"/>
<path d="M339.243 2.72021C333.48 2.72021 328.81 7.39046 328.81 13.1535C328.81 18.9166 333.48 23.5868 339.243 23.5868C345.006 23.5868 349.676 18.9166 349.676 13.1535C349.676 7.39046 345.006 2.72021 339.243 2.72021ZM339.243 6.04678C343.164 6.04678 346.35 9.23226 346.35 13.1535C346.35 17.0748 343.164 20.2603 339.243 20.2603C335.322 20.2603 332.166 17.0748 332.166 13.1535C332.166 9.23226 335.322 6.04678 339.243 6.04678Z" fill="#9D9D9D"/>
<path d="M355.731 18.6745C354.231 18.6745 352.973 18.302 351.957 17.5568L352.929 15.9601C353.742 16.531 354.661 16.8165 355.687 16.8165C356.19 16.8165 356.587 16.7197 356.877 16.5262C357.168 16.323 357.313 16.0423 357.313 15.6843C357.313 15.5875 357.303 15.5004 357.284 15.423C357.265 15.3456 357.231 15.273 357.182 15.2052C357.134 15.1278 357.085 15.0649 357.037 15.0165C356.989 14.9585 356.911 14.9004 356.805 14.8423C356.708 14.7843 356.621 14.7359 356.544 14.6972C356.476 14.6585 356.365 14.6101 356.21 14.552C356.055 14.494 355.924 14.4504 355.818 14.4214C355.721 14.3827 355.571 14.3294 355.368 14.2617C355.165 14.194 354.995 14.1359 354.86 14.0875C354.502 13.9617 354.197 13.8311 353.945 13.6956C353.694 13.5504 353.437 13.3666 353.176 13.144C352.915 12.9117 352.716 12.6214 352.581 12.273C352.445 11.915 352.378 11.5085 352.378 11.0537C352.378 10.1344 352.697 9.42308 353.336 8.91986C353.974 8.40697 354.816 8.15052 355.861 8.15051C357.119 8.15052 358.14 8.38278 358.924 8.84728L358.184 10.5166C357.448 10.1682 356.698 9.99404 355.934 9.99403C354.927 9.99404 354.424 10.3231 354.424 10.9811C354.424 11.136 354.453 11.2714 354.511 11.3876C354.569 11.5037 354.632 11.6005 354.7 11.6779C354.768 11.7553 354.889 11.8327 355.063 11.9101C355.247 11.9876 355.397 12.0456 355.513 12.0843C355.639 12.123 355.842 12.1859 356.123 12.273C356.248 12.3117 356.345 12.3408 356.413 12.3601C356.752 12.4666 357.042 12.5682 357.284 12.665C357.526 12.7617 357.792 12.9021 358.082 13.0859C358.373 13.2601 358.61 13.4585 358.794 13.6811C358.977 13.9037 359.132 14.1843 359.258 14.523C359.384 14.8617 359.447 15.2391 359.447 15.6552C359.447 16.5649 359.123 17.2955 358.474 17.8471C357.835 18.3987 356.921 18.6745 355.731 18.6745Z" fill="#9D9D9D"/>
<path d="M363.03 18.8787L360.286 11.0256H362.565L363.973 16.5126L365.164 11.0256H367.298L365.048 18.632C364.525 20.3932 363.436 21.2739 361.782 21.2739C361.394 21.2739 360.983 21.2303 360.548 21.1432L360.78 19.6045C361.167 19.6432 361.414 19.6626 361.52 19.6626C361.917 19.6626 362.227 19.5997 362.449 19.4739C362.672 19.3578 362.865 19.1594 363.03 18.8787Z" fill="#9D9D9D"/>
<path d="M374.494 12.0148C375.22 11.2406 375.994 10.8535 376.817 10.8535C377.581 10.8535 378.119 11.1148 378.428 11.6374C378.748 12.16 378.907 12.8132 378.907 13.597V18.5324H376.701V13.568C376.701 12.968 376.469 12.668 376.004 12.668C375.636 12.668 375.225 12.8712 374.77 13.2777V18.5324H372.564V13.568C372.564 12.968 372.332 12.668 371.867 12.668C371.441 12.668 371.03 12.8809 370.633 13.3067V18.5324H368.427V11.0277H369.791L370.227 12.1745C370.991 11.2938 371.809 10.8535 372.68 10.8535C373.551 10.8535 374.156 11.2406 374.494 12.0148Z" fill="#9D9D9D"/>
<path d="M384.419 13.7277V13.539C384.419 13.2003 384.342 12.9535 384.187 12.7986C384.042 12.6438 383.785 12.5664 383.418 12.5664C382.847 12.5664 382.145 12.7599 381.313 13.147L380.558 11.6954C381.526 11.1342 382.542 10.8535 383.606 10.8535C384.603 10.8535 385.353 11.1003 385.856 11.5938C386.369 12.0777 386.626 12.7696 386.626 13.6696V18.5324H385.261C385.01 18.0002 384.879 17.7341 384.869 17.7341C384.182 18.3631 383.447 18.6776 382.663 18.6776C381.995 18.6776 381.434 18.484 380.979 18.097C380.534 17.7002 380.311 17.1631 380.311 16.4857C380.311 15.6922 380.568 15.1115 381.081 14.7438C381.681 14.2986 382.793 13.9599 384.419 13.7277ZM384.419 16.6744V15.0922C383.461 15.2857 382.881 15.4986 382.677 15.7309C382.542 15.876 382.474 16.0744 382.474 16.326C382.474 16.8583 382.731 17.1244 383.243 17.1244C383.669 17.1244 384.061 16.9744 384.419 16.6744Z" fill="#9D9D9D"/>
<path d="M388.386 18.5324V11.0277H389.751L390.186 12.1745C390.951 11.2938 391.788 10.8535 392.697 10.8535C394.13 10.8535 394.846 11.768 394.846 13.597V18.5324H392.639V13.568C392.639 12.968 392.388 12.668 391.885 12.668C391.42 12.668 390.989 12.8809 390.593 13.3067V18.5324H388.386Z" fill="#9D9D9D"/>
<path d="M397.13 12.5374H396.027V11.0278H397.159L397.537 8.89392H399.336V11.0278H400.933V12.5374H399.336V16.1519C399.336 16.4809 399.39 16.7083 399.496 16.8341C399.603 16.9599 399.82 17.0228 400.149 17.0228C400.333 17.0228 400.59 16.9744 400.919 16.8777L401.18 18.4018C400.628 18.5857 400.067 18.6776 399.496 18.6776C397.919 18.6776 397.13 17.8744 397.13 16.268V12.5374Z" fill="#9D9D9D"/>
<path d="M404.364 15.426C404.413 15.9389 404.553 16.3163 404.785 16.5583C405.027 16.8002 405.385 16.9212 405.859 16.9212C406.121 16.9212 406.382 16.8825 406.643 16.805C406.914 16.7276 407.113 16.655 407.238 16.5873C407.374 16.5196 407.572 16.4131 407.834 16.2679L408.704 17.6615C408.404 17.8841 408.148 18.0582 407.935 18.184C407.722 18.3002 407.417 18.4115 407.021 18.5179C406.624 18.6244 406.184 18.6776 405.7 18.6776C404.596 18.6776 403.716 18.3389 403.058 17.6615C402.409 16.9744 402.085 16.0405 402.085 14.8599C402.085 13.6793 402.395 12.7164 403.014 11.9712C403.634 11.2261 404.485 10.8535 405.569 10.8535C406.682 10.8535 407.514 11.2261 408.066 11.9712C408.617 12.7164 408.893 13.6744 408.893 14.8454V15.426H404.364ZM404.364 14.1341H406.643C406.643 13.0019 406.28 12.4358 405.555 12.4357C405.206 12.4358 404.935 12.5712 404.742 12.8422C404.548 13.1035 404.422 13.5341 404.364 14.1341Z" fill="#9D9D9D"/>
<path d="M413.61 18.6776C412.41 18.6776 411.505 18.3244 410.895 17.6179C410.295 16.9018 409.995 15.968 409.995 14.8164C409.995 13.6648 410.31 12.7164 410.939 11.9712C411.568 11.2261 412.458 10.8535 413.61 10.8535C414.626 10.8535 415.453 11.1342 416.092 11.6954L415.061 13.1615C414.8 12.968 414.572 12.8374 414.379 12.7696C414.185 12.6922 413.934 12.6535 413.624 12.6535C412.724 12.6535 412.274 13.3648 412.274 14.7873C412.274 16.1809 412.734 16.8776 413.653 16.8776C414.147 16.8776 414.645 16.6792 415.148 16.2825L416.208 17.647C415.521 18.334 414.655 18.6776 413.61 18.6776Z" fill="#9D9D9D"/>
<path d="M342.207 7.98474C340.312 10.3525 339.835 11.3921 339.08 13.3065C338.224 11.5745 337.202 10.3792 335.433 9.58754C335.098 9.50199 334.933 9.45237 334.707 9.76899C334.481 10.0856 334.618 10.3705 334.888 10.7065C335.597 11.5869 336.393 12.4004 336.945 13.398C337.592 14.5674 338.397 16.4948 338.669 16.9967C338.884 17.3958 339.406 17.5713 339.606 17.5713C340.677 17.4446 340.677 16.9003 340.881 15.9567C341.212 14.4094 341.641 12.8097 343.658 10.8879V7.98474H342.207Z" fill="#9D9D9D"/>
<path d="M350.19 0.724731V1.45053H350.916V0.724731H350.19ZM350.19 1.45053H348.738V2.17632H350.19V1.45053ZM348.738 2.17632H348.013V3.62791H348.738V2.17632ZM348.738 3.62791V4.35371H349.464V3.62791H348.738ZM349.464 3.62791H350.19V2.90212H349.464V3.62791ZM348.738 4.35371H348.013V5.0795H347.287V4.35371H345.835V5.0795H345.11V5.8053H345.835V6.53109H345.11V5.8053H344.384V6.53109H343.658V7.25689H342.932V10.1601H344.384V9.43427H345.11V8.70848H345.835V7.98268H345.11V7.25689H345.835V7.98268H346.561V7.25689H347.287V6.53109H348.013V5.8053H348.738V4.35371ZM347.287 4.35371H348.013V3.62791H347.287V4.35371ZM347.287 3.62791V2.90212H346.561V3.62791H347.287Z" fill="#9D9D9D"/>
<path d="M492.251 15.5254H498.606L495.246 10.1187L489.078 19.8942H486.271L493.773 8.15171C494.099 7.67726 494.643 7.39062 495.246 7.39062C495.829 7.39062 496.372 7.66738 496.689 8.13194L504.221 19.8942H501.413L500.089 17.7098H493.654L492.251 15.5254ZM521.409 17.7098V7.50924H519.027V18.7081C519.027 19.0145 519.146 19.3111 519.373 19.5384C519.601 19.7658 519.907 19.8942 520.243 19.8942H531.106L532.509 17.7098H521.409ZM482.001 15.8812C484.314 15.8812 486.192 14.0131 486.192 11.7002C486.192 9.38726 484.314 7.50924 482.001 7.50924H471.58V19.8942H473.961V9.69366H481.843C482.95 9.69366 483.839 10.5931 483.839 11.7002C483.839 12.8072 482.95 13.7067 481.843 13.7067L475.127 13.6968L482.238 19.8942H485.697L480.913 15.8812H482.001ZM456.921 19.8942C453.502 19.8942 450.728 17.1266 450.728 13.7067C450.728 10.2867 453.502 7.50924 456.921 7.50924H464.12C467.54 7.50924 470.313 10.2867 470.313 13.7067C470.313 17.1266 467.54 19.8942 464.12 19.8942H456.921ZM463.96 17.7098C466.175 17.7098 467.969 15.9208 467.969 13.7067C467.969 11.4926 466.175 9.69366 463.96 9.69366H457.08C454.866 9.69366 453.071 11.4926 453.071 13.7067C453.071 15.9208 454.866 17.7098 457.08 17.7098H463.96ZM509.192 19.8942C505.772 19.8942 502.995 17.1266 502.995 13.7067C502.995 10.2867 505.772 7.50924 509.192 7.50924H517.742L516.349 9.69366H509.351C507.136 9.69366 505.338 11.4926 505.338 13.7067C505.338 15.9208 507.136 17.7098 509.351 17.7098H517.94L516.536 19.8942H509.192ZM538.321 17.7098C536.493 17.7098 534.941 16.4842 534.466 14.794H544.647L546.051 12.6095H534.466C534.941 10.9292 536.493 9.69366 538.321 9.69366H545.31L546.723 7.50924H538.163C534.743 7.50924 531.966 10.2867 531.966 13.7067C531.966 17.1266 534.743 19.8942 538.163 19.8942H545.507L546.911 17.7098H538.321Z" fill="#9D9D9D"/>
<path d="M547.998 8.82264C547.998 8.21969 548.483 7.73537 549.086 7.73537C549.699 7.73537 550.183 8.21969 550.183 8.82264C550.183 9.43546 549.699 9.9198 549.086 9.9198C548.483 9.9198 547.998 9.43546 547.998 8.82264ZM549.086 10.2262C549.857 10.2262 550.479 9.6035 550.479 8.83253C550.479 8.06156 549.857 7.43884 549.086 7.43884C548.325 7.43884 547.702 8.06156 547.702 8.83253C547.702 9.6035 548.325 10.2262 549.086 10.2262ZM548.957 8.00225C549.175 8.00225 549.264 8.01213 549.362 8.05166C549.639 8.14063 549.669 8.38774 549.669 8.48658C549.669 8.50635 549.669 8.55577 549.649 8.61507C549.639 8.67438 549.6 8.79299 549.461 8.88195C549.442 8.89183 549.432 8.90172 549.392 8.92148L549.748 9.56397H549.402L549.086 8.9709H548.868V9.56397H548.562V8.00225H548.957ZM549.066 8.71392C549.165 8.70404 549.264 8.70403 549.323 8.61507C549.353 8.57553 549.362 8.536 549.362 8.47669C549.362 8.39762 549.313 8.32843 549.244 8.28889C549.175 8.25925 549.105 8.25924 548.957 8.25924H548.868V8.71392H549.066Z" fill="#9D9D9D"/>
</svg>
