<svg width="30" height="30" viewBox="0 0 30 30" fill="none" xmlns="http://www.w3.org/2000/svg">
<path d="M29.5559 14.778C29.5559 22.9396 22.9396 29.5559 14.778 29.5559C6.61632 29.5559 0 22.9396 0 14.778C0 6.61632 6.61632 0 14.778 0C22.9396 0 29.5559 6.61632 29.5559 14.778Z" fill="#2670FA"/>
<path d="M16.7287 16.1253L20.5668 12.4549C19.7695 9.34626 16.6032 7.4725 13.4946 8.26974C12.0947 8.62875 10.8788 9.49656 10.0842 10.7038C10.1436 10.7023 16.7287 16.1253 16.7287 16.1253Z" fill="white"/>
<path d="M12.5853 11.3986L12.5851 11.3992C11.8517 10.945 11.0059 10.7049 10.1433 10.7061C10.1234 10.7061 10.1038 10.7073 10.0839 10.7076C7.51794 10.7393 5.46359 12.8452 5.49536 15.4112C5.50688 16.3419 5.79771 17.2478 6.33014 18.0113L12.0801 17.2912L16.4885 13.7365L12.5853 11.3986Z" fill="white"/>
<path d="M20.5667 12.4541C20.4823 12.4485 20.3975 12.4446 20.3117 12.4446C19.7969 12.4441 19.2873 12.5492 18.8147 12.7536L18.8146 12.7532L16.4888 13.7319L19.0528 16.8992L23.6368 18.0135C24.626 16.1771 23.9392 13.8864 22.1027 12.8972C21.6282 12.6416 21.1045 12.4905 20.5667 12.4541V12.4541H20.5667Z" fill="white"/>
<path d="M6.32996 18.0077C7.19815 19.256 8.62262 19.9999 10.1431 19.9991H20.3113C21.7003 19.9995 22.9773 19.2373 23.6363 18.0145L16.4883 13.7329L6.32996 18.0077Z" fill="white"/>
</svg>
