<svg width="123" height="34" viewBox="0 0 123 34" fill="none" xmlns="http://www.w3.org/2000/svg">
<path d="M33.0034 16.5017C33.0034 25.6153 25.6153 33.0034 16.5017 33.0034C7.38805 33.0034 0 25.6153 0 16.5017C0 7.38805 7.38805 0 16.5017 0C25.6153 0 33.0034 7.38805 33.0034 16.5017Z" fill="white"/>
<path d="M18.6816 18.0085L22.9673 13.91C22.0771 10.4388 18.5414 8.34648 15.0702 9.2367C13.507 9.63759 12.1493 10.6066 11.2621 11.9546C11.3284 11.953 18.6816 18.0085 18.6816 18.0085Z" fill="#2670FA"/>
<path d="M14.0551 12.7297L14.0549 12.7304C13.236 12.2232 12.2916 11.9551 11.3283 11.9564C11.306 11.9564 11.2842 11.9578 11.2619 11.9581C8.39672 11.9936 6.10275 14.3451 6.13822 17.2103C6.15108 18.2497 6.47584 19.2612 7.07037 20.1138L13.491 19.3096L18.4136 15.3404L14.0551 12.7297Z" fill="#2670FA"/>
<path d="M22.9672 13.9091C22.8729 13.9028 22.7783 13.8984 22.6825 13.8984C22.1075 13.8979 21.5386 14.0153 21.0108 14.2435L21.0107 14.243L18.4136 15.336L21.2767 18.8727L26.3953 20.1169C27.4999 18.0663 26.733 15.5085 24.6824 14.4039C24.1525 14.1185 23.5677 13.9498 22.9672 13.9091V13.9091H22.9672Z" fill="#2670FA"/>
<path d="M7.07031 20.1065C8.03977 21.5004 9.6304 22.3311 11.3282 22.3302H22.6824C24.2334 22.3306 25.6595 21.4795 26.3953 20.1142L18.4135 15.3331L7.07031 20.1065Z" fill="#2670FA"/>
<path d="M47.4233 17.2483C47.4233 16.1944 47.6662 15.2489 48.1518 14.4119C48.6478 13.5749 49.3143 12.9239 50.1513 12.4589C50.9986 11.9836 51.9234 11.7459 52.9257 11.7459C54.0727 11.7459 55.0905 12.0301 55.9792 12.5984C56.8781 13.1564 57.5291 13.9521 57.9321 14.9854H55.8087C55.5297 14.4171 55.1422 13.9934 54.6462 13.7144C54.1502 13.4354 53.5767 13.2959 52.9257 13.2959C52.2127 13.2959 51.5773 13.4561 51.0193 13.7764C50.4613 14.0967 50.0221 14.5566 49.7018 15.1559C49.3918 15.7552 49.2368 16.4527 49.2368 17.2483C49.2368 18.044 49.3918 18.7415 49.7018 19.3408C50.0221 19.9401 50.4613 20.4051 51.0193 20.7358C51.5773 21.0561 52.2127 21.2162 52.9257 21.2162C53.5767 21.2162 54.1502 21.0767 54.6462 20.7978C55.1422 20.5188 55.5297 20.0951 55.8087 19.5268H57.9321C57.5291 20.5601 56.8781 21.3557 55.9792 21.9137C55.0905 22.4717 54.0727 22.7507 52.9257 22.7507C51.9131 22.7507 50.9883 22.5182 50.1513 22.0532C49.3143 21.5779 48.6478 20.9218 48.1518 20.0848C47.6662 19.2478 47.4233 18.3023 47.4233 17.2483ZM61.7673 11.188V22.6577H60.0004V11.188H61.7673ZM67.7916 22.7972C66.9856 22.7972 66.2571 22.6164 65.6062 22.2547C64.9552 21.8827 64.4437 21.3661 64.0717 20.7048C63.6997 20.0331 63.5137 19.2581 63.5137 18.3798C63.5137 17.5118 63.7049 16.742 64.0872 16.0704C64.4695 15.3987 64.9913 14.882 65.6526 14.5204C66.314 14.1587 67.0528 13.9779 67.8691 13.9779C68.6854 13.9779 69.4242 14.1587 70.0856 14.5204C70.7469 14.882 71.2687 15.3987 71.651 16.0704C72.0333 16.742 72.2245 17.5118 72.2245 18.3798C72.2245 19.2478 72.0282 20.0176 71.6355 20.6893C71.2429 21.3609 70.7055 21.8827 70.0236 22.2547C69.3519 22.6164 68.6079 22.7972 67.7916 22.7972ZM67.7916 21.2627C68.2463 21.2627 68.6699 21.1542 69.0626 20.9373C69.4656 20.7203 69.7911 20.3948 70.0391 19.9608C70.2871 19.5268 70.411 18.9998 70.411 18.3798C70.411 17.7598 70.2922 17.238 70.0546 16.8143C69.8169 16.3803 69.5017 16.0549 69.1091 15.8379C68.7164 15.6209 68.2928 15.5124 67.8381 15.5124C67.3834 15.5124 66.9598 15.6209 66.5671 15.8379C66.1848 16.0549 65.88 16.3803 65.6526 16.8143C65.4253 17.238 65.3117 17.7598 65.3117 18.3798C65.3117 19.2995 65.5442 20.0124 66.0091 20.5188C66.4845 21.0147 67.0786 21.2627 67.7916 21.2627ZM81.7056 14.1174V22.6577H79.9386V21.6502C79.6596 22.0016 79.2928 22.2806 78.8381 22.4872C78.3938 22.6835 77.9185 22.7817 77.4122 22.7817C76.7405 22.7817 76.136 22.6422 75.5987 22.3632C75.0717 22.0842 74.6532 21.6709 74.3432 21.1232C74.0436 20.5756 73.8938 19.9143 73.8938 19.1393V14.1174H75.6452V18.8758C75.6452 19.6404 75.8364 20.2294 76.2187 20.6428C76.601 21.0457 77.1229 21.2472 77.7842 21.2472C78.4455 21.2472 78.9673 21.0457 79.3496 20.6428C79.7423 20.2294 79.9386 19.6404 79.9386 18.8758V14.1174H81.7056ZM83.448 18.3488C83.448 17.4912 83.6236 16.7317 83.975 16.0704C84.3366 15.409 84.8223 14.8975 85.4319 14.5359C86.0519 14.1639 86.7391 13.9779 87.4934 13.9779C88.0514 13.9779 88.599 14.1019 89.1363 14.3499C89.684 14.5876 90.118 14.9079 90.4383 15.3109V11.188H92.2208V22.6577H90.4383V21.3712C90.149 21.7846 89.746 22.1256 89.2293 22.3942C88.723 22.6629 88.1392 22.7972 87.4779 22.7972C86.7339 22.7972 86.0519 22.6112 85.4319 22.2392C84.8223 21.8569 84.3366 21.3299 83.975 20.6583C83.6236 19.9763 83.448 19.2065 83.448 18.3488ZM90.4383 18.3798C90.4383 17.7908 90.3143 17.2793 90.0663 16.8453C89.8287 16.4113 89.5135 16.0807 89.1208 15.8534C88.7282 15.626 88.3045 15.5124 87.8499 15.5124C87.3952 15.5124 86.9716 15.626 86.5789 15.8534C86.1862 16.0704 85.8659 16.3958 85.6179 16.8298C85.3803 17.2535 85.2614 17.7598 85.2614 18.3488C85.2614 18.9378 85.3803 19.4544 85.6179 19.8988C85.8659 20.3431 86.1862 20.6841 86.5789 20.9218C86.9819 21.1491 87.4056 21.2627 87.8499 21.2627C88.3045 21.2627 88.7282 21.1491 89.1208 20.9218C89.5135 20.6944 89.8287 20.3638 90.0663 19.9298C90.3143 19.4854 90.4383 18.9688 90.4383 18.3798ZM95.4406 12.9859C95.1203 12.9859 94.8516 12.8774 94.6346 12.6604C94.4176 12.4434 94.3091 12.1748 94.3091 11.8544C94.3091 11.5341 94.4176 11.2655 94.6346 11.0485C94.8516 10.8315 95.1203 10.723 95.4406 10.723C95.7506 10.723 96.0141 10.8315 96.2311 11.0485C96.4481 11.2655 96.5566 11.5341 96.5566 11.8544C96.5566 12.1748 96.4481 12.4434 96.2311 12.6604C96.0141 12.8774 95.7506 12.9859 95.4406 12.9859ZM96.3086 14.1174V22.6577H94.5416V14.1174H96.3086ZM102.209 15.5589H100.628V22.6577H98.8454V15.5589H97.838V14.1174H98.8454V13.5129C98.8454 12.5313 99.1038 11.8183 99.6204 11.374C100.147 10.9193 100.969 10.692 102.085 10.692V12.1644C101.548 12.1644 101.17 12.2678 100.953 12.4744C100.736 12.6708 100.628 13.0169 100.628 13.5129V14.1174H102.209V15.5589ZM111.463 14.1174L106.224 26.6721H104.395L106.131 22.5182L102.767 14.1174H104.736L107.138 20.6273L109.634 14.1174H111.463Z" fill="white"/>
</svg>
