<svg width="107" height="29" viewBox="0 0 107 29" fill="none" xmlns="http://www.w3.org/2000/svg">
<path d="M28.8862 14.4431C28.8862 22.4198 22.4198 28.8862 14.4431 28.8862C6.46638 28.8862 0 22.4198 0 14.4431C0 6.46638 6.46638 0 14.4431 0C22.4198 0 28.8862 6.46638 28.8862 14.4431Z" fill="#2670FA"/>
<path d="M16.3511 15.7619L20.1022 12.1747C19.323 9.13656 16.2284 7.30526 13.1902 8.08442C11.822 8.4353 10.6337 9.28345 9.85718 10.4633C9.91524 10.4618 16.3511 15.7619 16.3511 15.7619Z" fill="white"/>
<path d="M12.3017 11.1419L12.3015 11.1425C11.5847 10.6986 10.7581 10.4639 9.91502 10.4651C9.89554 10.4651 9.8764 10.4663 9.85696 10.4666C7.34917 10.4976 5.34137 12.5558 5.37243 15.0636C5.38368 15.9732 5.66792 16.8586 6.18829 17.6048L11.8079 16.901L16.1164 13.4269L12.3017 11.1419Z" fill="white"/>
<path d="M20.102 12.1741C20.0195 12.1686 19.9366 12.1648 19.8528 12.1648C19.3496 12.1643 18.8516 12.2671 18.3897 12.4668L18.3896 12.4664L16.1165 13.423L18.6224 16.5185L23.1025 17.6075C24.0693 15.8127 23.398 13.574 21.6032 12.6072C21.1394 12.3574 20.6276 12.2097 20.102 12.1741V12.1741H20.102Z" fill="white"/>
<path d="M6.18823 17.5988C7.03675 18.8188 8.42895 19.5458 9.91498 19.5451H19.8527C21.2102 19.5454 22.4584 18.8005 23.1024 17.6055L16.1164 13.4209L6.18823 17.5988Z" fill="white"/>
<path d="M41.5071 15.2178C41.5071 14.2953 41.7196 13.4678 42.1447 12.7352C42.5788 12.0027 43.1621 11.4329 43.8947 11.0259C44.6363 10.6099 45.4458 10.4019 46.323 10.4019C47.3269 10.4019 48.2178 10.6506 48.9955 11.148C49.7824 11.6364 50.3521 12.3328 50.7049 13.2372H48.8463C48.6021 12.7398 48.263 12.369 47.8289 12.1248C47.3947 11.8806 46.8928 11.7585 46.323 11.7585C45.699 11.7585 45.1428 11.8987 44.6544 12.179C44.166 12.4594 43.7816 12.8619 43.5013 13.3864C43.23 13.911 43.0943 14.5214 43.0943 15.2178C43.0943 15.9142 43.23 16.5247 43.5013 17.0493C43.7816 17.5738 44.166 17.9808 44.6544 18.2702C45.1428 18.5506 45.699 18.6907 46.323 18.6907C46.8928 18.6907 47.3947 18.5687 47.8289 18.3245C48.263 18.0803 48.6021 17.7095 48.8463 17.212H50.7049C50.3521 18.1165 49.7824 18.8128 48.9955 19.3012C48.2178 19.7896 47.3269 20.0338 46.323 20.0338C45.4367 20.0338 44.6273 19.8303 43.8947 19.4233C43.1621 19.0073 42.5788 18.433 42.1447 17.7004C41.7196 16.9679 41.5071 16.1403 41.5071 15.2178ZM54.0616 9.9135V19.9524H52.5151V9.9135H54.0616ZM59.3344 20.0745C58.6289 20.0745 57.9913 19.9162 57.4216 19.5997C56.8518 19.2741 56.4041 18.8219 56.0785 18.2431C55.7529 17.6552 55.5901 16.9769 55.5901 16.2082C55.5901 15.4485 55.7575 14.7747 56.0921 14.1868C56.4267 13.5989 56.8834 13.1467 57.4623 12.8302C58.0411 12.5137 58.6877 12.3554 59.4022 12.3554C60.1167 12.3554 60.7633 12.5137 61.3421 12.8302C61.921 13.1467 62.3777 13.5989 62.7123 14.1868C63.047 14.7747 63.2143 15.4485 63.2143 16.2082C63.2143 16.9679 63.0424 17.6416 62.6988 18.2295C62.3551 18.8174 61.8848 19.2741 61.2879 19.5997C60.7 19.9162 60.0489 20.0745 59.3344 20.0745ZM59.3344 18.7314C59.7323 18.7314 60.1031 18.6365 60.4468 18.4466C60.7995 18.2566 61.0844 17.9717 61.3015 17.5919C61.5185 17.212 61.627 16.7508 61.627 16.2082C61.627 15.6655 61.523 15.2088 61.315 14.838C61.107 14.4581 60.8312 14.1732 60.4875 13.9833C60.1438 13.7934 59.773 13.6984 59.3751 13.6984C58.9771 13.6984 58.6063 13.7934 58.2627 13.9833C57.928 14.1732 57.6612 14.4581 57.4623 14.838C57.2633 15.2088 57.1638 15.6655 57.1638 16.2082C57.1638 17.0131 57.3673 17.6371 57.7743 18.0803C58.1903 18.5144 58.7103 18.7314 59.3344 18.7314ZM71.5126 12.4775V19.9524H69.966V19.0706C69.7218 19.3781 69.4008 19.6223 69.0028 19.8032C68.614 19.975 68.1979 20.0609 67.7548 20.0609C67.1669 20.0609 66.6378 19.9388 66.1675 19.6946C65.7063 19.4504 65.34 19.0887 65.0687 18.6094C64.8064 18.13 64.6753 17.5512 64.6753 16.8729V12.4775H66.2082V16.6423C66.2082 17.3115 66.3755 17.827 66.7102 18.1888C67.0448 18.5415 67.5015 18.7179 68.0804 18.7179C68.6592 18.7179 69.1159 18.5415 69.4505 18.1888C69.7942 17.827 69.966 17.3115 69.966 16.6423V12.4775H71.5126ZM73.0376 16.181C73.0376 15.4304 73.1913 14.7656 73.4988 14.1868C73.8154 13.608 74.2404 13.1603 74.774 12.8438C75.3167 12.5182 75.9181 12.3554 76.5783 12.3554C77.0667 12.3554 77.546 12.4639 78.0163 12.681C78.4957 12.889 78.8755 13.1694 79.1559 13.5221V9.9135H80.716V19.9524H79.1559V18.8264C78.9026 19.1882 78.5499 19.4866 78.0977 19.7218C77.6546 19.9569 77.1436 20.0745 76.5648 20.0745C75.9136 20.0745 75.3167 19.9117 74.774 19.5861C74.2404 19.2515 73.8154 18.7902 73.4988 18.2024C73.1913 17.6055 73.0376 16.9317 73.0376 16.181ZM79.1559 16.2082C79.1559 15.6926 79.0474 15.245 78.8303 14.8651C78.6223 14.4853 78.3464 14.1959 78.0028 13.9969C77.6591 13.7979 77.2883 13.6984 76.8903 13.6984C76.4924 13.6984 76.1216 13.7979 75.7779 13.9969C75.4343 14.1868 75.1539 14.4717 74.9368 14.8516C74.7288 15.2224 74.6248 15.6655 74.6248 16.181C74.6248 16.6965 74.7288 17.1487 74.9368 17.5376C75.1539 17.9265 75.4343 18.225 75.7779 18.433C76.1306 18.632 76.5015 18.7314 76.8903 18.7314C77.2883 18.7314 77.6591 18.632 78.0028 18.433C78.3464 18.234 78.6223 17.9446 78.8303 17.5648C79.0474 17.1759 79.1559 16.7237 79.1559 16.2082ZM83.5341 11.4872C83.2538 11.4872 83.0186 11.3922 82.8287 11.2023C82.6388 11.0124 82.5438 10.7772 82.5438 10.4968C82.5438 10.2165 82.6388 9.98133 82.8287 9.79141C83.0186 9.60148 83.2538 9.50652 83.5341 9.50652C83.8054 9.50652 84.0361 9.60148 84.226 9.79141C84.4159 9.98133 84.5109 10.2165 84.5109 10.4968C84.5109 10.7772 84.4159 11.0124 84.226 11.2023C84.0361 11.3922 83.8054 11.4872 83.5341 11.4872ZM84.2938 12.4775V19.9524H82.7473V12.4775H84.2938ZM89.458 13.7391H88.0743V19.9524H86.5142V13.7391H85.6324V12.4775H86.5142V11.9484C86.5142 11.0892 86.7403 10.4652 87.1925 10.0763C87.6538 9.67836 88.3728 9.47939 89.3495 9.47939V10.7682C88.8792 10.7682 88.5491 10.8586 88.3592 11.0395C88.1693 11.2113 88.0743 11.5143 88.0743 11.9484V12.4775H89.458V13.7391ZM97.5574 12.4775L92.9721 23.466H91.3713L92.8907 19.8303L89.9468 12.4775H91.6697L93.7725 18.1752L95.9566 12.4775H97.5574Z" fill="#2670FA"/>
</svg>
