<svg width="509" height="423" viewBox="0 0 509 423" fill="none" xmlns="http://www.w3.org/2000/svg">
<g filter="url(#filter0_d)">
<g filter="url(#filter1_d)">
<path d="M124.231 238.811C124.231 237.898 125.405 237.158 126.853 237.158H220.338C221.785 237.158 222.959 237.898 222.959 238.811V266.357C222.959 267.27 221.785 268.01 220.338 268.01H126.853C125.405 268.01 124.231 267.27 124.231 266.357V238.811Z" fill="white"/>
</g>
<path d="M213.24 254.189C212.928 254.189 212.675 253.937 212.675 253.625C212.675 253.314 212.928 253.061 213.24 253.061C213.551 253.061 213.804 253.314 213.804 253.625C213.804 253.937 213.551 254.189 213.24 254.189Z" fill="#DCE3EB"/>
<path d="M213.24 252.215C212.928 252.215 212.675 251.963 212.675 251.651C212.675 251.339 212.928 251.087 213.24 251.087C213.551 251.087 213.804 251.339 213.804 251.651C213.804 251.963 213.551 252.215 213.24 252.215Z" fill="#DCE3EB"/>
<path d="M213.239 250.241C212.928 250.241 212.675 249.988 212.675 249.677C212.675 249.365 212.928 249.113 213.239 249.113C213.551 249.113 213.803 249.365 213.803 249.677C213.803 249.988 213.551 250.241 213.239 250.241Z" fill="#DCE3EB"/>
<path d="M155.883 251.138H155.43V247.707H155.883V251.138Z" fill="black"/>
<path d="M157.054 248.589L157.065 248.871C157.252 248.651 157.504 248.541 157.822 248.541C158.178 248.541 158.421 248.678 158.55 248.951C158.635 248.829 158.745 248.73 158.88 248.654C159.016 248.579 159.177 248.541 159.363 248.541C159.922 248.541 160.206 248.837 160.216 249.43V251.138H159.78V249.456C159.78 249.273 159.738 249.138 159.655 249.048C159.572 248.957 159.432 248.911 159.236 248.911C159.074 248.911 158.939 248.96 158.833 249.057C158.726 249.153 158.664 249.283 158.646 249.446V251.138H158.208V249.467C158.208 249.097 158.027 248.911 157.664 248.911C157.378 248.911 157.182 249.033 157.077 249.277V251.138H156.641V248.589H157.054Z" fill="black"/>
<path d="M162.45 251.138C162.424 251.088 162.404 250.998 162.388 250.869C162.186 251.08 161.944 251.185 161.663 251.185C161.411 251.185 161.205 251.114 161.043 250.973C160.883 250.83 160.802 250.649 160.802 250.431C160.802 250.166 160.903 249.96 161.104 249.814C161.307 249.666 161.591 249.592 161.957 249.592H162.381V249.392C162.381 249.24 162.336 249.119 162.245 249.029C162.153 248.938 162.019 248.892 161.842 248.892C161.686 248.892 161.556 248.932 161.45 249.01C161.345 249.089 161.293 249.184 161.293 249.295H160.854C160.854 249.168 160.899 249.046 160.989 248.928C161.08 248.808 161.202 248.714 161.356 248.645C161.512 248.576 161.682 248.541 161.868 248.541C162.161 248.541 162.391 248.615 162.558 248.763C162.724 248.909 162.811 249.111 162.817 249.368V250.542C162.817 250.776 162.847 250.962 162.907 251.1V251.138H162.45ZM161.726 250.806C161.863 250.806 161.992 250.77 162.115 250.7C162.237 250.629 162.326 250.537 162.381 250.424V249.901H162.04C161.505 249.901 161.238 250.057 161.238 250.37C161.238 250.507 161.284 250.613 161.375 250.69C161.466 250.767 161.583 250.806 161.726 250.806Z" fill="black"/>
<path d="M163.397 249.842C163.397 249.445 163.489 249.129 163.672 248.895C163.856 248.659 164.1 248.541 164.403 248.541C164.714 248.541 164.957 248.651 165.131 248.871L165.152 248.589H165.55V251.077C165.55 251.407 165.452 251.667 165.256 251.857C165.061 252.047 164.799 252.142 164.469 252.142C164.285 252.142 164.105 252.103 163.929 252.024C163.753 251.945 163.619 251.838 163.526 251.701L163.753 251.44C163.939 251.671 164.168 251.786 164.438 251.786C164.65 251.786 164.815 251.726 164.933 251.607C165.052 251.488 165.112 251.319 165.112 251.103V250.884C164.938 251.085 164.7 251.185 164.398 251.185C164.1 251.185 163.858 251.065 163.672 250.825C163.489 250.584 163.397 250.257 163.397 249.842ZM163.835 249.892C163.835 250.179 163.894 250.405 164.012 250.57C164.13 250.734 164.294 250.815 164.507 250.815C164.781 250.815 164.983 250.69 165.112 250.441V249.277C164.979 249.033 164.778 248.911 164.511 248.911C164.299 248.911 164.133 248.994 164.014 249.159C163.895 249.324 163.835 249.568 163.835 249.892Z" fill="black"/>
<path d="M167.268 251.185C166.922 251.185 166.641 251.072 166.425 250.846C166.208 250.618 166.099 250.314 166.099 249.934V249.854C166.099 249.601 166.147 249.376 166.243 249.178C166.34 248.978 166.476 248.823 166.648 248.711C166.823 248.598 167.011 248.541 167.214 248.541C167.545 248.541 167.803 248.651 167.987 248.869C168.171 249.087 168.262 249.4 168.262 249.807V249.988H166.535C166.542 250.239 166.615 250.443 166.754 250.598C166.896 250.752 167.075 250.829 167.292 250.829C167.446 250.829 167.576 250.798 167.683 250.735C167.79 250.672 167.883 250.589 167.963 250.485L168.229 250.693C168.016 251.021 167.695 251.185 167.268 251.185ZM167.214 248.9C167.038 248.9 166.89 248.964 166.771 249.093C166.652 249.22 166.578 249.399 166.549 249.63H167.827V249.597C167.814 249.376 167.754 249.204 167.647 249.083C167.541 248.961 167.396 248.9 167.214 248.9Z" fill="black"/>
<path d="M170.253 250.462C170.253 250.344 170.209 250.253 170.119 250.188C170.031 250.122 169.876 250.066 169.655 250.019C169.435 249.972 169.26 249.915 169.13 249.849C169.001 249.783 168.905 249.705 168.842 249.613C168.781 249.522 168.75 249.414 168.75 249.288C168.75 249.079 168.838 248.903 169.014 248.758C169.192 248.614 169.418 248.541 169.693 248.541C169.982 248.541 170.216 248.616 170.395 248.765C170.575 248.914 170.666 249.105 170.666 249.338H170.228C170.228 249.218 170.176 249.116 170.074 249.029C169.974 248.943 169.847 248.9 169.693 248.9C169.534 248.9 169.41 248.934 169.32 249.003C169.231 249.072 169.186 249.163 169.186 249.274C169.186 249.379 169.228 249.459 169.311 249.512C169.394 249.566 169.544 249.617 169.761 249.665C169.979 249.714 170.156 249.772 170.291 249.84C170.426 249.907 170.526 249.989 170.59 250.085C170.656 250.179 170.689 250.294 170.689 250.431C170.689 250.659 170.598 250.842 170.416 250.98C170.234 251.117 169.997 251.185 169.707 251.185C169.503 251.185 169.322 251.149 169.165 251.077C169.008 251.004 168.884 250.904 168.795 250.775C168.707 250.645 168.663 250.504 168.663 250.353H169.099C169.107 250.499 169.165 250.616 169.273 250.702C169.383 250.787 169.528 250.829 169.707 250.829C169.872 250.829 170.004 250.796 170.103 250.73C170.203 250.663 170.253 250.573 170.253 250.462Z" fill="black"/>
<path d="M155.941 254.76C156.165 254.76 156.34 254.816 156.468 254.927C156.597 255.038 156.662 255.189 156.662 255.382C156.662 255.602 156.592 255.775 156.451 255.9C156.311 256.025 156.119 256.087 155.872 256.087C155.633 256.087 155.45 256.049 155.324 255.972V255.74C155.392 255.783 155.476 255.818 155.577 255.843C155.678 255.867 155.777 255.879 155.875 255.879C156.046 255.879 156.178 255.839 156.272 255.759C156.367 255.678 156.415 255.562 156.415 255.41C156.415 255.113 156.233 254.965 155.869 254.965C155.777 254.965 155.654 254.979 155.5 255.007L155.375 254.927L155.455 253.933H156.512V254.155H155.662L155.608 254.793C155.719 254.771 155.83 254.76 155.941 254.76Z" fill="#C1C1C1"/>
<path d="M157.344 255.712L157.365 255.746C157.34 255.843 157.304 255.955 157.256 256.083C157.209 256.212 157.16 256.332 157.108 256.442H156.926C156.953 256.341 156.981 256.217 157.012 256.068C157.044 255.92 157.066 255.801 157.079 255.712H157.344Z" fill="#C1C1C1"/>
<path d="M158.374 254.76C158.598 254.76 158.774 254.816 158.902 254.927C159.031 255.038 159.096 255.189 159.096 255.382C159.096 255.602 159.025 255.775 158.885 255.9C158.745 256.025 158.552 256.087 158.306 256.087C158.067 256.087 157.884 256.049 157.758 255.972V255.74C157.826 255.783 157.91 255.818 158.011 255.843C158.112 255.867 158.211 255.879 158.309 255.879C158.48 255.879 158.612 255.839 158.706 255.759C158.801 255.678 158.848 255.562 158.848 255.41C158.848 255.113 158.667 254.965 158.303 254.965C158.211 254.965 158.088 254.979 157.934 255.007L157.809 254.927L157.889 253.933H158.946V254.155H158.095L158.042 254.793C158.153 254.771 158.264 254.76 158.374 254.76Z" fill="#C1C1C1"/>
<path d="M161.269 254.945H161.992V255.978C161.879 256.014 161.765 256.041 161.649 256.06C161.532 256.078 161.398 256.087 161.244 256.087C160.923 256.087 160.672 255.992 160.493 255.801C160.314 255.609 160.224 255.34 160.224 254.995C160.224 254.774 160.268 254.581 160.356 254.415C160.445 254.249 160.573 254.122 160.74 254.034C160.907 253.946 161.102 253.902 161.326 253.902C161.553 253.902 161.764 253.944 161.96 254.027L161.864 254.245C161.672 254.164 161.487 254.123 161.31 254.123C161.051 254.123 160.849 254.2 160.704 254.354C160.558 254.508 160.486 254.722 160.486 254.995C160.486 255.282 160.555 255.5 160.695 255.648C160.835 255.797 161.041 255.871 161.313 255.871C161.46 255.871 161.604 255.854 161.745 255.82V255.166H161.269V254.945Z" fill="#C1C1C1"/>
<path d="M162.504 253.933H163.104C163.386 253.933 163.59 253.975 163.716 254.059C163.842 254.143 163.905 254.277 163.905 254.459C163.905 254.585 163.87 254.689 163.799 254.772C163.729 254.853 163.627 254.906 163.492 254.93V254.945C163.815 255 163.976 255.169 163.976 255.453C163.976 255.643 163.912 255.792 163.783 255.898C163.655 256.005 163.476 256.058 163.245 256.058H162.504V253.933ZM162.751 254.843H163.158C163.332 254.843 163.458 254.816 163.534 254.761C163.611 254.706 163.649 254.614 163.649 254.484C163.649 254.364 163.607 254.279 163.521 254.226C163.436 254.173 163.3 254.146 163.114 254.146H162.751V254.843ZM162.751 255.052V255.847H163.194C163.366 255.847 163.495 255.814 163.581 255.749C163.668 255.682 163.712 255.577 163.712 255.436C163.712 255.304 163.667 255.207 163.578 255.145C163.49 255.083 163.355 255.052 163.174 255.052H162.751Z" fill="#C1C1C1"/>
<path d="M165.205 253.933L164.413 256.058H164.171L164.964 253.933H165.205Z" fill="#C1C1C1"/>
<path d="M166.778 256.058H165.381V255.85L165.941 255.288C166.111 255.115 166.224 254.992 166.278 254.918C166.332 254.845 166.373 254.773 166.4 254.703C166.427 254.633 166.441 254.558 166.441 254.478C166.441 254.364 166.406 254.275 166.337 254.209C166.269 254.142 166.173 254.109 166.051 254.109C165.963 254.109 165.879 254.123 165.8 254.152C165.721 254.181 165.633 254.234 165.536 254.311L165.408 254.146C165.604 253.983 165.817 253.902 166.048 253.902C166.248 253.902 166.404 253.953 166.518 254.056C166.631 254.158 166.688 254.295 166.688 254.468C166.688 254.602 166.65 254.736 166.574 254.867C166.499 254.999 166.357 255.166 166.15 255.368L165.685 255.823V255.834H166.778V256.058Z" fill="#C1C1C1"/>
<path d="M168.494 254.992C168.494 255.36 168.435 255.634 168.319 255.815C168.204 255.997 168.027 256.087 167.788 256.087C167.56 256.087 167.386 255.995 167.267 255.81C167.147 255.623 167.088 255.351 167.088 254.992C167.088 254.622 167.145 254.347 167.261 254.168C167.376 253.989 167.552 253.899 167.788 253.899C168.019 253.899 168.194 253.993 168.313 254.18C168.434 254.367 168.494 254.638 168.494 254.992ZM167.332 254.992C167.332 255.302 167.368 255.527 167.441 255.669C167.514 255.809 167.63 255.879 167.788 255.879C167.949 255.879 168.066 255.808 168.137 255.666C168.21 255.522 168.246 255.298 168.246 254.992C168.246 254.687 168.21 254.464 168.137 254.322C168.066 254.18 167.949 254.109 167.788 254.109C167.63 254.109 167.514 254.179 167.441 254.319C167.368 254.459 167.332 254.683 167.332 254.992Z" fill="#C1C1C1"/>
<path d="M170.644 254.945H171.367V255.978C171.254 256.014 171.14 256.041 171.023 256.06C170.907 256.078 170.772 256.087 170.619 256.087C170.297 256.087 170.047 255.992 169.868 255.801C169.688 255.609 169.599 255.34 169.599 254.995C169.599 254.774 169.643 254.581 169.731 254.415C169.82 254.249 169.948 254.122 170.115 254.034C170.281 253.946 170.477 253.902 170.701 253.902C170.927 253.902 171.139 253.944 171.335 254.027L171.239 254.245C171.047 254.164 170.862 254.123 170.685 254.123C170.426 254.123 170.224 254.2 170.078 254.354C169.933 254.508 169.86 254.722 169.86 254.995C169.86 255.282 169.93 255.5 170.07 255.648C170.21 255.797 170.416 255.871 170.688 255.871C170.835 255.871 170.979 255.854 171.119 255.82V255.166H170.644V254.945Z" fill="#C1C1C1"/>
<path d="M171.878 253.933H172.479C172.761 253.933 172.965 253.975 173.091 254.059C173.217 254.143 173.28 254.277 173.28 254.459C173.28 254.585 173.244 254.689 173.174 254.772C173.104 254.853 173.002 254.906 172.867 254.93V254.945C173.19 255 173.351 255.169 173.351 255.453C173.351 255.643 173.287 255.792 173.158 255.898C173.03 256.005 172.85 256.058 172.62 256.058H171.878V253.933ZM172.125 254.843H172.533C172.707 254.843 172.833 254.816 172.909 254.761C172.986 254.706 173.024 254.614 173.024 254.484C173.024 254.364 172.981 254.279 172.896 254.226C172.811 254.173 172.675 254.146 172.489 254.146H172.125V254.843ZM172.125 255.052V255.847H172.569C172.74 255.847 172.869 255.814 172.956 255.749C173.043 255.682 173.086 255.577 173.086 255.436C173.086 255.304 173.042 255.207 172.953 255.145C172.865 255.083 172.73 255.052 172.549 255.052H172.125Z" fill="#C1C1C1"/>
<path d="M135.547 246.939C135.547 246.316 136.052 245.81 136.675 245.81H146.891C147.514 245.81 148.019 246.316 148.019 246.939V257.154C148.019 257.778 147.514 258.283 146.891 258.283H136.675C136.052 258.283 135.547 257.778 135.547 257.154V246.939Z" fill="#5B95FF"/>
<path fill-rule="evenodd" clip-rule="evenodd" d="M139.926 249.513C139.699 249.513 139.515 249.697 139.515 249.924V254.38C139.515 254.608 139.699 254.792 139.926 254.792H144.382C144.61 254.792 144.794 254.608 144.794 254.38V249.924C144.794 249.697 144.61 249.513 144.382 249.513H139.926ZM139.065 249.924C139.065 249.449 139.451 249.063 139.926 249.063H144.382C144.858 249.063 145.243 249.449 145.243 249.924V254.38C145.243 254.856 144.858 255.241 144.382 255.241H139.926C139.451 255.241 139.065 254.856 139.065 254.38V249.924Z" fill="white"/>
<path d="M141.04 251.516C141.304 251.516 141.518 251.302 141.518 251.039C141.518 250.775 141.304 250.561 141.04 250.561C140.777 250.561 140.563 250.775 140.563 251.039C140.563 251.302 140.777 251.516 141.04 251.516Z" fill="white"/>
<path fill-rule="evenodd" clip-rule="evenodd" d="M143.268 251.358C143.356 251.271 143.498 251.271 143.586 251.358L145.177 252.95C145.265 253.037 145.265 253.18 145.177 253.267C145.089 253.355 144.947 253.355 144.859 253.267L143.427 251.835L140.085 255.177C139.997 255.265 139.855 255.265 139.767 255.177C139.679 255.089 139.679 254.947 139.767 254.859L143.268 251.358Z" fill="white"/>
</g>
<g filter="url(#filter2_d)">
<g filter="url(#filter3_d)">
<path d="M179.866 94.972C179.866 92.7783 181.644 91 183.838 91H304.323C306.516 91 308.295 92.7783 308.295 94.972V137.358C308.295 139.552 306.516 141.33 304.323 141.33H183.838C181.644 141.33 179.866 139.552 179.866 137.358V94.972Z" fill="#FEFEFE"/>
</g>
<path d="M191.782 105.566C191.782 104.104 192.967 102.918 194.43 102.918H216.902C218.365 102.918 219.55 104.104 219.55 105.566V128.039C219.55 129.501 218.365 130.687 216.902 130.687H194.43C192.967 130.687 191.782 129.501 191.782 128.039V105.566Z" fill="#F2F7FF"/>
<path d="M235.478 115.057C235.478 116.323 235.126 117.292 234.423 117.964C233.72 118.632 232.708 118.966 231.386 118.966H229.24V111.296H231.611C232.832 111.296 233.781 111.625 234.46 112.282C235.138 112.94 235.478 113.865 235.478 115.057ZM234.156 115.099C234.156 113.263 233.297 112.345 231.58 112.345H230.494V117.911H231.386C233.232 117.911 234.156 116.974 234.156 115.099Z" fill="black"/>
<path d="M239.942 113.059C240.19 113.059 240.395 113.076 240.556 113.111L240.435 114.26C240.26 114.218 240.078 114.197 239.89 114.197C239.396 114.197 238.996 114.358 238.688 114.68C238.384 115.001 238.232 115.419 238.232 115.933V118.966H236.999V113.164H237.964L238.127 114.187H238.19C238.382 113.84 238.632 113.566 238.94 113.363C239.251 113.16 239.585 113.059 239.942 113.059Z" fill="black"/>
<path d="M246.783 116.054C246.783 117.002 246.54 117.742 246.054 118.273C245.567 118.805 244.891 119.071 244.023 119.071C243.481 119.071 243.002 118.948 242.586 118.703C242.17 118.458 241.85 118.107 241.626 117.649C241.402 117.191 241.29 116.659 241.29 116.054C241.29 115.113 241.532 114.379 242.014 113.851C242.497 113.323 243.177 113.059 244.055 113.059C244.894 113.059 245.559 113.33 246.048 113.872C246.538 114.41 246.783 115.138 246.783 116.054ZM242.56 116.054C242.56 117.394 243.055 118.063 244.044 118.063C245.024 118.063 245.513 117.394 245.513 116.054C245.513 114.729 245.02 114.066 244.034 114.066C243.516 114.066 243.14 114.237 242.906 114.58C242.675 114.923 242.56 115.414 242.56 116.054Z" fill="black"/>
<path d="M251.147 119.071C250.413 119.071 249.843 118.806 249.437 118.278H249.364C249.413 118.768 249.437 119.065 249.437 119.17V121.547H248.204V113.164H249.201C249.229 113.272 249.287 113.531 249.374 113.94H249.437C249.822 113.352 250.399 113.059 251.168 113.059C251.892 113.059 252.455 113.321 252.858 113.846C253.263 114.37 253.466 115.106 253.466 116.054C253.466 117.002 253.26 117.742 252.847 118.273C252.438 118.805 251.871 119.071 251.147 119.071ZM250.848 114.066C250.359 114.066 250 114.209 249.773 114.496C249.549 114.783 249.437 115.241 249.437 115.87V116.054C249.437 116.761 249.549 117.273 249.773 117.591C249.997 117.906 250.362 118.063 250.869 118.063C251.296 118.063 251.625 117.888 251.856 117.539C252.086 117.189 252.202 116.691 252.202 116.044C252.202 115.393 252.086 114.902 251.856 114.569C251.628 114.234 251.293 114.066 250.848 114.066Z" fill="black"/>
<path d="M257.862 113.059C258.586 113.059 259.149 113.321 259.551 113.846C259.957 114.37 260.16 115.106 260.16 116.054C260.16 117.005 259.955 117.747 259.546 118.278C259.137 118.806 258.569 119.071 257.841 119.071C257.107 119.071 256.537 118.806 256.131 118.278H256.047L255.822 118.966H254.898V110.803H256.131V112.744C256.131 112.887 256.124 113.101 256.11 113.384C256.096 113.667 256.086 113.847 256.079 113.924H256.131C256.523 113.347 257.1 113.059 257.862 113.059ZM257.542 114.066C257.046 114.066 256.687 114.213 256.467 114.507C256.25 114.797 256.138 115.285 256.131 115.97V116.054C256.131 116.761 256.243 117.273 256.467 117.591C256.691 117.906 257.056 118.063 257.563 118.063C258 118.063 258.331 117.89 258.555 117.544C258.782 117.198 258.896 116.698 258.896 116.044C258.896 114.725 258.445 114.066 257.542 114.066Z" fill="black"/>
<path d="M266.738 116.054C266.738 117.002 266.495 117.742 266.009 118.273C265.523 118.805 264.846 119.071 263.979 119.071C263.437 119.071 262.958 118.948 262.542 118.703C262.125 118.458 261.805 118.107 261.582 117.649C261.358 117.191 261.246 116.659 261.246 116.054C261.246 115.113 261.487 114.379 261.97 113.851C262.452 113.323 263.133 113.059 264.011 113.059C264.85 113.059 265.514 113.33 266.004 113.872C266.494 114.41 266.738 115.138 266.738 116.054ZM262.515 116.054C262.515 117.394 263.01 118.063 264 118.063C264.979 118.063 265.469 117.394 265.469 116.054C265.469 114.729 264.976 114.066 263.99 114.066C263.472 114.066 263.096 114.237 262.862 114.58C262.631 114.923 262.515 115.414 262.515 116.054Z" fill="black"/>
<path d="M269.451 116.002L267.504 113.164H268.91L270.232 115.194L271.565 113.164H272.96L271.009 116.002L273.06 118.966H271.664L270.232 116.794L268.805 118.966H267.41L269.451 116.002Z" fill="black"/>
<g clip-path="url(#clip0)">
<path d="M202.539 109.538L198.402 112.219L201.281 114.536L205.419 111.954L202.539 109.538ZM198.402 116.787L202.539 119.501L205.419 117.085L201.281 114.536L198.402 116.787ZM205.419 117.085L208.332 119.501L212.436 116.82L209.589 114.536L205.419 117.085ZM212.436 112.219L208.332 109.538L205.419 111.954L209.589 114.536L212.436 112.219ZM205.452 117.614L202.539 120.031L201.314 119.203V120.13L205.452 122.613L209.589 120.13V119.203L208.332 120.031L205.452 117.614Z" fill="#007EE5"/>
</g>
</g>
<g filter="url(#filter4_d)">
<g filter="url(#filter5_d)">
<path d="M95 176.078C95 174.919 96.696 173.98 98.788 173.98H233.895C235.987 173.98 237.683 174.919 237.683 176.078V211.049C237.683 212.208 235.987 213.148 233.895 213.148H98.788C96.696 213.148 95 212.208 95 211.049V176.078Z" fill="white"/>
</g>
<path d="M224.389 196.143C224.006 196.143 223.696 195.833 223.696 195.45C223.696 195.068 224.006 194.757 224.389 194.757C224.771 194.757 225.082 195.068 225.082 195.45C225.082 195.833 224.771 196.143 224.389 196.143Z" fill="#DCE3EB"/>
<path d="M224.389 193.719C224.006 193.719 223.696 193.409 223.696 193.026C223.696 192.644 224.006 192.334 224.389 192.334C224.771 192.334 225.082 192.644 225.082 193.026C225.082 193.409 224.771 193.719 224.389 193.719Z" fill="#DCE3EB"/>
<path d="M224.388 191.296C224.006 191.296 223.695 190.986 223.695 190.603C223.696 190.221 224.006 189.911 224.388 189.911C224.771 189.911 225.081 190.221 225.081 190.603C225.081 190.986 224.771 191.296 224.388 191.296Z" fill="#DCE3EB"/>
<path d="M134.718 192.126V187.914H135.906C136.273 187.914 136.597 187.995 136.878 188.157C137.16 188.319 137.377 188.55 137.529 188.849C137.683 189.148 137.761 189.491 137.763 189.878V190.147C137.763 190.545 137.686 190.893 137.532 191.192C137.38 191.49 137.161 191.72 136.875 191.88C136.592 192.04 136.261 192.122 135.883 192.126H134.718ZM135.273 188.371V191.672H135.857C136.285 191.672 136.618 191.539 136.855 191.273C137.094 191.006 137.214 190.628 137.214 190.136V189.89C137.214 189.412 137.101 189.041 136.875 188.776C136.652 188.51 136.333 188.375 135.921 188.371H135.273Z" fill="black"/>
<path d="M138.379 190.532C138.379 190.225 138.439 189.95 138.559 189.705C138.68 189.46 138.848 189.271 139.062 189.138C139.278 189.005 139.524 188.938 139.8 188.938C140.226 188.938 140.57 189.086 140.832 189.381C141.096 189.676 141.228 190.068 141.228 190.558V190.596C141.228 190.9 141.17 191.174 141.052 191.417C140.936 191.658 140.769 191.846 140.552 191.981C140.336 192.116 140.087 192.184 139.805 192.184C139.381 192.184 139.037 192.036 138.773 191.741C138.51 191.446 138.379 191.056 138.379 190.57V190.532ZM138.917 190.596C138.917 190.943 138.997 191.221 139.157 191.432C139.319 191.642 139.535 191.747 139.805 191.747C140.077 191.747 140.293 191.641 140.453 191.429C140.613 191.215 140.693 190.916 140.693 190.532C140.693 190.189 140.611 189.911 140.447 189.699C140.285 189.485 140.069 189.378 139.8 189.378C139.535 189.378 139.322 189.483 139.16 189.693C138.998 189.903 138.917 190.204 138.917 190.596Z" fill="black"/>
<path d="M143.155 191.747C143.346 191.747 143.512 191.689 143.655 191.573C143.798 191.458 143.877 191.313 143.892 191.139H144.399C144.389 191.319 144.327 191.489 144.213 191.651C144.1 191.813 143.947 191.943 143.756 192.039C143.567 192.135 143.367 192.184 143.155 192.184C142.729 192.184 142.389 192.042 142.137 191.758C141.886 191.473 141.761 191.084 141.761 190.59V190.5C141.761 190.196 141.817 189.925 141.928 189.687C142.04 189.45 142.2 189.266 142.409 189.135C142.619 189.004 142.866 188.938 143.152 188.938C143.503 188.938 143.794 189.043 144.025 189.254C144.259 189.464 144.383 189.737 144.399 190.072H143.892C143.877 189.87 143.8 189.704 143.661 189.575C143.524 189.444 143.354 189.378 143.152 189.378C142.88 189.378 142.669 189.476 142.518 189.673C142.37 189.868 142.296 190.15 142.296 190.521V190.622C142.296 190.982 142.37 191.26 142.518 191.455C142.667 191.65 142.879 191.747 143.155 191.747Z" fill="black"/>
<path d="M146.932 191.816C146.724 192.061 146.418 192.184 146.015 192.184C145.682 192.184 145.427 192.087 145.252 191.894C145.078 191.7 144.99 191.412 144.989 191.032V188.996H145.524V191.018C145.524 191.492 145.716 191.73 146.102 191.73C146.511 191.73 146.783 191.577 146.918 191.273V188.996H147.453V192.126H146.944L146.932 191.816Z" fill="black"/>
<path d="M148.772 188.996L148.786 189.343C149.016 189.073 149.325 188.938 149.715 188.938C150.153 188.938 150.45 189.106 150.609 189.442C150.713 189.291 150.848 189.17 151.013 189.077C151.181 188.985 151.379 188.938 151.606 188.938C152.293 188.938 152.642 189.302 152.654 190.029V192.126H152.118V190.061C152.118 189.837 152.067 189.67 151.965 189.56C151.863 189.448 151.691 189.392 151.45 189.392C151.252 189.392 151.087 189.452 150.956 189.572C150.825 189.689 150.748 189.849 150.727 190.049V192.126H150.189V190.075C150.189 189.62 149.966 189.392 149.521 189.392C149.17 189.392 148.93 189.542 148.801 189.841V192.126H148.266V188.996H148.772Z" fill="black"/>
<path d="M154.762 192.184C154.338 192.184 153.993 192.045 153.727 191.767C153.46 191.488 153.327 191.114 153.327 190.648V190.549C153.327 190.239 153.386 189.962 153.504 189.719C153.623 189.474 153.789 189.284 154.001 189.147C154.215 189.008 154.447 188.938 154.696 188.938C155.102 188.938 155.419 189.072 155.644 189.34C155.87 189.608 155.983 189.992 155.983 190.492V190.714H153.863C153.87 191.023 153.96 191.273 154.132 191.463C154.305 191.652 154.525 191.747 154.791 191.747C154.98 191.747 155.14 191.708 155.271 191.631C155.402 191.554 155.517 191.452 155.615 191.325L155.942 191.579C155.68 191.982 155.287 192.184 154.762 192.184ZM154.696 189.378C154.48 189.378 154.298 189.457 154.152 189.615C154.005 189.771 153.915 189.991 153.88 190.275H155.448V190.234C155.432 189.962 155.359 189.752 155.228 189.604C155.097 189.453 154.919 189.378 154.696 189.378Z" fill="black"/>
<path d="M157.111 188.996L157.128 189.39C157.367 189.089 157.68 188.938 158.065 188.938C158.727 188.938 159.06 189.311 159.066 190.058V192.126H158.531V190.055C158.529 189.829 158.477 189.662 158.375 189.554C158.274 189.446 158.117 189.392 157.903 189.392C157.73 189.392 157.577 189.439 157.446 189.531C157.315 189.624 157.213 189.745 157.14 189.896V192.126H156.605V188.996H157.111Z" fill="black"/>
<path d="M160.599 188.238V188.996H161.183V189.41H160.599V191.351C160.599 191.476 160.625 191.57 160.677 191.634C160.729 191.696 160.818 191.727 160.943 191.727C161.005 191.727 161.09 191.715 161.198 191.692V192.126C161.057 192.164 160.92 192.184 160.787 192.184C160.548 192.184 160.368 192.111 160.246 191.967C160.125 191.822 160.064 191.617 160.064 191.351V189.41H159.494V188.996H160.064V188.238H160.599Z" fill="black"/>
<path d="M135.902 195.901C135.902 196.063 135.856 196.196 135.764 196.3C135.674 196.403 135.545 196.472 135.377 196.507V196.521C135.582 196.547 135.733 196.612 135.832 196.716C135.931 196.821 135.98 196.958 135.98 197.128C135.98 197.371 135.896 197.558 135.728 197.689C135.559 197.819 135.32 197.884 135.009 197.884C134.875 197.884 134.751 197.874 134.638 197.853C134.527 197.833 134.418 197.798 134.312 197.747V197.471C134.423 197.526 134.54 197.568 134.664 197.597C134.79 197.624 134.908 197.638 135.02 197.638C135.46 197.638 135.681 197.466 135.681 197.121C135.681 196.812 135.438 196.657 134.952 196.657H134.701V196.408H134.955C135.154 196.408 135.312 196.364 135.428 196.277C135.544 196.189 135.602 196.067 135.602 195.911C135.602 195.787 135.559 195.689 135.473 195.618C135.388 195.547 135.273 195.512 135.126 195.512C135.015 195.512 134.91 195.527 134.811 195.557C134.712 195.588 134.599 195.643 134.473 195.725L134.326 195.529C134.431 195.447 134.551 195.382 134.687 195.336C134.824 195.288 134.968 195.264 135.119 195.264C135.367 195.264 135.559 195.321 135.696 195.435C135.833 195.548 135.902 195.703 135.902 195.901Z" fill="#C1C1C1"/>
<path d="M136.801 197.435L136.827 197.475C136.797 197.591 136.754 197.726 136.697 197.879C136.64 198.034 136.58 198.177 136.519 198.309H136.301C136.332 198.189 136.367 198.039 136.404 197.862C136.442 197.684 136.469 197.541 136.484 197.435H136.801Z" fill="#C1C1C1"/>
<path d="M138.916 197.849H137.24V197.6L137.912 196.926C138.116 196.719 138.251 196.571 138.316 196.483C138.381 196.395 138.43 196.309 138.462 196.225C138.495 196.141 138.511 196.051 138.511 195.955C138.511 195.819 138.47 195.711 138.387 195.632C138.305 195.552 138.19 195.512 138.044 195.512C137.938 195.512 137.838 195.529 137.742 195.564C137.648 195.599 137.543 195.662 137.427 195.754L137.274 195.557C137.508 195.362 137.764 195.264 138.041 195.264C138.28 195.264 138.468 195.326 138.604 195.449C138.739 195.571 138.807 195.736 138.807 195.942C138.807 196.104 138.762 196.264 138.672 196.422C138.581 196.58 138.411 196.78 138.163 197.021L137.605 197.567V197.581H138.916V197.849Z" fill="#C1C1C1"/>
<path d="M141.507 196.514H142.374V197.753C142.239 197.796 142.102 197.829 141.962 197.851C141.823 197.873 141.661 197.884 141.478 197.884C141.092 197.884 140.792 197.77 140.577 197.541C140.362 197.311 140.254 196.989 140.254 196.575C140.254 196.31 140.307 196.078 140.413 195.88C140.52 195.68 140.673 195.528 140.873 195.423C141.073 195.317 141.307 195.264 141.575 195.264C141.847 195.264 142.101 195.314 142.335 195.414L142.22 195.676C141.99 195.578 141.769 195.529 141.556 195.529C141.246 195.529 141.004 195.622 140.829 195.807C140.655 195.991 140.568 196.248 140.568 196.575C140.568 196.919 140.652 197.18 140.819 197.358C140.987 197.536 141.234 197.624 141.56 197.624C141.736 197.624 141.909 197.604 142.077 197.563V196.779H141.507V196.514Z" fill="#C1C1C1"/>
<path d="M142.987 195.301H143.707C144.045 195.301 144.29 195.352 144.441 195.453C144.592 195.554 144.667 195.714 144.667 195.932C144.667 196.083 144.625 196.208 144.54 196.307C144.457 196.404 144.334 196.468 144.172 196.497V196.514C144.559 196.58 144.753 196.784 144.753 197.124C144.753 197.352 144.676 197.53 144.521 197.658C144.368 197.785 144.153 197.849 143.876 197.849H142.987V195.301ZM143.283 196.392H143.772C143.981 196.392 144.131 196.36 144.223 196.295C144.315 196.228 144.361 196.117 144.361 195.962C144.361 195.819 144.31 195.716 144.207 195.653C144.105 195.589 143.942 195.557 143.719 195.557H143.283V196.392ZM143.283 196.643V197.597H143.815C144.021 197.597 144.175 197.557 144.279 197.478C144.383 197.398 144.436 197.273 144.436 197.103C144.436 196.945 144.382 196.829 144.275 196.755C144.17 196.68 144.008 196.643 143.791 196.643H143.283Z" fill="#C1C1C1"/>
<path d="M146.226 195.301L145.276 197.849H144.986L145.936 195.301H146.226Z" fill="#C1C1C1"/>
<path d="M148.112 197.849H146.437V197.6L147.108 196.926C147.312 196.719 147.447 196.571 147.512 196.483C147.577 196.395 147.626 196.309 147.658 196.225C147.691 196.141 147.707 196.051 147.707 195.955C147.707 195.819 147.666 195.711 147.583 195.632C147.501 195.552 147.387 195.512 147.24 195.512C147.134 195.512 147.034 195.529 146.939 195.564C146.844 195.599 146.739 195.662 146.623 195.754L146.47 195.557C146.704 195.362 146.96 195.264 147.237 195.264C147.476 195.264 147.664 195.326 147.8 195.449C147.936 195.571 148.004 195.736 148.004 195.942C148.004 196.104 147.958 196.264 147.868 196.422C147.777 196.58 147.607 196.78 147.359 197.021L146.801 197.567V197.581H148.112V197.849Z" fill="#C1C1C1"/>
<path d="M150.168 196.572C150.168 197.012 150.099 197.341 149.959 197.558C149.821 197.776 149.609 197.884 149.323 197.884C149.049 197.884 148.84 197.773 148.697 197.551C148.554 197.328 148.483 197.002 148.483 196.572C148.483 196.128 148.552 195.798 148.69 195.583C148.829 195.368 149.039 195.261 149.323 195.261C149.6 195.261 149.809 195.373 149.952 195.597C150.096 195.822 150.168 196.146 150.168 196.572ZM148.776 196.572C148.776 196.942 148.819 197.213 148.906 197.382C148.994 197.551 149.132 197.635 149.323 197.635C149.516 197.635 149.655 197.55 149.741 197.379C149.828 197.207 149.872 196.938 149.872 196.572C149.872 196.206 149.828 195.938 149.741 195.768C149.655 195.597 149.516 195.512 149.323 195.512C149.132 195.512 148.994 195.596 148.906 195.765C148.819 195.932 148.776 196.201 148.776 196.572Z" fill="#C1C1C1"/>
<path d="M152.746 196.514H153.613V197.753C153.478 197.796 153.341 197.829 153.201 197.851C153.062 197.873 152.9 197.884 152.717 197.884C152.331 197.884 152.03 197.77 151.815 197.541C151.6 197.311 151.493 196.989 151.493 196.575C151.493 196.31 151.546 196.078 151.652 195.88C151.759 195.68 151.912 195.528 152.112 195.423C152.312 195.317 152.546 195.264 152.814 195.264C153.086 195.264 153.339 195.314 153.574 195.414L153.459 195.676C153.229 195.578 153.008 195.529 152.795 195.529C152.485 195.529 152.243 195.622 152.068 195.807C151.894 195.991 151.807 196.248 151.807 196.575C151.807 196.919 151.89 197.18 152.058 197.358C152.226 197.536 152.473 197.624 152.799 197.624C152.975 197.624 153.148 197.604 153.316 197.563V196.779H152.746V196.514Z" fill="#C1C1C1"/>
<path d="M154.226 195.301H154.946C155.284 195.301 155.529 195.352 155.68 195.453C155.831 195.554 155.906 195.714 155.906 195.932C155.906 196.083 155.864 196.208 155.779 196.307C155.695 196.404 155.573 196.468 155.411 196.497V196.514C155.798 196.58 155.992 196.784 155.992 197.124C155.992 197.352 155.914 197.53 155.76 197.658C155.606 197.785 155.392 197.849 155.115 197.849H154.226V195.301ZM154.522 196.392H155.01C155.22 196.392 155.37 196.36 155.462 196.295C155.554 196.228 155.6 196.117 155.6 195.962C155.6 195.819 155.548 195.716 155.446 195.653C155.344 195.589 155.181 195.557 154.958 195.557H154.522V196.392ZM154.522 196.643V197.597H155.054C155.26 197.597 155.414 197.557 155.518 197.478C155.622 197.398 155.674 197.273 155.674 197.103C155.674 196.945 155.621 196.829 155.514 196.755C155.408 196.68 155.247 196.643 155.03 196.643H154.522Z" fill="#C1C1C1"/>
<path d="M108.66 186.662C108.66 185.897 109.28 185.277 110.045 185.277H122.585C123.35 185.277 123.97 185.897 123.97 186.662V199.202C123.97 199.967 123.35 200.588 122.585 200.588H110.045C109.28 200.588 108.66 199.967 108.66 199.202V186.662Z" fill="#FFAD62"/>
<path fill-rule="evenodd" clip-rule="evenodd" d="M113.521 189.634C113.707 189.447 113.96 189.342 114.224 189.342H117.173C117.241 189.342 117.307 189.369 117.355 189.418L119.567 191.629C119.615 191.678 119.642 191.743 119.642 191.812V196.235C119.642 196.498 119.537 196.752 119.351 196.938C119.164 197.125 118.911 197.23 118.647 197.23H114.224C113.96 197.23 113.707 197.125 113.521 196.938C113.334 196.752 113.229 196.498 113.229 196.235V190.337C113.229 190.073 113.334 189.82 113.521 189.634ZM114.224 189.858C114.097 189.858 113.975 189.909 113.886 189.999C113.796 190.088 113.745 190.21 113.745 190.337V196.235C113.745 196.362 113.796 196.483 113.886 196.573C113.975 196.663 114.097 196.714 114.224 196.714H118.647C118.774 196.714 118.896 196.663 118.986 196.573C119.076 196.483 119.126 196.362 119.126 196.235V191.919L117.066 189.858H114.224Z" fill="white"/>
<path fill-rule="evenodd" clip-rule="evenodd" d="M117.173 189.341C117.316 189.341 117.431 189.456 117.431 189.599V191.552H119.384C119.527 191.552 119.642 191.668 119.642 191.81C119.642 191.953 119.527 192.068 119.384 192.068H117.173C117.031 192.068 116.915 191.953 116.915 191.81V189.599C116.915 189.456 117.031 189.341 117.173 189.341Z" fill="white"/>
<path fill-rule="evenodd" clip-rule="evenodd" d="M114.703 193.654C114.703 193.512 114.819 193.396 114.961 193.396H117.91C118.052 193.396 118.168 193.512 118.168 193.654C118.168 193.797 118.052 193.912 117.91 193.912H114.961C114.819 193.912 114.703 193.797 114.703 193.654Z" fill="white"/>
<path fill-rule="evenodd" clip-rule="evenodd" d="M114.703 195.128C114.703 194.985 114.819 194.87 114.961 194.87H117.91C118.052 194.87 118.168 194.985 118.168 195.128C118.168 195.27 118.052 195.386 117.91 195.386H114.961C114.819 195.386 114.703 195.27 114.703 195.128Z" fill="white"/>
<path fill-rule="evenodd" clip-rule="evenodd" d="M114.703 192.177C114.703 192.035 114.819 191.919 114.961 191.919H115.699C115.841 191.919 115.957 192.035 115.957 192.177C115.957 192.32 115.841 192.435 115.699 192.435H114.961C114.819 192.435 114.703 192.32 114.703 192.177Z" fill="white"/>
</g>
<g filter="url(#filter6_d)">
<rect x="250.587" y="160.778" width="164.074" height="164.074" rx="6.01747" fill="white"/>
<path fill-rule="evenodd" clip-rule="evenodd" d="M333.085 240.68C307.951 240.782 287.609 261.188 287.609 286.345C287.609 288.62 285.765 290.463 283.49 290.463C281.216 290.463 279.372 288.62 279.372 286.345C279.372 256.576 303.505 232.443 333.274 232.443H333.466L333.656 232.461C363.875 235.272 388.59 259.572 387.177 286.345C387.177 288.62 385.333 290.463 383.059 290.463C380.784 290.463 378.94 288.62 378.94 286.345C379.297 261.342 359.851 243.247 333.085 240.68Z" fill="#E6EDF5"/>
<path fill-rule="evenodd" clip-rule="evenodd" d="M333.066 240.546C307.507 240.658 287.476 261.101 287.476 286.346C287.476 288.546 285.693 290.329 283.493 290.329C281.294 290.329 279.51 288.546 279.51 286.346C279.51 256.672 303.178 232.58 333.277 232.58H333.491L333.703 232.602C344.409 233.754 353.826 236.488 361.995 241.593C370.186 246.712 376.879 254.065 382.352 264.08C383.407 266.01 382.697 268.43 380.767 269.485C378.837 270.54 376.417 269.83 375.362 267.9C370.437 258.887 364.628 252.632 357.773 248.348C350.946 244.08 342.842 241.62 333.066 240.546Z" fill="#FF9737"/>
<path fill-rule="evenodd" clip-rule="evenodd" d="M308.37 247.529C295.249 256.37 287.476 272.267 287.476 286.127C287.476 288.327 285.693 290.11 283.493 290.11C281.294 290.11 279.51 288.327 279.51 286.127C279.51 269.675 288.554 251.276 303.919 240.923C320.223 229.705 344.34 228.82 365.969 244.28C367.818 245.472 368.351 247.937 367.159 249.785C365.967 251.634 363.503 252.167 361.654 250.975C339.498 236.695 321.151 238.918 308.37 247.529Z" fill="#F45552"/>
<path fill-rule="evenodd" clip-rule="evenodd" d="M333.143 240.676C307.387 240.321 288.018 261.205 287.608 286.411C287.571 288.685 285.697 290.499 283.423 290.462C281.149 290.425 279.336 288.551 279.373 286.277C279.848 257.052 303.183 231.25 333.496 232.577C335.769 232.65 337.463 234.418 337.39 236.692C337.318 238.965 335.416 240.749 333.143 240.676Z" fill="#4182FA"/>
<path d="M321.71 267.3H320.385V261.978C320.385 261.343 320.4 260.84 320.43 260.468C320.344 260.558 320.236 260.657 320.109 260.766C319.985 260.875 319.564 261.221 318.846 261.804L318.181 260.964L320.605 259.058H321.71V267.3Z" fill="#5E5E5E"/>
<path d="M330.001 263.179C330.001 264.611 329.77 265.674 329.308 266.369C328.85 267.065 328.147 267.412 327.2 267.412C326.283 267.412 325.588 267.053 325.114 266.336C324.641 265.618 324.404 264.566 324.404 263.179C324.404 261.725 324.633 260.654 325.092 259.966C325.554 259.275 326.257 258.929 327.2 258.929C328.121 258.929 328.818 259.29 329.291 260.011C329.765 260.733 330.001 261.789 330.001 263.179ZM325.746 263.179C325.746 264.303 325.86 265.105 326.089 265.586C326.322 266.067 326.693 266.307 327.2 266.307C327.707 266.307 328.077 266.063 328.31 265.575C328.547 265.086 328.665 264.288 328.665 263.179C328.665 262.074 328.547 261.276 328.31 260.783C328.077 260.287 327.707 260.039 327.2 260.039C326.693 260.039 326.322 260.282 326.089 260.766C325.86 261.251 325.746 262.055 325.746 263.179Z" fill="#5E5E5E"/>
<path d="M332.825 266.088C332.645 266.787 332.314 267.687 331.833 268.788H330.858C331.117 267.773 331.311 266.83 331.439 265.958H332.741L332.825 266.088Z" fill="#5E5E5E"/>
<path d="M336.895 262.153C337.726 262.153 338.383 262.373 338.868 262.813C339.353 263.252 339.595 263.852 339.595 264.611C339.595 265.49 339.319 266.178 338.767 266.674C338.218 267.166 337.436 267.412 336.422 267.412C335.501 267.412 334.778 267.264 334.252 266.967V265.766C334.556 265.939 334.905 266.073 335.3 266.167C335.695 266.26 336.061 266.307 336.399 266.307C336.997 266.307 337.451 266.174 337.763 265.907C338.075 265.64 338.231 265.25 338.231 264.735C338.231 263.75 337.604 263.258 336.348 263.258C336.172 263.258 335.954 263.277 335.695 263.314C335.435 263.348 335.208 263.388 335.013 263.433L334.421 263.083L334.736 259.058H339.02V260.237H335.903L335.717 262.277C335.849 262.255 336.008 262.228 336.196 262.198C336.388 262.168 336.621 262.153 336.895 262.153Z" fill="#5E5E5E"/>
<path d="M344.728 265.143H346.483V267.537C346.196 267.631 345.919 267.697 345.654 267.736C345.391 267.775 345.106 267.795 344.799 267.795C344.077 267.795 343.521 267.582 343.129 267.156C342.738 266.727 342.542 266.124 342.542 265.345C342.542 264.577 342.763 263.977 343.204 263.544C343.646 263.109 344.253 262.892 345.028 262.892C345.526 262.892 345.998 262.988 346.444 263.179L346.17 263.828C345.782 263.65 345.395 263.561 345.008 263.561C344.499 263.561 344.097 263.72 343.801 264.04C343.505 264.36 343.357 264.797 343.357 265.352C343.357 265.934 343.49 266.378 343.755 266.683C344.023 266.985 344.407 267.136 344.907 267.136C345.159 267.136 345.429 267.105 345.716 267.041V265.812H344.728V265.143Z" fill="#5E5E5E"/>
<path d="M347.631 262.96H349.047C349.704 262.96 350.178 263.056 350.469 263.247C350.763 263.439 350.91 263.741 350.91 264.154C350.91 264.433 350.838 264.664 350.694 264.849C350.551 265.034 350.344 265.15 350.074 265.198V265.231C350.409 265.294 350.655 265.419 350.812 265.606C350.97 265.791 351.05 266.042 351.05 266.36C351.05 266.788 350.9 267.124 350.6 267.368C350.302 267.609 349.886 267.73 349.353 267.73H347.631V262.96ZM348.411 264.931H349.161C349.487 264.931 349.725 264.88 349.875 264.777C350.026 264.673 350.101 264.497 350.101 264.249C350.101 264.025 350.019 263.863 349.856 263.763C349.695 263.663 349.438 263.613 349.086 263.613H348.411V264.931ZM348.411 265.564V267.074H349.239C349.566 267.074 349.811 267.012 349.977 266.888C350.144 266.762 350.228 266.564 350.228 266.294C350.228 266.046 350.143 265.863 349.973 265.743C349.804 265.623 349.546 265.564 349.2 265.564H348.411Z" fill="#5E5E5E"/>
<path d="M323.005 284.546H322.537V282.667C322.537 282.442 322.542 282.264 322.553 282.133C322.522 282.165 322.484 282.2 322.439 282.239C322.395 282.277 322.247 282.399 321.993 282.605L321.758 282.308L322.614 281.635H323.005V284.546Z" fill="#5E5E5E"/>
<path d="M324.948 282.728C325.241 282.728 325.474 282.806 325.645 282.961C325.816 283.117 325.902 283.328 325.902 283.596C325.902 283.907 325.804 284.15 325.609 284.325C325.415 284.499 325.139 284.586 324.781 284.586C324.456 284.586 324.2 284.534 324.014 284.429V284.005C324.122 284.066 324.245 284.113 324.385 284.146C324.524 284.179 324.653 284.196 324.773 284.196C324.984 284.196 325.144 284.149 325.255 284.054C325.365 283.96 325.42 283.822 325.42 283.64C325.42 283.293 325.198 283.119 324.755 283.119C324.693 283.119 324.616 283.125 324.524 283.139C324.432 283.15 324.352 283.164 324.283 283.18L324.074 283.057L324.185 281.635H325.699V282.051H324.598L324.532 282.772C324.578 282.764 324.635 282.755 324.701 282.744C324.769 282.734 324.851 282.728 324.948 282.728Z" fill="#5E5E5E"/>
<path d="M326.931 284.118C326.867 284.365 326.751 284.683 326.581 285.072H326.236C326.328 284.713 326.396 284.38 326.441 284.072H326.901L326.931 284.118Z" fill="#5E5E5E"/>
<path d="M328.369 282.728C328.662 282.728 328.894 282.806 329.066 282.961C329.237 283.117 329.322 283.328 329.322 283.596C329.322 283.907 329.225 284.15 329.03 284.325C328.836 284.499 328.56 284.586 328.201 284.586C327.876 284.586 327.621 284.534 327.435 284.429V284.005C327.542 284.066 327.666 284.113 327.805 284.146C327.945 284.179 328.074 284.196 328.194 284.196C328.405 284.196 328.565 284.149 328.675 284.054C328.786 283.96 328.841 283.822 328.841 283.64C328.841 283.293 328.619 283.119 328.176 283.119C328.113 283.119 328.036 283.125 327.945 283.139C327.853 283.15 327.773 283.164 327.704 283.18L327.495 283.057L327.606 281.635H329.119V282.051H328.018L327.953 282.772C327.999 282.764 328.055 282.755 328.122 282.744C328.19 282.734 328.272 282.728 328.369 282.728Z" fill="#5E5E5E"/>
<path d="M331.456 283.539H332.218V284.578C332.093 284.619 331.973 284.648 331.858 284.665C331.744 284.682 331.62 284.69 331.487 284.69C331.174 284.69 330.932 284.598 330.762 284.413C330.593 284.227 330.508 283.965 330.508 283.627C330.508 283.294 330.603 283.034 330.795 282.846C330.986 282.657 331.25 282.563 331.586 282.563C331.802 282.563 332.007 282.604 332.201 282.687L332.082 282.969C331.914 282.892 331.746 282.853 331.578 282.853C331.357 282.853 331.182 282.922 331.054 283.061C330.926 283.2 330.861 283.389 330.861 283.63C330.861 283.883 330.919 284.075 331.034 284.207C331.15 284.339 331.317 284.404 331.534 284.404C331.643 284.404 331.76 284.391 331.885 284.363V283.83H331.456V283.539Z" fill="#5E5E5E"/>
<path d="M332.716 282.592H333.33C333.615 282.592 333.821 282.634 333.947 282.717C334.075 282.8 334.138 282.931 334.138 283.11C334.138 283.231 334.107 283.332 334.045 283.412C333.983 283.492 333.893 283.543 333.776 283.563V283.578C333.921 283.605 334.028 283.659 334.096 283.74C334.165 283.821 334.199 283.93 334.199 284.067C334.199 284.253 334.134 284.399 334.004 284.505C333.875 284.609 333.694 284.662 333.463 284.662H332.716V282.592ZM333.054 283.447H333.38C333.521 283.447 333.625 283.425 333.69 283.381C333.755 283.336 333.787 283.259 333.787 283.151C333.787 283.054 333.752 282.984 333.681 282.941C333.611 282.897 333.5 282.875 333.347 282.875H333.054V283.447ZM333.054 283.722V284.377H333.414C333.555 284.377 333.662 284.35 333.734 284.297C333.806 284.242 333.843 284.156 333.843 284.039C333.843 283.931 333.806 283.852 333.732 283.8C333.659 283.748 333.547 283.722 333.397 283.722H333.054Z" fill="#5E5E5E"/>
<path d="M337.713 281.937V283.759C337.713 283.967 337.668 284.149 337.578 284.306C337.49 284.461 337.36 284.581 337.191 284.666C337.023 284.75 336.821 284.791 336.586 284.791C336.237 284.791 335.965 284.699 335.771 284.514C335.578 284.329 335.481 284.075 335.481 283.751V281.937H335.943V283.719C335.943 283.951 335.997 284.122 336.105 284.233C336.213 284.343 336.378 284.399 336.602 284.399C337.036 284.399 337.253 284.171 337.253 283.715V281.937H337.713Z" fill="#4182FA"/>
<path d="M339.816 284.146C339.816 284.354 339.741 284.514 339.589 284.626C339.438 284.736 339.22 284.791 338.938 284.791C338.654 284.791 338.426 284.748 338.254 284.662V284.271C338.505 284.387 338.738 284.445 338.953 284.445C339.232 284.445 339.371 284.361 339.371 284.192C339.371 284.138 339.356 284.094 339.325 284.058C339.294 284.022 339.244 283.984 339.173 283.946C339.102 283.907 339.004 283.864 338.878 283.815C338.633 283.72 338.467 283.625 338.379 283.53C338.293 283.435 338.25 283.312 338.25 283.16C338.25 282.978 338.324 282.836 338.47 282.736C338.618 282.635 338.818 282.584 339.071 282.584C339.321 282.584 339.558 282.635 339.782 282.736L339.635 283.077C339.405 282.982 339.212 282.935 339.055 282.935C338.817 282.935 338.697 283.003 338.697 283.139C338.697 283.206 338.728 283.262 338.79 283.308C338.853 283.355 338.989 283.418 339.198 283.499C339.374 283.567 339.502 283.629 339.581 283.686C339.661 283.742 339.72 283.808 339.759 283.882C339.797 283.955 339.816 284.043 339.816 284.146Z" fill="#4182FA"/>
<path d="M341.238 284.791C340.906 284.791 340.647 284.695 340.46 284.503C340.273 284.309 340.18 284.042 340.18 283.703C340.18 283.355 340.267 283.082 340.44 282.883C340.614 282.684 340.852 282.584 341.155 282.584C341.436 282.584 341.658 282.669 341.821 282.84C341.984 283.011 342.066 283.246 342.066 283.545V283.79H340.646C340.653 283.997 340.709 284.156 340.814 284.268C340.919 284.378 341.068 284.433 341.259 284.433C341.385 284.433 341.502 284.422 341.61 284.399C341.719 284.374 341.836 284.334 341.96 284.279V284.647C341.85 284.7 341.738 284.737 341.625 284.759C341.512 284.781 341.383 284.791 341.238 284.791ZM341.155 282.927C341.011 282.927 340.896 282.973 340.808 283.064C340.722 283.155 340.671 283.288 340.654 283.462H341.621C341.619 283.286 341.576 283.154 341.494 283.064C341.412 282.973 341.299 282.927 341.155 282.927Z" fill="#4182FA"/>
<path d="M343.299 284.791C343.033 284.791 342.826 284.695 342.677 284.503C342.528 284.31 342.453 284.04 342.453 283.692C342.453 283.342 342.528 283.071 342.679 282.877C342.83 282.682 343.039 282.584 343.306 282.584C343.586 282.584 343.8 282.687 343.946 282.894H343.969C343.947 282.741 343.936 282.621 343.936 282.532V281.756H344.391V284.753H344.036L343.957 284.474H343.936C343.791 284.686 343.579 284.791 343.299 284.791ZM343.42 284.425C343.606 284.425 343.742 284.373 343.827 284.269C343.911 284.164 343.955 283.994 343.957 283.759V283.695C343.957 283.427 343.914 283.236 343.827 283.123C343.739 283.01 343.602 282.954 343.416 282.954C343.257 282.954 343.134 283.019 343.048 283.148C342.962 283.277 342.919 283.46 342.919 283.699C342.919 283.936 342.961 284.116 343.044 284.241C343.128 284.364 343.253 284.425 343.42 284.425Z" fill="#4182FA"/>
<path d="M301.856 201.688C301.856 201.321 301.726 201.039 301.466 200.84C301.21 200.641 300.745 200.44 300.072 200.238C299.399 200.035 298.864 199.81 298.467 199.561C297.706 199.083 297.325 198.46 297.325 197.692C297.325 197.019 297.599 196.464 298.145 196.029C298.696 195.593 299.409 195.375 300.284 195.375C300.865 195.375 301.383 195.482 301.838 195.696C302.293 195.91 302.651 196.216 302.911 196.614C303.171 197.007 303.301 197.445 303.301 197.927H301.856C301.856 197.491 301.718 197.151 301.443 196.906C301.171 196.658 300.781 196.533 300.273 196.533C299.799 196.533 299.43 196.635 299.166 196.837C298.906 197.04 298.776 197.323 298.776 197.686C298.776 197.992 298.918 198.248 299.201 198.454C299.483 198.657 299.95 198.856 300.6 199.051C301.25 199.242 301.771 199.462 302.165 199.71C302.559 199.955 302.848 200.238 303.031 200.559C303.215 200.876 303.306 201.249 303.306 201.677C303.306 202.373 303.039 202.927 302.504 203.34C301.972 203.749 301.25 203.954 300.336 203.954C299.732 203.954 299.176 203.843 298.667 203.621C298.163 203.395 297.769 203.086 297.486 202.692C297.207 202.298 297.067 201.839 297.067 201.316H298.518C298.518 201.79 298.675 202.157 298.988 202.417C299.302 202.677 299.751 202.807 300.336 202.807C300.841 202.807 301.219 202.705 301.471 202.503C301.728 202.296 301.856 202.025 301.856 201.688ZM306.191 196.126V197.634H307.286V198.666H306.191V202.13C306.191 202.367 306.237 202.539 306.328 202.646C306.424 202.749 306.592 202.801 306.833 202.801C306.994 202.801 307.156 202.782 307.32 202.744V203.822C307.003 203.91 306.697 203.954 306.403 203.954C305.333 203.954 304.797 203.363 304.797 202.182V198.666H303.777V197.634H304.797V196.126H306.191ZM307.923 200.679C307.923 200.071 308.043 199.525 308.284 199.039C308.525 198.55 308.863 198.175 309.299 197.915C309.735 197.651 310.235 197.52 310.801 197.52C311.638 197.52 312.317 197.789 312.837 198.328C313.361 198.867 313.644 199.582 313.686 200.473L313.691 200.8C313.691 201.411 313.573 201.958 313.336 202.44C313.103 202.921 312.766 203.294 312.327 203.558C311.891 203.822 311.386 203.954 310.813 203.954C309.937 203.954 309.236 203.663 308.708 203.082C308.184 202.497 307.923 201.719 307.923 200.748V200.679ZM309.316 200.8C309.316 201.438 309.448 201.939 309.712 202.302C309.975 202.661 310.342 202.841 310.813 202.841C311.283 202.841 311.648 202.658 311.908 202.291C312.172 201.924 312.304 201.386 312.304 200.679C312.304 200.052 312.168 199.555 311.896 199.188C311.629 198.821 311.264 198.638 310.801 198.638C310.346 198.638 309.985 198.819 309.717 199.183C309.45 199.542 309.316 200.081 309.316 200.8ZM318.118 198.907C317.935 198.877 317.745 198.861 317.551 198.861C316.912 198.861 316.482 199.106 316.26 199.595V203.839H314.867V197.634H316.197L316.232 198.328C316.568 197.789 317.034 197.52 317.631 197.52C317.83 197.52 317.994 197.546 318.124 197.6L318.118 198.907ZM322.534 203.839C322.473 203.72 322.419 203.527 322.373 203.26C321.93 203.722 321.387 203.954 320.745 203.954C320.121 203.954 319.613 203.776 319.219 203.42C318.825 203.065 318.629 202.625 318.629 202.101C318.629 201.44 318.873 200.933 319.363 200.582C319.856 200.226 320.559 200.048 321.473 200.048H322.327V199.641C322.327 199.32 322.237 199.064 322.058 198.873C321.878 198.678 321.605 198.58 321.238 198.58C320.92 198.58 320.66 198.661 320.458 198.821C320.255 198.978 320.154 199.179 320.154 199.423H318.76C318.76 199.083 318.873 198.766 319.099 198.472C319.324 198.173 319.63 197.94 320.016 197.772C320.406 197.604 320.84 197.52 321.318 197.52C322.044 197.52 322.624 197.703 323.056 198.07C323.487 198.433 323.709 198.946 323.721 199.607V202.405C323.721 202.963 323.799 203.409 323.956 203.741V203.839H322.534ZM321.003 202.835C321.278 202.835 321.536 202.768 321.777 202.635C322.021 202.501 322.205 202.321 322.327 202.096V200.926H321.576C321.06 200.926 320.672 201.016 320.412 201.195C320.152 201.375 320.022 201.629 320.022 201.958C320.022 202.226 320.11 202.44 320.286 202.6C320.465 202.757 320.704 202.835 321.003 202.835ZM324.936 200.691C324.936 199.727 325.162 198.959 325.613 198.385C326.068 197.808 326.67 197.52 327.419 197.52C328.127 197.52 328.683 197.766 329.088 198.259L329.151 197.634H330.407V203.65C330.407 204.464 330.153 205.106 329.644 205.576C329.14 206.047 328.457 206.282 327.597 206.282C327.142 206.282 326.697 206.186 326.261 205.995C325.829 205.808 325.5 205.561 325.275 205.255L325.934 204.418C326.362 204.926 326.89 205.181 327.517 205.181C327.979 205.181 328.344 205.055 328.612 204.802C328.88 204.554 329.014 204.187 329.014 203.701V203.283C328.612 203.73 328.077 203.954 327.408 203.954C326.682 203.954 326.087 203.665 325.625 203.088C325.166 202.51 324.936 201.711 324.936 200.691ZM326.324 200.811C326.324 201.434 326.45 201.926 326.703 202.285C326.959 202.64 327.312 202.818 327.763 202.818C328.325 202.818 328.742 202.577 329.014 202.096V199.366C328.75 198.896 328.337 198.661 327.775 198.661C327.316 198.661 326.959 198.842 326.703 199.206C326.45 199.569 326.324 200.104 326.324 200.811ZM334.576 203.954C333.693 203.954 332.976 203.676 332.425 203.122C331.879 202.564 331.605 201.822 331.605 200.897V200.725C331.605 200.106 331.724 199.553 331.961 199.068C332.202 198.579 332.538 198.198 332.97 197.927C333.402 197.655 333.884 197.52 334.415 197.52C335.26 197.52 335.912 197.789 336.371 198.328C336.833 198.867 337.065 199.63 337.065 200.616V201.178H333.01C333.052 201.69 333.223 202.096 333.521 202.394C333.823 202.692 334.201 202.841 334.656 202.841C335.295 202.841 335.814 202.583 336.216 202.067L336.967 202.784C336.719 203.155 336.386 203.443 335.969 203.65C335.556 203.852 335.092 203.954 334.576 203.954ZM334.41 198.638C334.027 198.638 333.718 198.772 333.481 199.039C333.247 199.307 333.098 199.68 333.033 200.157H335.688V200.054C335.658 199.588 335.533 199.236 335.316 198.999C335.098 198.758 334.796 198.638 334.41 198.638ZM347.318 195.49V201.069C347.318 201.956 347.033 202.66 346.463 203.179C345.897 203.696 345.142 203.954 344.198 203.954C343.242 203.954 342.484 203.699 341.922 203.191C341.36 202.679 341.079 201.969 341.079 201.063V195.49H342.524V201.075C342.524 201.633 342.665 202.059 342.948 202.354C343.231 202.648 343.648 202.795 344.198 202.795C345.314 202.795 345.873 202.206 345.873 201.029V195.49H347.318ZM352.215 202.153C352.215 201.904 352.111 201.715 351.905 201.585C351.702 201.455 351.364 201.341 350.89 201.241C350.416 201.142 350.02 201.016 349.703 200.863C349.007 200.526 348.659 200.039 348.659 199.4C348.659 198.865 348.885 198.418 349.336 198.059C349.787 197.699 350.361 197.52 351.056 197.52C351.798 197.52 352.396 197.703 352.851 198.07C353.31 198.437 353.539 198.913 353.539 199.498H352.146C352.146 199.23 352.047 199.009 351.848 198.833C351.649 198.653 351.385 198.563 351.056 198.563C350.751 198.563 350.5 198.634 350.305 198.775C350.114 198.917 350.018 199.106 350.018 199.343C350.018 199.557 350.108 199.724 350.288 199.842C350.468 199.961 350.831 200.081 351.377 200.203C351.924 200.322 352.352 200.465 352.662 200.633C352.975 200.798 353.207 200.997 353.356 201.23C353.509 201.463 353.585 201.746 353.585 202.078C353.585 202.637 353.354 203.09 352.891 203.437C352.429 203.782 351.823 203.954 351.074 203.954C350.565 203.954 350.112 203.862 349.715 203.678C349.317 203.495 349.007 203.242 348.786 202.921C348.564 202.6 348.453 202.254 348.453 201.883H349.806C349.825 202.212 349.95 202.466 350.179 202.646C350.408 202.822 350.712 202.91 351.091 202.91C351.458 202.91 351.737 202.841 351.928 202.703C352.119 202.562 352.215 202.379 352.215 202.153ZM357.536 203.954C356.653 203.954 355.936 203.676 355.386 203.122C354.839 202.564 354.566 201.822 354.566 200.897V200.725C354.566 200.106 354.684 199.553 354.921 199.068C355.162 198.579 355.499 198.198 355.931 197.927C356.363 197.655 356.844 197.52 357.376 197.52C358.22 197.52 358.872 197.789 359.331 198.328C359.794 198.867 360.025 199.63 360.025 200.616V201.178H355.971C356.013 201.69 356.183 202.096 356.481 202.394C356.783 202.692 357.162 202.841 357.616 202.841C358.255 202.841 358.775 202.583 359.176 202.067L359.927 202.784C359.679 203.155 359.346 203.443 358.93 203.65C358.517 203.852 358.052 203.954 357.536 203.954ZM357.37 198.638C356.988 198.638 356.678 198.772 356.441 199.039C356.208 199.307 356.059 199.68 355.994 200.157H358.649V200.054C358.618 199.588 358.494 199.236 358.276 198.999C358.058 198.758 357.756 198.638 357.37 198.638ZM360.851 200.691C360.851 199.735 361.072 198.968 361.516 198.391C361.959 197.81 362.554 197.52 363.299 197.52C363.957 197.52 364.488 197.749 364.893 198.208V195.031H366.287V203.839H365.025L364.956 203.197C364.54 203.701 363.984 203.954 363.288 203.954C362.561 203.954 361.973 203.661 361.522 203.076C361.074 202.491 360.851 201.696 360.851 200.691ZM362.244 200.811C362.244 201.442 362.365 201.935 362.605 202.291C362.85 202.642 363.196 202.818 363.643 202.818C364.213 202.818 364.63 202.564 364.893 202.055V199.406C364.637 198.909 364.224 198.661 363.655 198.661C363.204 198.661 362.856 198.84 362.611 199.2C362.366 199.555 362.244 200.092 362.244 200.811Z" fill="#212121"/>
</g>
<defs>
<filter id="filter0_d" x="29.9361" y="146.634" width="287.318" height="219.443" filterUnits="userSpaceOnUse" color-interpolation-filters="sRGB">
<feFlood flood-opacity="0" result="BackgroundImageFix"/>
<feColorMatrix in="SourceAlpha" type="matrix" values="0 0 0 0 0 0 0 0 0 0 0 0 0 0 0 0 0 0 127 0"/>
<feOffset dy="3.77181"/>
<feGaussianBlur stdDeviation="47.1476"/>
<feColorMatrix type="matrix" values="0 0 0 0 0 0 0 0 0 0 0 0 0 0 0 0 0 0 0.05 0"/>
<feBlend mode="normal" in2="BackgroundImageFix" result="effect1_dropShadow"/>
<feBlend mode="normal" in="SourceGraphic" in2="effect1_dropShadow" result="shape"/>
</filter>
<filter id="filter1_d" x="104.482" y="219.666" width="138.225" height="70.3504" filterUnits="userSpaceOnUse" color-interpolation-filters="sRGB">
<feFlood flood-opacity="0" result="BackgroundImageFix"/>
<feColorMatrix in="SourceAlpha" type="matrix" values="0 0 0 0 0 0 0 0 0 0 0 0 0 0 0 0 0 0 127 0"/>
<feOffset dy="2.25704"/>
<feGaussianBlur stdDeviation="9.87454"/>
<feColorMatrix type="matrix" values="0 0 0 0 0 0 0 0 0 0 0 0 0 0 0 0 0 0 0.03 0"/>
<feBlend mode="normal" in2="BackgroundImageFix" result="effect1_dropShadow"/>
<feBlend mode="normal" in="SourceGraphic" in2="effect1_dropShadow" result="shape"/>
</filter>
<filter id="filter2_d" x="85.5704" y="0.476516" width="317.02" height="238.921" filterUnits="userSpaceOnUse" color-interpolation-filters="sRGB">
<feFlood flood-opacity="0" result="BackgroundImageFix"/>
<feColorMatrix in="SourceAlpha" type="matrix" values="0 0 0 0 0 0 0 0 0 0 0 0 0 0 0 0 0 0 127 0"/>
<feOffset dy="3.77181"/>
<feGaussianBlur stdDeviation="47.1476"/>
<feColorMatrix type="matrix" values="0 0 0 0 0 0 0 0 0 0 0 0 0 0 0 0 0 0 0.05 0"/>
<feBlend mode="normal" in2="BackgroundImageFix" result="effect1_dropShadow"/>
<feBlend mode="normal" in="SourceGraphic" in2="effect1_dropShadow" result="shape"/>
</filter>
<filter id="filter3_d" x="153.386" y="69.8158" width="181.389" height="103.291" filterUnits="userSpaceOnUse" color-interpolation-filters="sRGB">
<feFlood flood-opacity="0" result="BackgroundImageFix"/>
<feColorMatrix in="SourceAlpha" type="matrix" values="0 0 0 0 0 0 0 0 0 0 0 0 0 0 0 0 0 0 127 0"/>
<feOffset dy="5.29604"/>
<feGaussianBlur stdDeviation="13.2401"/>
<feColorMatrix type="matrix" values="0 0 0 0 0 0 0 0 0 0 0 0 0 0 0 0 0 0 0.02 0"/>
<feBlend mode="normal" in2="BackgroundImageFix" result="effect1_dropShadow"/>
<feBlend mode="normal" in="SourceGraphic" in2="effect1_dropShadow" result="shape"/>
</filter>
<filter id="filter4_d" x="0.704704" y="83.4564" width="331.274" height="227.759" filterUnits="userSpaceOnUse" color-interpolation-filters="sRGB">
<feFlood flood-opacity="0" result="BackgroundImageFix"/>
<feColorMatrix in="SourceAlpha" type="matrix" values="0 0 0 0 0 0 0 0 0 0 0 0 0 0 0 0 0 0 127 0"/>
<feOffset dy="3.77181"/>
<feGaussianBlur stdDeviation="47.1476"/>
<feColorMatrix type="matrix" values="0 0 0 0 0 0 0 0 0 0 0 0 0 0 0 0 0 0 0.05 0"/>
<feBlend mode="normal" in2="BackgroundImageFix" result="effect1_dropShadow"/>
<feBlend mode="normal" in="SourceGraphic" in2="effect1_dropShadow" result="shape"/>
</filter>
<filter id="filter5_d" x="70.7571" y="152.508" width="191.169" height="87.6538" filterUnits="userSpaceOnUse" color-interpolation-filters="sRGB">
<feFlood flood-opacity="0" result="BackgroundImageFix"/>
<feColorMatrix in="SourceAlpha" type="matrix" values="0 0 0 0 0 0 0 0 0 0 0 0 0 0 0 0 0 0 127 0"/>
<feOffset dy="2.77062"/>
<feGaussianBlur stdDeviation="12.1215"/>
<feColorMatrix type="matrix" values="0 0 0 0 0 0 0 0 0 0 0 0 0 0 0 0 0 0 0.03 0"/>
<feBlend mode="normal" in2="BackgroundImageFix" result="effect1_dropShadow"/>
<feBlend mode="normal" in="SourceGraphic" in2="effect1_dropShadow" result="shape"/>
</filter>
<filter id="filter6_d" x="156.292" y="70.255" width="352.664" height="352.664" filterUnits="userSpaceOnUse" color-interpolation-filters="sRGB">
<feFlood flood-opacity="0" result="BackgroundImageFix"/>
<feColorMatrix in="SourceAlpha" type="matrix" values="0 0 0 0 0 0 0 0 0 0 0 0 0 0 0 0 0 0 127 0"/>
<feOffset dy="3.77181"/>
<feGaussianBlur stdDeviation="47.1476"/>
<feColorMatrix type="matrix" values="0 0 0 0 0 0 0 0 0 0 0 0 0 0 0 0 0 0 0.05 0"/>
<feBlend mode="normal" in2="BackgroundImageFix" result="effect1_dropShadow"/>
<feBlend mode="normal" in="SourceGraphic" in2="effect1_dropShadow" result="shape"/>
</filter>
<clipPath id="clip0">
<rect width="14.2331" height="13.2401" fill="white" transform="translate(198.402 109.538)"/>
</clipPath>
</defs>
</svg>
