<svg width="447" height="401" viewBox="0 0 447 401" fill="none" xmlns="http://www.w3.org/2000/svg">
<g filter="url(#filter0_d)">
<path d="M235.159 157.526C235.159 154.582 237.546 152.196 240.489 152.196H347.096C350.04 152.196 352.426 154.582 352.426 157.526V241.745C352.426 244.689 350.04 247.075 347.096 247.075H240.489C237.546 247.075 235.159 244.689 235.159 241.745V157.526Z" fill="#4182FA"/>
<path d="M279.819 178.941C279.819 177.764 280.773 176.809 281.951 176.809H305.404C306.582 176.809 307.537 177.764 307.537 178.941V202.395C307.537 203.572 306.582 204.527 305.404 204.527H281.951C280.773 204.527 279.819 203.572 279.819 202.395V178.941Z" fill="white"/>
<path d="M272.275 220.533V212.111H274.652C275.385 212.111 276.033 212.273 276.596 212.597C277.159 212.921 277.592 213.382 277.897 213.98C278.205 214.577 278.362 215.264 278.365 216.039V216.576C278.365 217.371 278.211 218.067 277.903 218.664C277.598 219.262 277.161 219.721 276.59 220.041C276.023 220.361 275.362 220.525 274.606 220.533H272.275ZM273.386 213.025V219.624H274.554C275.41 219.624 276.075 219.358 276.549 218.826C277.027 218.294 277.267 217.537 277.267 216.553V216.062C277.267 215.105 277.041 214.363 276.59 213.835C276.143 213.303 275.506 213.033 274.681 213.025H273.386Z" fill="white"/>
<path d="M282.906 215.235C282.744 215.208 282.568 215.194 282.379 215.194C281.678 215.194 281.201 215.493 280.951 216.091V220.533H279.881V214.275H280.922L280.939 214.997C281.29 214.438 281.788 214.159 282.431 214.159C282.64 214.159 282.798 214.186 282.906 214.24V215.235Z" fill="white"/>
<path d="M283.496 217.346C283.496 216.733 283.615 216.181 283.854 215.692C284.097 215.202 284.433 214.824 284.861 214.558C285.292 214.292 285.784 214.159 286.335 214.159C287.188 214.159 287.876 214.454 288.4 215.044C288.929 215.634 289.193 216.418 289.193 217.398V217.473C289.193 218.082 289.075 218.63 288.84 219.116C288.609 219.598 288.275 219.973 287.839 220.243C287.407 220.513 286.91 220.648 286.347 220.648C285.499 220.648 284.81 220.353 284.282 219.763C283.758 219.173 283.496 218.393 283.496 217.421V217.346ZM284.571 217.473C284.571 218.167 284.731 218.724 285.051 219.144C285.375 219.565 285.807 219.775 286.347 219.775C286.891 219.775 287.323 219.563 287.643 219.139C287.963 218.711 288.123 218.113 288.123 217.346C288.123 216.659 287.959 216.104 287.631 215.68C287.307 215.252 286.875 215.038 286.335 215.038C285.807 215.038 285.381 215.248 285.057 215.668C284.733 216.089 284.571 216.69 284.571 217.473Z" fill="white"/>
<path d="M295.821 217.473C295.821 218.425 295.603 219.193 295.167 219.775C294.732 220.357 294.142 220.648 293.397 220.648C292.638 220.648 292.04 220.407 291.604 219.925V222.939H290.535V214.275H291.512L291.564 214.969C292 214.429 292.605 214.159 293.38 214.159C294.132 214.159 294.726 214.442 295.162 215.009C295.601 215.576 295.821 216.364 295.821 217.375V217.473ZM294.751 217.351C294.751 216.646 294.6 216.089 294.3 215.68C293.999 215.271 293.586 215.067 293.062 215.067C292.414 215.067 291.928 215.354 291.604 215.929V218.919C291.925 219.49 292.414 219.775 293.074 219.775C293.586 219.775 293.993 219.572 294.294 219.168C294.599 218.759 294.751 218.153 294.751 217.351Z" fill="white"/>
<path d="M302.484 217.473C302.484 218.429 302.264 219.198 301.824 219.781C301.385 220.359 300.795 220.648 300.055 220.648C299.264 220.648 298.653 220.369 298.221 219.81L298.169 220.533H297.186V211.649H298.256V214.963C298.688 214.427 299.283 214.159 300.043 214.159C300.803 214.159 301.398 214.446 301.83 215.021C302.266 215.595 302.484 216.382 302.484 217.38V217.473ZM301.414 217.351C301.414 216.623 301.273 216.06 300.992 215.663C300.71 215.265 300.305 215.067 299.777 215.067C299.071 215.067 298.564 215.395 298.256 216.05V218.757C298.584 219.412 299.094 219.74 299.789 219.74C300.301 219.74 300.7 219.542 300.986 219.144C301.271 218.747 301.414 218.15 301.414 217.351Z" fill="white"/>
<path d="M303.554 217.346C303.554 216.733 303.673 216.181 303.912 215.692C304.155 215.202 304.491 214.824 304.919 214.558C305.351 214.292 305.842 214.159 306.394 214.159C307.246 214.159 307.934 214.454 308.458 215.044C308.987 215.634 309.251 216.418 309.251 217.398V217.473C309.251 218.082 309.133 218.63 308.898 219.116C308.667 219.598 308.333 219.973 307.897 220.243C307.466 220.513 306.968 220.648 306.405 220.648C305.557 220.648 304.869 220.353 304.34 219.763C303.816 219.173 303.554 218.393 303.554 217.421V217.346ZM304.63 217.473C304.63 218.167 304.79 218.724 305.11 219.144C305.433 219.565 305.865 219.775 306.405 219.775C306.949 219.775 307.381 219.563 307.701 219.139C308.021 218.711 308.181 218.113 308.181 217.346C308.181 216.659 308.017 216.104 307.689 215.68C307.365 215.252 306.933 215.038 306.394 215.038C305.865 215.038 305.439 215.248 305.115 215.668C304.791 216.089 304.63 216.69 304.63 217.473Z" fill="white"/>
<path d="M312.565 216.559L313.953 214.275H315.202L313.155 217.369L315.266 220.533H314.028L312.582 218.19L311.136 220.533H309.893L312.004 217.369L309.956 214.275H311.194L312.565 216.559Z" fill="white"/>
<path d="M342.832 170.32C342.832 170.909 342.354 171.386 341.766 171.386C341.177 171.386 340.7 170.909 340.7 170.32C340.7 169.731 341.177 169.254 341.766 169.254C342.354 169.254 342.832 169.731 342.832 170.32Z" fill="white"/>
<path d="M339.1 170.32C339.1 170.909 338.623 171.386 338.034 171.386C337.445 171.386 336.968 170.909 336.968 170.32C336.968 169.731 337.445 169.254 338.034 169.254C338.623 169.254 339.1 169.731 339.1 170.32Z" fill="white"/>
<path d="M335.369 170.32C335.369 170.909 334.892 171.387 334.303 171.387C333.714 171.387 333.237 170.909 333.237 170.32C333.237 169.732 333.714 169.254 334.303 169.254C334.892 169.254 335.369 169.732 335.369 170.32Z" fill="white"/>
<g clip-path="url(#clip0)">
<path d="M290.417 184.274L286.419 186.865L289.202 189.104L293.2 186.609L290.417 184.274ZM286.419 191.278L290.417 193.901L293.2 191.566L289.202 189.104L286.419 191.278ZM293.2 191.566L296.014 193.901L299.98 191.31L297.229 189.104L293.2 191.566ZM299.98 186.865L296.014 184.274L293.2 186.609L297.229 189.104L299.98 186.865ZM293.232 192.078L290.417 194.413L289.234 193.613V194.509L293.232 196.907L297.229 194.509V193.613L296.014 194.413L293.232 192.078Z" fill="#007EE5"/>
</g>
</g>
<g filter="url(#filter1_d)">
<path d="M95 212.801C95 209.857 97.3865 207.47 100.33 207.47H206.937C209.881 207.47 212.267 209.857 212.267 212.801V297.02C212.267 299.964 209.881 302.35 206.937 302.35H100.33C97.3865 302.35 95 299.964 95 297.02V212.801Z" fill="white"/>
<path d="M139.319 234.575C139.319 233.397 140.273 232.443 141.451 232.443H164.904C166.082 232.443 167.037 233.397 167.037 234.575V258.028C167.037 259.206 166.082 260.161 164.904 260.161H141.451C140.273 260.161 139.319 259.206 139.319 258.028V234.575Z" fill="#F2F7FF"/>
<path d="M126.949 275.06C126.664 275.468 126.265 275.775 125.752 275.979C125.243 276.18 124.649 276.28 123.97 276.28C123.284 276.28 122.675 276.12 122.143 275.8C121.611 275.476 121.198 275.017 120.905 274.423C120.616 273.83 120.467 273.141 120.46 272.359V271.624C120.46 270.356 120.755 269.372 121.345 268.674C121.938 267.976 122.771 267.628 123.843 267.628C124.722 267.628 125.43 267.853 125.966 268.304C126.502 268.752 126.83 269.388 126.949 270.213H125.839C125.63 269.099 124.967 268.541 123.849 268.541C123.105 268.541 122.54 268.804 122.154 269.328C121.773 269.849 121.58 270.604 121.576 271.595V272.283C121.576 273.228 121.792 273.98 122.224 274.539C122.656 275.094 123.24 275.372 123.976 275.372C124.393 275.372 124.757 275.326 125.069 275.233C125.382 275.141 125.64 274.984 125.844 274.765V272.873H123.895V271.971H126.949V275.06Z" fill="#082B6B"/>
<path d="M128.355 272.978C128.355 272.364 128.474 271.813 128.713 271.323C128.956 270.834 129.292 270.456 129.72 270.19C130.151 269.924 130.643 269.791 131.194 269.791C132.047 269.791 132.735 270.086 133.259 270.676C133.787 271.266 134.052 272.05 134.052 273.03V273.105C134.052 273.714 133.934 274.262 133.699 274.747C133.467 275.229 133.134 275.605 132.698 275.875C132.266 276.145 131.769 276.28 131.206 276.28C130.358 276.28 129.669 275.985 129.141 275.395C128.617 274.805 128.355 274.024 128.355 273.053V272.978ZM129.43 273.105C129.43 273.799 129.59 274.356 129.91 274.776C130.234 275.197 130.666 275.407 131.206 275.407C131.75 275.407 132.181 275.195 132.502 274.77C132.822 274.342 132.982 273.745 132.982 272.978C132.982 272.291 132.818 271.736 132.49 271.312C132.166 270.884 131.734 270.67 131.194 270.67C130.666 270.67 130.24 270.88 129.916 271.3C129.592 271.721 129.43 272.322 129.43 273.105Z" fill="#082B6B"/>
<path d="M135.11 272.978C135.11 272.364 135.23 271.813 135.469 271.323C135.712 270.834 136.047 270.456 136.475 270.19C136.907 269.924 137.398 269.791 137.95 269.791C138.802 269.791 139.49 270.086 140.015 270.676C140.543 271.266 140.807 272.05 140.807 273.03V273.105C140.807 273.714 140.689 274.262 140.454 274.747C140.223 275.229 139.889 275.605 139.454 275.875C139.022 276.145 138.524 276.28 137.961 276.28C137.113 276.28 136.425 275.985 135.897 275.395C135.372 274.805 135.11 274.024 135.11 273.053V272.978ZM136.186 273.105C136.186 273.799 136.346 274.356 136.666 274.776C136.99 275.197 137.422 275.407 137.961 275.407C138.505 275.407 138.937 275.195 139.257 274.77C139.577 274.342 139.737 273.745 139.737 272.978C139.737 272.291 139.573 271.736 139.245 271.312C138.922 270.884 138.49 270.67 137.95 270.67C137.422 270.67 136.996 270.88 136.672 271.3C136.348 271.721 136.186 272.322 136.186 273.105Z" fill="#082B6B"/>
<path d="M141.894 272.983C141.894 272.008 142.12 271.233 142.571 270.658C143.022 270.08 143.62 269.791 144.364 269.791C145.127 269.791 145.723 270.061 146.151 270.6L146.203 269.906H147.181V276.014C147.181 276.824 146.94 277.462 146.458 277.928C145.98 278.395 145.336 278.628 144.526 278.628C144.075 278.628 143.633 278.532 143.201 278.339C142.77 278.146 142.44 277.882 142.212 277.547L142.768 276.905C143.227 277.472 143.788 277.755 144.451 277.755C144.971 277.755 145.376 277.608 145.665 277.315C145.958 277.022 146.105 276.61 146.105 276.078V275.54C145.677 276.033 145.093 276.28 144.352 276.28C143.62 276.28 143.026 275.985 142.571 275.395C142.12 274.805 141.894 274.001 141.894 272.983ZM142.97 273.105C142.97 273.81 143.115 274.366 143.404 274.77C143.693 275.172 144.098 275.372 144.619 275.372C145.293 275.372 145.789 275.065 146.105 274.452V271.595C145.777 270.998 145.286 270.699 144.63 270.699C144.11 270.699 143.703 270.901 143.41 271.306C143.117 271.711 142.97 272.31 142.97 273.105Z" fill="#082B6B"/>
<path d="M149.963 276.164H148.893V267.281H149.963V276.164Z" fill="#082B6B"/>
<path d="M154.277 276.28C153.429 276.28 152.739 276.002 152.207 275.447C151.675 274.888 151.409 274.142 151.409 273.209V273.012C151.409 272.391 151.526 271.838 151.761 271.352C152.001 270.863 152.332 270.481 152.756 270.207C153.184 269.929 153.647 269.791 154.144 269.791C154.958 269.791 155.59 270.059 156.041 270.595C156.493 271.131 156.718 271.898 156.718 272.897V273.342H152.479C152.494 273.959 152.673 274.458 153.017 274.84C153.364 275.218 153.803 275.407 154.335 275.407C154.713 275.407 155.033 275.33 155.295 275.175C155.558 275.021 155.787 274.817 155.984 274.562L156.637 275.071C156.113 275.877 155.326 276.28 154.277 276.28ZM154.144 270.67C153.713 270.67 153.35 270.828 153.057 271.144C152.764 271.456 152.583 271.896 152.513 272.463H155.648V272.382C155.617 271.838 155.471 271.418 155.209 271.121C154.946 270.82 154.592 270.67 154.144 270.67Z" fill="#082B6B"/>
<path d="M161.068 276.164V267.743H163.445C164.177 267.743 164.825 267.905 165.388 268.229C165.951 268.553 166.385 269.014 166.689 269.611C166.998 270.209 167.154 270.895 167.158 271.67V272.208C167.158 273.003 167.004 273.699 166.695 274.296C166.391 274.894 165.953 275.353 165.382 275.673C164.815 275.993 164.154 276.157 163.398 276.164H161.068ZM162.178 268.657V275.256H163.346C164.202 275.256 164.867 274.99 165.342 274.458C165.82 273.926 166.059 273.168 166.059 272.185V271.694C166.059 270.737 165.833 269.995 165.382 269.467C164.935 268.935 164.299 268.665 163.474 268.657H162.178Z" fill="#082B6B"/>
<path d="M171.698 270.866C171.536 270.839 171.361 270.826 171.172 270.826C170.47 270.826 169.994 271.125 169.743 271.722V276.164H168.673V269.906H169.714L169.732 270.629C170.083 270.07 170.58 269.791 171.224 269.791C171.432 269.791 171.59 269.818 171.698 269.872V270.866Z" fill="#082B6B"/>
<path d="M173.85 276.164H172.78V269.906H173.85V276.164ZM172.693 268.246C172.693 268.073 172.745 267.926 172.849 267.807C172.957 267.687 173.115 267.628 173.323 267.628C173.532 267.628 173.69 267.687 173.798 267.807C173.906 267.926 173.96 268.073 173.96 268.246C173.96 268.42 173.906 268.565 173.798 268.68C173.69 268.796 173.532 268.854 173.323 268.854C173.115 268.854 172.957 268.796 172.849 268.68C172.745 268.565 172.693 268.42 172.693 268.246Z" fill="#082B6B"/>
<path d="M177.632 274.713L179.182 269.906H180.275L178.031 276.164H177.216L174.949 269.906H176.042L177.632 274.713Z" fill="#082B6B"/>
<path d="M183.821 276.28C182.973 276.28 182.282 276.002 181.75 275.447C181.218 274.888 180.952 274.142 180.952 273.209V273.012C180.952 272.391 181.07 271.838 181.305 271.352C181.544 270.863 181.876 270.481 182.3 270.207C182.728 269.929 183.19 269.791 183.688 269.791C184.501 269.791 185.134 270.059 185.585 270.595C186.036 271.131 186.262 271.898 186.262 272.897V273.342H182.022C182.038 273.959 182.217 274.458 182.56 274.84C182.907 275.218 183.347 275.407 183.879 275.407C184.257 275.407 184.577 275.33 184.839 275.175C185.101 275.021 185.33 274.817 185.527 274.562L186.181 275.071C185.656 275.877 184.87 276.28 183.821 276.28ZM183.688 270.67C183.256 270.67 182.894 270.828 182.601 271.144C182.307 271.456 182.126 271.896 182.057 272.463H185.192V272.382C185.161 271.838 185.014 271.418 184.752 271.121C184.49 270.82 184.135 270.67 183.688 270.67Z" fill="#082B6B"/>
<path d="M202.673 225.599C202.673 226.188 202.196 226.665 201.607 226.665C201.018 226.665 200.541 226.188 200.541 225.599C200.541 225.01 201.018 224.533 201.607 224.533C202.196 224.533 202.673 225.01 202.673 225.599Z" fill="#DCE3EB"/>
<path d="M198.942 225.599C198.942 226.188 198.464 226.665 197.876 226.665C197.287 226.665 196.81 226.188 196.81 225.599C196.81 225.01 197.287 224.533 197.876 224.533C198.464 224.533 198.942 225.01 198.942 225.599Z" fill="#DCE3EB"/>
<path d="M195.21 225.599C195.21 226.188 194.733 226.665 194.144 226.665C193.555 226.665 193.078 226.188 193.078 225.599C193.078 225.01 193.555 224.533 194.144 224.533C194.733 224.533 195.21 225.01 195.21 225.599Z" fill="#DCE3EB"/>
<g clip-path="url(#clip1)">
<path d="M150.791 239.488L150.804 239.488L150.806 239.502L150.789 239.503L150.791 239.488Z" fill="#0BA25E"/>
<path d="M150.741 239.586C150.752 239.569 150.775 239.537 150.786 239.52L150.806 239.517C150.822 239.702 150.876 239.88 150.917 240.06C151.092 240.841 151.269 241.622 151.454 242.402C151.575 242.936 151.71 243.468 151.821 244.004C151.917 244.336 151.968 244.678 152.061 245.011C152.121 245.321 152.216 245.624 152.266 245.936C152.246 245.97 152.225 246.004 152.204 246.038C152.199 246.046 152.189 246.062 152.184 246.071L152.176 246.084C152.175 246.086 152.173 246.091 152.171 246.093C152.16 246.114 152.137 246.156 152.126 246.177C152.124 246.181 152.119 246.188 152.117 246.192L152.096 246.229C152.094 246.233 152.089 246.241 152.086 246.246L152.062 246.288C152.061 246.29 152.058 246.295 152.057 246.297L152.027 246.35C152.024 246.354 152.019 246.364 152.016 246.368C152.014 246.373 152.008 246.383 152.005 246.388L151.975 246.439C151.973 246.442 151.968 246.45 151.966 246.454L151.948 246.485C151.945 246.49 151.939 246.501 151.936 246.506C151.924 246.526 151.901 246.566 151.889 246.587C151.887 246.59 151.883 246.598 151.881 246.601L151.863 246.632C151.86 246.638 151.853 246.648 151.85 246.654C151.839 246.673 151.817 246.71 151.806 246.729C151.804 246.734 151.799 246.743 151.796 246.747L151.774 246.786C151.772 246.79 151.768 246.797 151.766 246.801L151.744 246.84C151.741 246.844 151.737 246.852 151.734 246.856C151.723 246.875 151.7 246.914 151.688 246.934C151.686 246.938 151.681 246.947 151.678 246.952L151.657 246.989C151.655 246.993 151.651 246.999 151.65 247.003L151.626 247.044C151.624 247.048 151.619 247.055 151.617 247.059C151.605 247.08 151.581 247.121 151.569 247.142C151.567 247.146 151.562 247.154 151.56 247.158L151.542 247.187C151.539 247.192 151.533 247.202 151.53 247.207C151.519 247.226 151.497 247.265 151.486 247.284C151.484 247.287 151.48 247.294 151.479 247.297L151.455 247.34C151.453 247.343 151.449 247.349 151.448 247.352L151.423 247.395C151.421 247.398 151.417 247.405 151.415 247.409C151.404 247.428 151.381 247.466 151.369 247.485C151.366 247.49 151.36 247.5 151.357 247.506L151.34 247.538C151.338 247.542 151.333 247.55 151.331 247.554L151.301 247.606C151.299 247.61 151.293 247.619 151.291 247.623C151.289 247.627 151.284 247.636 151.282 247.64C151.232 247.723 151.188 247.809 151.133 247.888C150.823 248.395 150.537 248.917 150.237 249.429C149.749 250.274 149.261 251.118 148.773 251.963C148.7 252.094 148.617 252.22 148.554 252.357C148.55 252.362 148.544 252.371 148.541 252.376C148.424 252.208 148.334 252.022 148.227 251.847C147.739 251.002 147.25 250.157 146.763 249.312C146.492 248.836 146.209 248.367 145.945 247.887C146.99 246.084 148.03 244.278 149.073 242.474C149.074 242.472 149.076 242.469 149.077 242.467L149.105 242.418C149.106 242.416 149.109 242.412 149.11 242.41L149.139 242.36C149.142 242.356 149.147 242.347 149.15 242.342C149.153 242.337 149.159 242.327 149.161 242.322L149.19 242.27C149.192 242.267 149.196 242.26 149.198 242.256L149.22 242.222C149.224 242.216 149.231 242.205 149.235 242.199C149.246 242.183 149.267 242.152 149.278 242.136C149.279 242.131 149.281 242.12 149.282 242.116L149.307 242.067C149.309 242.065 149.311 242.061 149.312 242.059L149.341 242.01C149.344 242.005 149.35 241.995 149.353 241.99C149.356 241.985 149.363 241.973 149.366 241.967L149.391 241.925C149.393 241.92 149.398 241.911 149.401 241.907L149.421 241.871C149.424 241.867 149.428 241.859 149.431 241.855C149.442 241.835 149.465 241.796 149.477 241.777C149.479 241.772 149.484 241.764 149.486 241.76L149.507 241.721C149.509 241.719 149.512 241.712 149.514 241.709L149.542 241.66C149.546 241.654 149.553 241.642 149.557 241.637L149.576 241.608C149.58 241.602 149.588 241.591 149.592 241.585C149.595 241.579 149.602 241.568 149.606 241.562L149.622 241.532C149.627 241.52 149.638 241.498 149.643 241.486L149.659 241.464C149.662 241.46 149.668 241.452 149.671 241.448C149.681 241.439 149.703 241.42 149.714 241.411L149.712 241.377C149.714 241.372 149.718 241.364 149.72 241.36L149.745 241.311C149.747 241.307 149.751 241.3 149.753 241.297L149.775 241.261C149.779 241.255 149.787 241.244 149.791 241.238C149.801 241.222 149.821 241.189 149.831 241.173C149.834 241.168 149.839 241.156 149.842 241.15L149.857 241.117C149.862 241.108 149.872 241.09 149.877 241.081L149.896 241.054C149.9 241.048 149.908 241.037 149.912 241.032C149.916 241.026 149.923 241.014 149.927 241.008L149.941 240.978C149.944 240.972 149.951 240.958 149.954 240.951L149.979 240.903C149.983 240.897 149.99 240.885 149.994 240.879L150.013 240.85C150.017 240.844 150.025 240.833 150.029 240.827C150.033 240.822 150.04 240.81 150.044 240.804L150.059 240.773C150.063 240.765 150.072 240.748 150.076 240.74L150.095 240.707C150.099 240.702 150.106 240.691 150.11 240.685C150.12 240.669 150.141 240.636 150.152 240.62C150.153 240.615 150.156 240.605 150.157 240.6L150.183 240.552C150.183 240.55 150.186 240.546 150.187 240.544L150.216 240.494C150.219 240.489 150.225 240.48 150.227 240.475C150.23 240.47 150.236 240.46 150.239 240.455L150.268 240.404C150.269 240.402 150.271 240.398 150.273 240.396L150.3 240.348C150.302 240.346 150.304 240.342 150.305 240.34L150.335 240.29C150.337 240.285 150.343 240.277 150.345 240.272C150.348 240.267 150.354 240.257 150.357 240.252L150.385 240.202C150.387 240.199 150.39 240.193 150.392 240.19L150.415 240.152C150.419 240.146 150.427 240.135 150.43 240.13C150.441 240.114 150.462 240.081 150.473 240.065C150.474 240.06 150.476 240.051 150.477 240.046L150.502 239.998C150.504 239.995 150.508 239.987 150.511 239.983L150.533 239.949C150.537 239.943 150.544 239.932 150.548 239.926C150.559 239.91 150.579 239.877 150.589 239.861C150.591 239.856 150.593 239.847 150.595 239.842L150.62 239.794C150.622 239.792 150.624 239.788 150.625 239.786L150.655 239.735C150.657 239.731 150.662 239.722 150.665 239.718C150.668 239.713 150.673 239.704 150.676 239.699L150.705 239.647C150.706 239.645 150.708 239.641 150.71 239.639L150.737 239.592C150.738 239.59 150.74 239.587 150.741 239.586Z" fill="#0BA25E"/>
<path d="M150.803 239.486C151.75 239.482 152.697 239.486 153.644 239.484C154.428 239.487 155.212 239.478 155.995 239.489C156.011 239.518 156.027 239.548 156.043 239.577C156.046 239.581 156.05 239.589 156.052 239.593C156.128 239.725 156.205 239.857 156.28 239.989C156.281 239.991 156.284 239.996 156.285 239.998C156.43 240.247 156.575 240.497 156.717 240.747C156.719 240.749 156.721 240.753 156.722 240.756C156.748 240.8 156.775 240.845 156.802 240.89C156.804 240.894 156.808 240.902 156.811 240.906C156.847 240.97 156.884 241.034 156.921 241.097C156.922 241.099 156.925 241.104 156.926 241.106C156.963 241.169 156.999 241.234 157.036 241.298C157.038 241.301 157.043 241.309 157.045 241.313C157.082 241.375 157.118 241.438 157.154 241.501C157.156 241.505 157.16 241.513 157.163 241.517C157.511 242.118 157.858 242.719 158.205 243.321C158.165 243.496 158.261 243.669 158.208 243.845C158.175 244.324 157.994 244.791 157.696 245.168C157.599 245.273 157.693 245.419 157.682 245.544C157.578 245.671 157.443 245.765 157.316 245.868C157.316 245.963 157.316 246.059 157.312 246.155C157.199 246.23 157.069 246.273 156.954 246.345C156.941 246.384 156.929 246.423 156.917 246.463C156.824 246.506 156.726 246.535 156.633 246.579C156.267 246.474 155.905 246.357 155.54 246.249C155.201 246.137 154.853 246.049 154.517 245.925L154.498 245.891C154.496 245.888 154.493 245.883 154.492 245.88L154.464 245.833C154.461 245.828 154.455 245.818 154.452 245.813C154.45 245.809 154.445 245.801 154.442 245.796C154.422 245.759 154.403 245.722 154.386 245.683L154.384 245.68L154.382 245.677C154.369 245.656 154.343 245.615 154.33 245.595C154.329 245.592 154.326 245.588 154.324 245.585L154.316 245.572C154.311 245.563 154.301 245.547 154.296 245.538C154.283 245.517 154.258 245.474 154.245 245.453C154.242 245.448 154.236 245.437 154.233 245.432L154.215 245.401C154.213 245.397 154.208 245.39 154.206 245.385L154.177 245.337C154.176 245.335 154.174 245.331 154.172 245.328L154.143 245.277C154.14 245.273 154.135 245.263 154.132 245.259C154.129 245.254 154.123 245.243 154.12 245.238L154.096 245.195C154.093 245.19 154.087 245.18 154.084 245.175L154.066 245.142C154.063 245.137 154.058 245.129 154.055 245.124C154.044 245.103 154.021 245.062 154.009 245.041C154.008 245.038 154.005 245.033 154.004 245.031L153.996 245.017C153.991 245.009 153.98 244.993 153.974 244.985C153.946 244.936 153.918 244.887 153.893 244.837C153.891 244.834 153.888 244.83 153.887 244.827L153.88 244.814C153.874 244.806 153.863 244.79 153.858 244.783C153.845 244.76 153.819 244.714 153.806 244.69C153.805 244.688 153.802 244.683 153.801 244.681L153.793 244.667C153.787 244.657 153.776 244.638 153.77 244.628L153.745 244.586C153.742 244.582 153.737 244.574 153.735 244.57C153.724 244.55 153.701 244.512 153.69 244.492C153.687 244.488 153.682 244.479 153.68 244.474C153.66 244.441 153.641 244.408 153.622 244.375C153.621 244.372 153.618 244.367 153.616 244.364L153.588 244.317C153.586 244.312 153.58 244.303 153.577 244.298C153.575 244.293 153.57 244.285 153.567 244.28L153.538 244.229C153.536 244.227 153.534 244.222 153.532 244.219L153.508 244.177C153.506 244.173 153.502 244.166 153.5 244.163C153.489 244.143 153.467 244.105 153.456 244.085C153.454 244.081 153.449 244.073 153.447 244.069C153.428 244.039 153.41 244.009 153.393 243.979C152.585 242.576 151.775 241.174 150.965 239.773C150.914 239.685 150.868 239.594 150.806 239.514L150.805 239.501L150.803 239.486Z" fill="#FCCD48"/>
<path d="M150.789 239.508L150.809 239.508L150.81 239.523L150.786 239.527L150.789 239.508Z" fill="#089156"/>
<path d="M150.806 239.521C150.868 239.601 150.915 239.692 150.965 239.779C151.775 241.181 152.585 242.583 153.393 243.986C153.019 244.638 152.642 245.288 152.266 245.939C152.216 245.627 152.121 245.325 152.061 245.014C151.968 244.682 151.917 244.339 151.821 244.007C151.71 243.471 151.575 242.939 151.454 242.405C151.269 241.626 151.092 240.845 150.917 240.063C150.876 239.883 150.822 239.705 150.806 239.521Z" fill="#089156"/>
<path d="M150.737 239.6C150.739 239.598 150.743 239.591 150.745 239.589C150.743 239.591 150.739 239.598 150.737 239.6Z" fill="#089156"/>
<path d="M150.705 239.651C150.707 239.649 150.709 239.644 150.71 239.642C150.709 239.644 150.707 239.649 150.705 239.651Z" fill="#089156"/>
<path d="M150.665 239.721C150.668 239.716 150.673 239.707 150.675 239.703C150.673 239.707 150.668 239.716 150.665 239.721Z" fill="#089156"/>
<path d="M150.655 239.739C150.657 239.735 150.662 239.726 150.665 239.721C150.662 239.726 150.657 239.735 150.655 239.739Z" fill="#089156"/>
<path d="M150.621 239.8C150.622 239.797 150.625 239.792 150.626 239.789C150.625 239.792 150.622 239.797 150.621 239.8Z" fill="#089156"/>
<path d="M150.589 239.863C150.59 239.858 150.593 239.849 150.594 239.844C150.593 239.849 150.59 239.858 150.589 239.863Z" fill="#089156"/>
<path d="M150.548 239.932C150.558 239.916 150.579 239.883 150.589 239.867C150.579 239.883 150.558 239.916 150.548 239.932Z" fill="#089156"/>
<path d="M150.532 239.95C150.537 239.945 150.544 239.933 150.548 239.927C150.544 239.933 150.537 239.945 150.532 239.95Z" fill="#089156"/>
<path d="M150.502 240.002C150.504 239.998 150.509 239.989 150.512 239.985C150.509 239.989 150.504 239.998 150.502 240.002Z" fill="#089156"/>
<path d="M150.473 240.073C150.474 240.067 150.477 240.055 150.478 240.049C150.477 240.055 150.474 240.067 150.473 240.073Z" fill="#089156"/>
<path d="M150.43 240.133C150.441 240.116 150.463 240.084 150.474 240.067C150.463 240.084 150.441 240.116 150.43 240.133Z" fill="#089156"/>
<path d="M150.415 240.156C150.419 240.15 150.426 240.139 150.429 240.134C150.426 240.139 150.419 240.15 150.415 240.156Z" fill="#089156"/>
<path d="M150.385 240.205C150.387 240.202 150.39 240.196 150.392 240.193C150.39 240.196 150.387 240.202 150.385 240.205Z" fill="#089156"/>
<path d="M150.345 240.28C150.348 240.274 150.355 240.262 150.359 240.255C150.355 240.262 150.348 240.274 150.345 240.28Z" fill="#089156"/>
<path d="M150.335 240.295C150.337 240.29 150.342 240.282 150.345 240.277C150.342 240.282 150.337 240.29 150.335 240.295Z" fill="#089156"/>
<path d="M150.301 240.354C150.302 240.352 150.305 240.346 150.307 240.344C150.305 240.346 150.302 240.352 150.301 240.354Z" fill="#089156"/>
<path d="M150.268 240.407C150.269 240.405 150.272 240.401 150.273 240.399C150.272 240.401 150.269 240.405 150.268 240.407Z" fill="#089156"/>
<path d="M150.227 240.48C150.231 240.475 150.237 240.463 150.241 240.458C150.237 240.463 150.231 240.475 150.227 240.48Z" fill="#089156"/>
<path d="M150.216 240.503C150.219 240.497 150.226 240.486 150.229 240.48C150.226 240.486 150.219 240.497 150.216 240.503Z" fill="#089156"/>
<path d="M150.182 240.559C150.184 240.556 150.187 240.55 150.189 240.546C150.187 240.55 150.184 240.556 150.182 240.559Z" fill="#089156"/>
<path d="M150.152 240.627C150.153 240.621 150.157 240.609 150.158 240.603C150.157 240.609 150.153 240.621 150.152 240.627Z" fill="#089156"/>
<path d="M150.11 240.689C150.12 240.673 150.142 240.64 150.153 240.624C150.142 240.64 150.12 240.673 150.11 240.689Z" fill="#089156"/>
<path d="M150.095 240.711C150.098 240.706 150.105 240.695 150.109 240.69C150.105 240.695 150.098 240.706 150.095 240.711Z" fill="#089156"/>
<path d="M150.059 240.776C150.063 240.768 150.071 240.752 150.075 240.743C150.071 240.752 150.063 240.768 150.059 240.776Z" fill="#089156"/>
<path d="M150.029 240.831C150.033 240.826 150.04 240.814 150.044 240.808C150.04 240.814 150.033 240.826 150.029 240.831Z" fill="#089156"/>
<path d="M150.013 240.854C150.017 240.849 150.025 240.838 150.029 240.832C150.025 240.838 150.017 240.849 150.013 240.854Z" fill="#089156"/>
<path d="M149.979 240.907C149.983 240.902 149.99 240.889 149.994 240.883C149.99 240.889 149.983 240.902 149.979 240.907Z" fill="#089156"/>
<path d="M149.941 240.98C149.944 240.973 149.95 240.96 149.954 240.953C149.95 240.96 149.944 240.973 149.941 240.98Z" fill="#089156"/>
<path d="M149.912 241.035C149.915 241.03 149.923 241.018 149.926 241.012C149.923 241.018 149.915 241.03 149.912 241.035Z" fill="#089156"/>
<path d="M149.896 241.053C149.9 241.048 149.908 241.038 149.912 241.032C149.908 241.038 149.9 241.048 149.896 241.053Z" fill="#089156"/>
<path d="M149.857 241.119C149.862 241.11 149.871 241.093 149.876 241.084C149.871 241.093 149.862 241.11 149.857 241.119Z" fill="#089156"/>
<path d="M149.831 241.179C149.833 241.173 149.839 241.162 149.842 241.156C149.839 241.162 149.833 241.173 149.831 241.179Z" fill="#089156"/>
<path d="M149.791 241.243C149.801 241.227 149.821 241.194 149.831 241.178C149.821 241.194 149.801 241.227 149.791 241.243Z" fill="#089156"/>
<path d="M149.775 241.262C149.779 241.256 149.787 241.245 149.791 241.239C149.787 241.245 149.779 241.256 149.775 241.262Z" fill="#089156"/>
<path d="M149.744 241.318C149.747 241.314 149.752 241.305 149.754 241.301C149.752 241.305 149.747 241.314 149.744 241.318Z" fill="#089156"/>
<path d="M149.712 241.377C149.714 241.373 149.718 241.365 149.72 241.36C149.718 241.365 149.714 241.373 149.712 241.377Z" fill="#089156"/>
<path d="M149.67 241.451C149.681 241.433 149.702 241.397 149.712 241.379L149.714 241.413C149.703 241.423 149.681 241.441 149.67 241.451Z" fill="#089156"/>
<path d="M149.659 241.468C149.663 241.464 149.669 241.455 149.672 241.451C149.669 241.455 149.663 241.464 149.659 241.468Z" fill="#089156"/>
<path d="M149.622 241.534C149.628 241.523 149.639 241.499 149.644 241.487C149.639 241.499 149.628 241.523 149.622 241.534Z" fill="#089156"/>
<path d="M149.591 241.588C149.595 241.582 149.602 241.57 149.606 241.565C149.602 241.57 149.595 241.582 149.591 241.588Z" fill="#089156"/>
<path d="M149.576 241.611C149.58 241.605 149.588 241.594 149.592 241.589C149.588 241.594 149.58 241.605 149.576 241.611Z" fill="#089156"/>
<path d="M149.543 241.664C149.546 241.658 149.553 241.646 149.557 241.64C149.553 241.646 149.546 241.658 149.543 241.664Z" fill="#089156"/>
<path d="M149.507 241.728C149.509 241.725 149.512 241.719 149.514 241.716C149.512 241.719 149.509 241.725 149.507 241.728Z" fill="#089156"/>
<path d="M149.477 241.784C149.479 241.78 149.484 241.772 149.486 241.767C149.484 241.772 149.479 241.78 149.477 241.784Z" fill="#089156"/>
<path d="M149.421 241.875C149.423 241.871 149.428 241.862 149.431 241.858C149.428 241.862 149.423 241.871 149.421 241.875Z" fill="#089156"/>
<path d="M149.39 241.925C149.393 241.92 149.398 241.911 149.401 241.907C149.398 241.911 149.393 241.92 149.39 241.925Z" fill="#089156"/>
<path d="M149.353 241.996C149.356 241.991 149.363 241.979 149.366 241.974C149.363 241.979 149.356 241.991 149.353 241.996Z" fill="#089156"/>
<path d="M149.341 242.015C149.344 242.009 149.351 241.998 149.354 241.992C149.351 241.998 149.344 242.009 149.341 242.015Z" fill="#089156"/>
<path d="M149.307 242.068C149.308 242.066 149.311 242.062 149.312 242.06C149.311 242.062 149.308 242.066 149.307 242.068Z" fill="#089156"/>
<path d="M149.278 242.144C149.279 242.137 149.282 242.125 149.283 242.119C149.282 242.125 149.279 242.137 149.278 242.144Z" fill="#089156"/>
<path d="M149.235 242.206C149.246 242.19 149.267 242.157 149.278 242.141C149.267 242.157 149.246 242.19 149.235 242.206Z" fill="#089156"/>
<path d="M149.219 242.225C149.223 242.219 149.231 242.208 149.235 242.202C149.231 242.208 149.223 242.219 149.219 242.225Z" fill="#089156"/>
<path d="M149.19 242.274C149.193 242.27 149.197 242.262 149.2 242.257C149.197 242.262 149.193 242.27 149.19 242.274Z" fill="#089156"/>
<path d="M149.15 242.344C149.153 242.339 149.158 242.329 149.161 242.323C149.158 242.329 149.153 242.339 149.15 242.344Z" fill="#089156"/>
<path d="M149.139 242.363C149.141 242.359 149.146 242.35 149.149 242.346C149.146 242.35 149.141 242.359 149.139 242.363Z" fill="#089156"/>
<path d="M149.105 242.42C149.106 242.418 149.109 242.414 149.11 242.412C149.109 242.414 149.106 242.418 149.105 242.42Z" fill="#089156"/>
<path d="M149.073 242.475C149.074 242.473 149.076 242.469 149.077 242.467C149.076 242.469 149.074 242.473 149.073 242.475Z" fill="#089156"/>
<path d="M152.184 246.072C152.189 246.064 152.199 246.048 152.204 246.04C152.199 246.048 152.189 246.064 152.184 246.072Z" fill="#089156"/>
<path d="M152.171 246.101C152.173 246.098 152.176 246.093 152.178 246.09C152.176 246.093 152.173 246.098 152.171 246.101Z" fill="#089156"/>
<path d="M152.117 246.198C152.12 246.194 152.124 246.186 152.127 246.182C152.124 246.186 152.12 246.194 152.117 246.198Z" fill="#089156"/>
<path d="M152.086 246.249C152.088 246.245 152.093 246.236 152.096 246.232C152.093 246.236 152.088 246.245 152.086 246.249Z" fill="#089156"/>
<path d="M152.057 246.302C152.059 246.299 152.062 246.293 152.063 246.291C152.062 246.293 152.059 246.299 152.057 246.302Z" fill="#089156"/>
<path d="M152.016 246.371C152.019 246.367 152.024 246.358 152.027 246.353C152.024 246.358 152.019 246.367 152.016 246.371Z" fill="#089156"/>
<path d="M152.005 246.394C152.008 246.389 152.015 246.377 152.018 246.372C152.015 246.377 152.008 246.389 152.005 246.394Z" fill="#089156"/>
<path d="M151.966 246.459C151.969 246.455 151.974 246.446 151.976 246.442C151.974 246.446 151.969 246.455 151.966 246.459Z" fill="#089156"/>
<path d="M151.936 246.508C151.938 246.503 151.945 246.493 151.948 246.488C151.945 246.493 151.938 246.503 151.936 246.508Z" fill="#089156"/>
<path d="M151.881 246.606C151.883 246.602 151.888 246.593 151.891 246.589C151.888 246.593 151.883 246.602 151.881 246.606Z" fill="#089156"/>
<path d="M151.85 246.659C151.853 246.652 151.86 246.641 151.863 246.635C151.86 246.641 151.853 246.652 151.85 246.659Z" fill="#089156"/>
<path d="M151.796 246.751C151.799 246.746 151.804 246.737 151.806 246.733C151.804 246.737 151.799 246.746 151.796 246.751Z" fill="#089156"/>
<path d="M151.766 246.807C151.768 246.802 151.773 246.794 151.775 246.79C151.773 246.794 151.768 246.802 151.766 246.807Z" fill="#089156"/>
<path d="M151.734 246.863C151.737 246.859 151.741 246.851 151.744 246.847C151.741 246.851 151.737 246.859 151.734 246.863Z" fill="#089156"/>
<path d="M151.678 246.956C151.68 246.952 151.685 246.943 151.688 246.939C151.685 246.943 151.68 246.952 151.678 246.956Z" fill="#089156"/>
<path d="M151.649 247.009C151.651 247.004 151.656 246.996 151.658 246.992C151.656 246.996 151.651 247.004 151.649 247.009Z" fill="#089156"/>
<path d="M151.617 247.065C151.62 247.061 151.625 247.052 151.628 247.048C151.625 247.052 151.62 247.061 151.617 247.065Z" fill="#089156"/>
<path d="M151.56 247.165C151.562 247.161 151.567 247.153 151.569 247.149C151.567 247.153 151.562 247.161 151.56 247.165Z" fill="#089156"/>
<path d="M151.53 247.211C151.533 247.206 151.539 247.196 151.542 247.191C151.539 247.196 151.533 247.206 151.53 247.211Z" fill="#089156"/>
<path d="M151.479 247.301C151.48 247.298 151.485 247.29 151.487 247.287C151.485 247.29 151.48 247.298 151.479 247.301Z" fill="#089156"/>
<path d="M151.448 247.353C151.449 247.35 151.453 247.344 151.454 247.34C151.453 247.344 151.449 247.35 151.448 247.353Z" fill="#089156"/>
<path d="M151.416 247.416C151.418 247.412 151.422 247.405 151.424 247.401C151.422 247.405 151.418 247.412 151.416 247.416Z" fill="#089156"/>
<path d="M151.357 247.508C151.36 247.503 151.366 247.493 151.369 247.488C151.366 247.493 151.36 247.503 151.357 247.508Z" fill="#089156"/>
<path d="M151.331 247.56C151.333 247.556 151.338 247.547 151.341 247.543C151.338 247.547 151.333 247.556 151.331 247.56Z" fill="#089156"/>
<path d="M151.292 247.627C151.294 247.623 151.3 247.614 151.302 247.609C151.3 247.614 151.294 247.623 151.292 247.627Z" fill="#089156"/>
<path d="M151.281 247.645C151.284 247.641 151.288 247.632 151.291 247.628C151.288 247.632 151.284 247.641 151.281 247.645Z" fill="#089156"/>
<path d="M156.043 239.581C156.046 239.585 156.05 239.594 156.053 239.598C156.05 239.594 156.046 239.585 156.043 239.581Z" fill="#10985B"/>
<path d="M156.28 239.993C156.282 239.996 156.284 240.001 156.286 240.003C156.284 240.001 156.282 239.996 156.28 239.993Z" fill="#10985B"/>
<path d="M156.718 240.748C156.719 240.75 156.721 240.754 156.722 240.757C156.721 240.754 156.719 240.75 156.718 240.748Z" fill="#10985B"/>
<path d="M156.802 240.892C156.804 240.896 156.809 240.905 156.811 240.909C156.809 240.905 156.804 240.896 156.802 240.892Z" fill="#10985B"/>
<path d="M156.921 241.102C156.923 241.104 156.925 241.108 156.926 241.11C156.925 241.108 156.923 241.104 156.921 241.102Z" fill="#10985B"/>
<path d="M157.036 241.299C157.038 241.303 157.043 241.311 157.046 241.315C157.043 241.311 157.038 241.303 157.036 241.299Z" fill="#10985B"/>
<path d="M157.154 241.507C157.156 241.511 157.161 241.52 157.163 241.524C157.161 241.52 157.156 241.511 157.154 241.507Z" fill="#10985B"/>
<path d="M158.205 243.323C158.712 244.202 159.222 245.079 159.725 245.96C159.727 245.963 159.732 245.971 159.734 245.975C159.746 245.995 159.769 246.033 159.78 246.052C159.783 246.055 159.787 246.063 159.79 246.067L159.813 246.107C159.814 246.11 159.817 246.115 159.819 246.118L159.848 246.169C159.851 246.173 159.857 246.184 159.86 246.189C159.862 246.193 159.868 246.202 159.87 246.207L159.899 246.256C159.9 246.258 159.902 246.262 159.903 246.264L159.932 246.313C159.933 246.315 159.935 246.319 159.937 246.321L159.965 246.371C159.968 246.376 159.974 246.385 159.977 246.39C159.979 246.395 159.985 246.405 159.987 246.41L160.017 246.462C160.021 246.472 160.029 246.492 160.033 246.501L160.041 246.517L160.045 246.526L160.051 246.534L160.069 246.56C160.075 246.57 160.087 246.589 160.093 246.599C160.096 246.605 160.104 246.616 160.107 246.622L160.127 246.653C160.132 246.666 160.144 246.692 160.15 246.705L160.159 246.721L160.162 246.727L160.165 246.731C160.177 246.75 160.203 246.788 160.216 246.807C160.219 246.812 160.225 246.823 160.229 246.828L160.246 246.857C160.249 246.862 160.254 246.871 160.257 246.875L160.286 246.927C160.289 246.932 160.294 246.941 160.297 246.946C160.299 246.95 160.304 246.959 160.307 246.964L160.336 247.014C160.337 247.016 160.34 247.021 160.341 247.023L160.368 247.069C160.37 247.072 160.373 247.078 160.375 247.081L160.402 247.128C160.405 247.133 160.411 247.144 160.414 247.149C160.417 247.154 160.423 247.163 160.425 247.168C160.447 247.204 160.467 247.24 160.487 247.278C160.49 247.284 160.495 247.296 160.498 247.302L160.511 247.333C160.515 247.338 160.522 247.35 160.525 247.356C160.53 247.362 160.538 247.373 160.542 247.379L160.562 247.407C160.566 247.413 160.573 247.424 160.577 247.43L160.606 247.481C160.609 247.485 160.614 247.495 160.617 247.499C160.619 247.504 160.625 247.513 160.627 247.518L160.657 247.568C160.658 247.57 160.66 247.574 160.661 247.576L160.689 247.625C160.69 247.627 160.692 247.63 160.694 247.632L160.722 247.682C160.725 247.687 160.731 247.697 160.734 247.702C160.736 247.707 160.742 247.717 160.745 247.722L160.774 247.772C160.775 247.774 160.777 247.778 160.778 247.78L160.809 247.838L160.809 247.864C160.08 247.654 159.362 247.406 158.631 247.204C157.967 246.989 157.297 246.794 156.633 246.581C156.726 246.537 156.825 246.509 156.917 246.465C156.929 246.426 156.941 246.387 156.954 246.348C157.069 246.276 157.199 246.232 157.312 246.157C157.317 246.061 157.316 245.966 157.316 245.87C157.443 245.768 157.578 245.673 157.682 245.546C157.693 245.421 157.599 245.275 157.696 245.17C157.994 244.794 158.175 244.327 158.208 243.847C158.261 243.672 158.165 243.498 158.205 243.323Z" fill="#F9C941"/>
<path d="M160.81 247.865L160.825 247.865L160.833 247.887L160.816 247.889L160.81 247.865Z" fill="#F9C941"/>
<path d="M153.446 244.075C153.449 244.079 153.454 244.088 153.456 244.092C153.454 244.088 153.449 244.079 153.446 244.075Z" fill="#E3B73A"/>
<path d="M153.501 244.171C153.503 244.175 153.508 244.183 153.51 244.187C153.508 244.183 153.503 244.175 153.501 244.171Z" fill="#E3B73A"/>
<path d="M153.533 244.23C153.535 244.232 153.538 244.238 153.54 244.241C153.538 244.238 153.535 244.232 153.533 244.23Z" fill="#E3B73A"/>
<path d="M153.568 244.287C153.571 244.291 153.576 244.3 153.578 244.305C153.576 244.3 153.571 244.291 153.568 244.287Z" fill="#E3B73A"/>
<path d="M153.578 244.303C153.581 244.308 153.586 244.317 153.589 244.322C153.586 244.317 153.581 244.308 153.578 244.303Z" fill="#E3B73A"/>
<path d="M153.615 244.368C153.616 244.371 153.62 244.377 153.621 244.38C153.62 244.377 153.616 244.371 153.615 244.368Z" fill="#E3B73A"/>
<path d="M153.679 244.477C153.681 244.481 153.686 244.49 153.689 244.494C153.686 244.49 153.681 244.481 153.679 244.477Z" fill="#E3B73A"/>
<path d="M153.734 244.574C153.737 244.579 153.742 244.587 153.744 244.591C153.742 244.587 153.737 244.579 153.734 244.574Z" fill="#E3B73A"/>
<path d="M153.77 244.631C153.776 244.641 153.787 244.66 153.793 244.67C153.787 244.66 153.776 244.641 153.77 244.631Z" fill="#E3B73A"/>
<path d="M153.801 244.683C153.802 244.686 153.805 244.692 153.807 244.694C153.805 244.692 153.802 244.686 153.801 244.683Z" fill="#E3B73A"/>
<path d="M153.857 244.784C153.863 244.792 153.873 244.807 153.879 244.815C153.873 244.807 153.863 244.792 153.857 244.784Z" fill="#E3B73A"/>
<path d="M153.886 244.83C153.888 244.833 153.891 244.839 153.893 244.842C153.891 244.839 153.888 244.833 153.886 244.83Z" fill="#E3B73A"/>
<path d="M153.974 244.985C153.98 244.993 153.99 245.009 153.996 245.017C153.99 245.009 153.98 244.993 153.974 244.985Z" fill="#E3B73A"/>
<path d="M154.004 245.031C154.006 245.034 154.009 245.04 154.01 245.042C154.009 245.04 154.006 245.034 154.004 245.031Z" fill="#E3B73A"/>
<path d="M154.055 245.13C154.058 245.135 154.063 245.144 154.065 245.148C154.063 245.144 154.058 245.135 154.055 245.13Z" fill="#E3B73A"/>
<path d="M154.084 245.178C154.088 245.184 154.095 245.197 154.098 245.203C154.095 245.197 154.088 245.184 154.084 245.178Z" fill="#E3B73A"/>
<path d="M154.12 245.241C154.123 245.246 154.129 245.257 154.132 245.262C154.129 245.257 154.123 245.246 154.12 245.241Z" fill="#E3B73A"/>
<path d="M154.132 245.263C154.134 245.267 154.139 245.276 154.142 245.281C154.139 245.276 154.134 245.267 154.132 245.263Z" fill="#E3B73A"/>
<path d="M154.172 245.333C154.173 245.335 154.176 245.339 154.177 245.341C154.176 245.339 154.173 245.335 154.172 245.333Z" fill="#E3B73A"/>
<path d="M154.206 245.39C154.208 245.395 154.213 245.403 154.216 245.408C154.213 245.403 154.208 245.395 154.206 245.39Z" fill="#E3B73A"/>
<path d="M154.232 245.436C154.235 245.441 154.241 245.452 154.244 245.457C154.241 245.452 154.235 245.441 154.232 245.436Z" fill="#E3B73A"/>
<path d="M154.296 245.541C154.301 245.549 154.31 245.566 154.315 245.574C154.31 245.566 154.301 245.549 154.296 245.541Z" fill="#E3B73A"/>
<path d="M154.324 245.587C154.326 245.59 154.329 245.596 154.331 245.598C154.329 245.596 154.326 245.59 154.324 245.587Z" fill="#E3B73A"/>
<path d="M154.382 245.681L154.384 245.685L154.386 245.689C154.385 245.687 154.383 245.683 154.382 245.681Z" fill="#E3B73A"/>
<path d="M154.442 245.797C154.445 245.802 154.449 245.81 154.452 245.815C154.449 245.81 154.445 245.802 154.442 245.797Z" fill="#E3B73A"/>
<path d="M154.452 245.817C154.455 245.823 154.462 245.835 154.466 245.841C154.462 245.835 154.455 245.823 154.452 245.817Z" fill="#E3B73A"/>
<path d="M154.491 245.884C154.493 245.887 154.496 245.893 154.498 245.896C154.496 245.893 154.493 245.887 154.491 245.884Z" fill="#E3B73A"/>
<path d="M154.517 245.928C154.853 246.052 155.2 246.14 155.54 246.252C155.905 246.36 156.267 246.477 156.633 246.582C157.297 246.795 157.967 246.99 158.63 247.204C158.62 247.346 158.648 247.492 158.613 247.631C158.586 247.766 158.424 247.788 158.357 247.896C157.46 247.896 156.564 247.899 155.667 247.895L155.648 247.894C155.277 247.235 154.892 246.584 154.517 245.928Z" fill="#E3B73A"/>
<path d="M159.725 245.963C159.728 245.967 159.733 245.976 159.735 245.98C159.733 245.976 159.728 245.967 159.725 245.963Z" fill="#E8B835"/>
<path d="M159.781 246.055C159.783 246.059 159.788 246.068 159.791 246.072C159.788 246.068 159.783 246.059 159.781 246.055Z" fill="#E8B835"/>
<path d="M159.813 246.108C159.815 246.111 159.818 246.118 159.82 246.12C159.818 246.118 159.815 246.111 159.813 246.108Z" fill="#E8B835"/>
<path d="M159.848 246.173C159.852 246.179 159.859 246.191 159.862 246.197C159.859 246.191 159.852 246.179 159.848 246.173Z" fill="#E8B835"/>
<path d="M159.859 246.188C159.862 246.192 159.867 246.2 159.87 246.205C159.867 246.2 159.862 246.192 159.859 246.188Z" fill="#E8B835"/>
<path d="M159.899 246.261C159.9 246.263 159.902 246.267 159.903 246.269C159.902 246.267 159.9 246.263 159.899 246.261Z" fill="#E8B835"/>
<path d="M159.932 246.316C159.934 246.32 159.937 246.326 159.939 246.329C159.937 246.326 159.934 246.32 159.932 246.316Z" fill="#E8B835"/>
<path d="M159.965 246.375C159.969 246.381 159.975 246.392 159.979 246.398C159.975 246.392 159.969 246.381 159.965 246.375Z" fill="#E8B835"/>
<path d="M159.977 246.39C159.98 246.396 159.986 246.407 159.989 246.413C159.986 246.407 159.98 246.396 159.977 246.39Z" fill="#E8B835"/>
<path d="M160.017 246.464C160.021 246.474 160.029 246.494 160.033 246.504C160.029 246.494 160.021 246.474 160.017 246.464Z" fill="#E8B835"/>
<path d="M160.042 246.523C160.044 246.527 160.049 246.536 160.052 246.54L160.045 246.531L160.042 246.523Z" fill="#E8B835"/>
<path d="M160.069 246.565C160.075 246.575 160.087 246.594 160.093 246.604C160.087 246.594 160.075 246.575 160.069 246.565Z" fill="#E8B835"/>
<path d="M160.093 246.6C160.096 246.606 160.104 246.617 160.107 246.623C160.104 246.617 160.096 246.606 160.093 246.6Z" fill="#E8B835"/>
<path d="M160.127 246.657C160.133 246.67 160.144 246.697 160.15 246.71C160.144 246.697 160.133 246.67 160.127 246.657Z" fill="#E8B835"/>
<path d="M160.159 246.725C160.161 246.728 160.164 246.734 160.166 246.737L160.163 246.732L160.159 246.725Z" fill="#E8B835"/>
<path d="M160.216 246.81C160.219 246.815 160.225 246.826 160.228 246.831C160.225 246.826 160.219 246.815 160.216 246.81Z" fill="#E8B835"/>
<path d="M160.247 246.862C160.249 246.866 160.254 246.875 160.257 246.879C160.254 246.875 160.249 246.866 160.247 246.862Z" fill="#E8B835"/>
<path d="M160.287 246.93C160.289 246.934 160.294 246.943 160.297 246.948C160.294 246.943 160.289 246.934 160.287 246.93Z" fill="#E8B835"/>
<path d="M160.297 246.945C160.299 246.949 160.304 246.958 160.307 246.962C160.304 246.958 160.299 246.949 160.297 246.945Z" fill="#E8B835"/>
<path d="M160.336 247.016C160.338 247.019 160.341 247.024 160.343 247.027C160.341 247.024 160.338 247.019 160.336 247.016Z" fill="#E8B835"/>
<path d="M160.368 247.072C160.37 247.075 160.375 247.083 160.377 247.086C160.375 247.083 160.37 247.075 160.368 247.072Z" fill="#E8B835"/>
<path d="M160.402 247.132C160.405 247.137 160.411 247.148 160.414 247.153C160.411 247.148 160.405 247.137 160.402 247.132Z" fill="#E8B835"/>
<path d="M160.415 247.153C160.417 247.157 160.423 247.166 160.425 247.171C160.423 247.166 160.417 247.157 160.415 247.153Z" fill="#E8B835"/>
<path d="M158.631 247.208C159.362 247.41 160.08 247.658 160.809 247.868L160.816 247.892C159.997 247.911 159.177 247.895 158.358 247.899C158.425 247.791 158.587 247.77 158.614 247.635C158.649 247.495 158.621 247.35 158.631 247.208Z" fill="#E8B835"/>
<path d="M160.487 247.278C160.49 247.284 160.496 247.296 160.498 247.302C160.496 247.296 160.49 247.284 160.487 247.278Z" fill="#E8B835"/>
<path d="M160.511 247.339C160.515 247.344 160.522 247.356 160.525 247.362C160.522 247.356 160.515 247.344 160.511 247.339Z" fill="#E8B835"/>
<path d="M160.525 247.359C160.529 247.365 160.537 247.375 160.542 247.381C160.537 247.375 160.529 247.365 160.525 247.359Z" fill="#E8B835"/>
<path d="M160.563 247.409C160.566 247.414 160.573 247.425 160.577 247.43C160.573 247.425 160.566 247.414 160.563 247.409Z" fill="#E8B835"/>
<path d="M160.606 247.484C160.609 247.489 160.614 247.498 160.617 247.502C160.614 247.498 160.609 247.489 160.606 247.484Z" fill="#E8B835"/>
<path d="M160.617 247.502C160.619 247.507 160.625 247.516 160.627 247.52C160.625 247.516 160.619 247.507 160.617 247.502Z" fill="#E8B835"/>
<path d="M160.657 247.569C160.658 247.571 160.66 247.575 160.661 247.577C160.66 247.575 160.658 247.571 160.657 247.569Z" fill="#E8B835"/>
<path d="M160.689 247.63C160.691 247.633 160.695 247.639 160.697 247.642C160.695 247.639 160.691 247.633 160.689 247.63Z" fill="#E8B835"/>
<path d="M160.722 247.687C160.725 247.693 160.732 247.705 160.736 247.711C160.732 247.705 160.725 247.693 160.722 247.687Z" fill="#E8B835"/>
<path d="M160.734 247.705C160.737 247.711 160.744 247.723 160.747 247.729C160.744 247.723 160.737 247.711 160.734 247.705Z" fill="#E8B835"/>
<path d="M160.774 247.775C160.776 247.777 160.778 247.781 160.779 247.783C160.778 247.781 160.776 247.777 160.774 247.775Z" fill="#E8B835"/>
<path d="M160.809 247.843C160.813 247.85 160.82 247.863 160.824 247.87L160.809 247.869L160.809 247.843Z" fill="#E8B835"/>
<path d="M150.237 249.427C150.538 248.915 150.823 248.393 151.134 247.886C152.639 247.892 154.144 247.878 155.649 247.892L155.668 247.893C154.907 247.918 154.144 247.887 153.383 247.906C153.237 248 153.141 248.151 153.002 248.253C152.873 248.347 152.777 248.478 152.654 248.579C152.481 248.706 152.353 248.883 152.177 249.008C151.974 249.223 151.74 249.404 151.536 249.617C151.382 249.735 151.254 249.881 151.111 250.01C150.954 250.124 150.834 250.279 150.687 250.405C150.683 250.408 150.676 250.414 150.672 250.418C150.664 250.424 150.649 250.437 150.641 250.443C150.637 250.446 150.63 250.452 150.626 250.455C150.51 250.545 150.422 250.663 150.308 250.755C150.304 250.758 150.297 250.764 150.294 250.767C150.29 250.77 150.283 250.776 150.279 250.779C150.113 250.915 149.98 251.087 149.806 251.214C149.631 251.388 149.433 251.537 149.267 251.72C149.021 251.923 148.808 252.161 148.554 252.355C148.617 252.218 148.701 252.092 148.774 251.96C149.262 251.116 149.749 250.272 150.237 249.427Z" fill="#296AD9"/>
<path d="M148.541 252.377C148.544 252.372 148.55 252.363 148.553 252.359L148.552 252.377L148.541 252.377Z" fill="#296AD9"/>
<path d="M155.667 247.893C156.564 247.897 157.461 247.894 158.358 247.894C159.177 247.89 159.997 247.905 160.816 247.886L160.833 247.885L160.844 247.888V247.891C159.98 249.385 159.118 250.882 158.253 252.376C155.02 252.376 151.786 252.379 148.553 252.374L148.554 252.355C148.807 252.161 149.02 251.923 149.266 251.72C149.432 251.537 149.63 251.388 149.805 251.214C149.979 251.087 150.112 250.915 150.278 250.779C150.282 250.776 150.289 250.77 150.293 250.767C150.296 250.764 150.304 250.758 150.308 250.755C150.421 250.663 150.51 250.545 150.626 250.455C150.629 250.452 150.636 250.446 150.64 250.443C150.648 250.437 150.663 250.424 150.671 250.418C150.675 250.414 150.682 250.408 150.686 250.405C150.833 250.279 150.954 250.124 151.111 250.01C151.253 249.881 151.382 249.735 151.535 249.617C151.74 249.404 151.974 249.223 152.177 249.008C152.352 248.883 152.481 248.706 152.654 248.579C152.777 248.478 152.872 248.347 153.001 248.253C153.14 248.151 153.237 248 153.382 247.906C154.143 247.887 154.906 247.918 155.667 247.893Z" fill="#2A71E9"/>
<path d="M150.672 250.42C150.676 250.416 150.684 250.408 150.688 250.405C150.684 250.408 150.676 250.416 150.672 250.42Z" fill="#286EE6"/>
<path d="M150.64 250.442C150.647 250.436 150.662 250.424 150.67 250.418C150.662 250.424 150.647 250.436 150.64 250.442Z" fill="#286EE6"/>
<path d="M150.625 250.458C150.63 250.454 150.638 250.447 150.643 250.444C150.638 250.447 150.63 250.454 150.625 250.458Z" fill="#286EE6"/>
<path d="M150.293 250.769C150.297 250.766 150.306 250.758 150.311 250.755C150.306 250.758 150.297 250.766 150.293 250.769Z" fill="#286EE6"/>
<path d="M150.278 250.78C150.282 250.776 150.29 250.769 150.295 250.766C150.29 250.769 150.282 250.776 150.278 250.78Z" fill="#286EE6"/>
</g>
</g>
<g filter="url(#filter2_d)">
<path d="M95 96.3303C95 93.3865 97.3865 91 100.33 91H206.937C209.881 91 212.267 93.3865 212.267 96.3303V180.549C212.267 183.493 209.881 185.88 206.937 185.88H100.33C97.3865 185.88 95 183.493 95 180.549V96.3303Z" fill="white"/>
<path d="M139.319 118.592C139.319 117.415 140.273 116.46 141.451 116.46H164.904C166.082 116.46 167.037 117.415 167.037 118.592V142.046C167.037 143.223 166.082 144.178 164.904 144.178H141.451C140.273 144.178 139.319 143.223 139.319 142.045V118.592Z" fill="#F2F7FF"/>
<path d="M136.662 156.242C136.662 157.067 136.523 157.788 136.246 158.405C135.968 159.018 135.575 159.487 135.066 159.81C134.557 160.134 133.963 160.296 133.284 160.296C132.621 160.296 132.033 160.134 131.52 159.81C131.008 159.483 130.609 159.018 130.323 158.417C130.042 157.811 129.897 157.111 129.889 156.317V155.71C129.889 154.9 130.03 154.185 130.312 153.564C130.593 152.943 130.99 152.469 131.503 152.141C132.02 151.81 132.61 151.644 133.273 151.644C133.948 151.644 134.541 151.808 135.054 152.135C135.571 152.459 135.968 152.932 136.246 153.552C136.523 154.169 136.662 154.888 136.662 155.71V156.242ZM135.557 155.698C135.557 154.7 135.357 153.934 134.956 153.402C134.555 152.866 133.994 152.598 133.273 152.598C132.571 152.598 132.018 152.866 131.613 153.402C131.212 153.934 131.006 154.674 130.994 155.623V156.242C130.994 157.21 131.197 157.971 131.601 158.526C132.01 159.078 132.571 159.354 133.284 159.354C134.002 159.354 134.557 159.093 134.95 158.573C135.343 158.048 135.546 157.298 135.557 156.323V155.698Z" fill="#082B6B"/>
<path d="M139.172 153.923L139.207 154.709C139.685 154.108 140.31 153.807 141.081 153.807C142.404 153.807 143.071 154.553 143.082 156.045V160.181H142.012V156.039C142.008 155.588 141.904 155.255 141.7 155.039C141.499 154.823 141.185 154.715 140.757 154.715C140.41 154.715 140.105 154.808 139.843 154.993C139.581 155.178 139.377 155.421 139.23 155.721V160.181H138.16V153.923H139.172Z" fill="#082B6B"/>
<path d="M147.293 160.296C146.444 160.296 145.754 160.019 145.222 159.463C144.69 158.904 144.424 158.158 144.424 157.225V157.028C144.424 156.408 144.542 155.854 144.777 155.369C145.016 154.879 145.347 154.497 145.772 154.223C146.2 153.946 146.662 153.807 147.16 153.807C147.973 153.807 148.606 154.075 149.057 154.611C149.508 155.147 149.734 155.914 149.734 156.913V157.358H145.494C145.509 157.975 145.689 158.474 146.032 158.856C146.379 159.234 146.818 159.423 147.351 159.423C147.728 159.423 148.049 159.346 148.311 159.192C148.573 159.037 148.802 158.833 148.999 158.579L149.653 159.088C149.128 159.893 148.342 160.296 147.293 160.296ZM147.16 154.686C146.728 154.686 146.365 154.844 146.072 155.16C145.779 155.473 145.598 155.912 145.529 156.479H148.664V156.398C148.633 155.854 148.486 155.434 148.224 155.137C147.962 154.836 147.607 154.686 147.16 154.686Z" fill="#082B6B"/>
<path d="M151.145 160.181V151.759H153.522C154.254 151.759 154.902 151.921 155.465 152.245C156.028 152.569 156.462 153.03 156.767 153.628C157.075 154.225 157.231 154.912 157.235 155.687V156.225C157.235 157.019 157.081 157.715 156.772 158.312C156.468 158.91 156.03 159.369 155.459 159.689C154.893 160.009 154.231 160.173 153.476 160.181H151.145ZM152.255 152.673V159.273H153.424C154.28 159.273 154.945 159.007 155.419 158.474C155.897 157.942 156.136 157.185 156.136 156.201V155.71C156.136 154.754 155.911 154.011 155.459 153.483C155.012 152.951 154.376 152.681 153.551 152.673H152.255Z" fill="#082B6B"/>
<path d="M161.775 154.883C161.613 154.856 161.438 154.842 161.249 154.842C160.547 154.842 160.071 155.141 159.82 155.739V160.181H158.75V153.923H159.791L159.809 154.646C160.16 154.086 160.657 153.807 161.301 153.807C161.509 153.807 161.667 153.834 161.775 153.888V154.883Z" fill="#082B6B"/>
<path d="M163.927 160.181H162.857V153.923H163.927V160.181ZM162.77 152.263C162.77 152.089 162.822 151.943 162.926 151.823C163.034 151.704 163.192 151.644 163.401 151.644C163.609 151.644 163.767 151.704 163.875 151.823C163.983 151.943 164.037 152.089 164.037 152.263C164.037 152.436 163.983 152.581 163.875 152.696C163.767 152.812 163.609 152.87 163.401 152.87C163.192 152.87 163.034 152.812 162.926 152.696C162.822 152.581 162.77 152.436 162.77 152.263Z" fill="#082B6B"/>
<path d="M167.709 158.729L169.26 153.923H170.353L168.109 160.181H167.293L165.026 153.923H166.119L167.709 158.729Z" fill="#082B6B"/>
<path d="M173.898 160.296C173.05 160.296 172.36 160.019 171.827 159.463C171.295 158.904 171.029 158.158 171.029 157.225V157.028C171.029 156.408 171.147 155.854 171.382 155.369C171.621 154.879 171.953 154.497 172.377 154.223C172.805 153.946 173.268 153.807 173.765 153.807C174.579 153.807 175.211 154.075 175.662 154.611C176.113 155.147 176.339 155.914 176.339 156.913V157.358H172.099C172.115 157.975 172.294 158.474 172.637 158.856C172.984 159.234 173.424 159.423 173.956 159.423C174.334 159.423 174.654 159.346 174.916 159.192C175.178 159.037 175.408 158.833 175.604 158.579L176.258 159.088C175.733 159.893 174.947 160.296 173.898 160.296ZM173.765 154.686C173.333 154.686 172.971 154.844 172.678 155.16C172.385 155.473 172.203 155.912 172.134 156.479H175.269V156.398C175.238 155.854 175.091 155.434 174.829 155.137C174.567 154.836 174.212 154.686 173.765 154.686Z" fill="#082B6B"/>
<path d="M202.672 109.128C202.672 109.717 202.195 110.194 201.606 110.194C201.018 110.194 200.54 109.717 200.54 109.128C200.54 108.539 201.018 108.062 201.606 108.062C202.195 108.062 202.672 108.539 202.672 109.128Z" fill="#DCE3EB"/>
<path d="M198.941 109.128C198.941 109.717 198.464 110.194 197.875 110.194C197.286 110.194 196.809 109.717 196.809 109.128C196.809 108.539 197.286 108.062 197.875 108.062C198.464 108.062 198.941 108.539 198.941 109.128Z" fill="#DCE3EB"/>
<path d="M195.21 109.128C195.21 109.717 194.733 110.194 194.144 110.194C193.555 110.194 193.078 109.717 193.078 109.128C193.078 108.539 193.555 108.062 194.144 108.062C194.733 108.062 195.21 108.539 195.21 109.128Z" fill="#DCE3EB"/>
<path d="M155.029 131.811L158.464 128.526C157.75 125.744 154.917 124.067 152.135 124.781C150.882 125.102 149.794 125.879 149.083 126.959C149.136 126.958 155.029 131.811 155.029 131.811Z" fill="#0364B8"/>
<path d="M151.322 127.579L151.321 127.579C150.665 127.173 149.908 126.958 149.136 126.959C149.118 126.959 149.101 126.96 149.083 126.96C146.787 126.989 144.948 128.873 144.977 131.17C144.987 132.003 145.247 132.813 145.724 133.496L150.87 132.852L154.815 129.671L151.322 127.579Z" fill="#0078D4"/>
<path d="M158.464 128.528C158.389 128.523 158.313 128.519 158.236 128.519C157.775 128.519 157.319 128.613 156.896 128.796L156.896 128.795L154.815 129.671L157.109 132.505L161.211 133.503C162.097 131.859 161.482 129.809 159.839 128.924C159.414 128.695 158.945 128.56 158.464 128.528V128.528H158.464Z" fill="#1490DF"/>
<path d="M145.724 133.497C146.501 134.614 147.776 135.28 149.136 135.279H158.236C159.479 135.28 160.622 134.598 161.211 133.503L154.815 129.672L145.724 133.497Z" fill="#28A8EA"/>
</g>
<defs>
<filter id="filter0_d" x="140.864" y="62.0356" width="305.858" height="283.47" filterUnits="userSpaceOnUse" color-interpolation-filters="sRGB">
<feFlood flood-opacity="0" result="BackgroundImageFix"/>
<feColorMatrix in="SourceAlpha" type="matrix" values="0 0 0 0 0 0 0 0 0 0 0 0 0 0 0 0 0 0 127 0"/>
<feOffset dy="4.13536"/>
<feGaussianBlur stdDeviation="47.1476"/>
<feColorMatrix type="matrix" values="0 0 0 0 0 0 0 0 0 0 0 0 0 0 0 0 0 0 0.05 0"/>
<feBlend mode="normal" in2="BackgroundImageFix" result="effect1_dropShadow"/>
<feBlend mode="normal" in="SourceGraphic" in2="effect1_dropShadow" result="shape"/>
</filter>
<filter id="filter1_d" x="0.704704" y="117.311" width="305.858" height="283.47" filterUnits="userSpaceOnUse" color-interpolation-filters="sRGB">
<feFlood flood-opacity="0" result="BackgroundImageFix"/>
<feColorMatrix in="SourceAlpha" type="matrix" values="0 0 0 0 0 0 0 0 0 0 0 0 0 0 0 0 0 0 127 0"/>
<feOffset dy="4.13536"/>
<feGaussianBlur stdDeviation="47.1476"/>
<feColorMatrix type="matrix" values="0 0 0 0 0 0 0 0 0 0 0 0 0 0 0 0 0 0 0.05 0"/>
<feBlend mode="normal" in2="BackgroundImageFix" result="effect1_dropShadow"/>
<feBlend mode="normal" in="SourceGraphic" in2="effect1_dropShadow" result="shape"/>
</filter>
<filter id="filter2_d" x="0.704704" y="0.840064" width="305.858" height="283.47" filterUnits="userSpaceOnUse" color-interpolation-filters="sRGB">
<feFlood flood-opacity="0" result="BackgroundImageFix"/>
<feColorMatrix in="SourceAlpha" type="matrix" values="0 0 0 0 0 0 0 0 0 0 0 0 0 0 0 0 0 0 127 0"/>
<feOffset dy="4.13536"/>
<feGaussianBlur stdDeviation="47.1476"/>
<feColorMatrix type="matrix" values="0 0 0 0 0 0 0 0 0 0 0 0 0 0 0 0 0 0 0.05 0"/>
<feBlend mode="normal" in2="BackgroundImageFix" result="effect1_dropShadow"/>
<feBlend mode="normal" in="SourceGraphic" in2="effect1_dropShadow" result="shape"/>
</filter>
<clipPath id="clip0">
<rect width="13.7522" height="12.7928" fill="white" transform="translate(286.419 184.274)"/>
</clipPath>
<clipPath id="clip1">
<rect width="14.9249" height="14.9249" fill="white" transform="translate(145.919 238.465)"/>
</clipPath>
</defs>
</svg>
